<svg xmlns="http://www.w3.org/2000/svg" xmlns:xlink="http://www.w3.org/1999/xlink" fill="none" version="1.1" width="24" height="24" viewBox="0 0 24 24"><defs><clipPath id="master_svg0_306_750"><rect x="0" y="0" width="24" height="24" rx="0"/></clipPath></defs><g clip-path="url(#master_svg0_306_750)"><g><g><path d="M20.626799155625573,9.644398211860656C21.039999155625573,9.224928211860657,21.389399155625572,8.852848211860657,21.652299155625574,8.508238211860657C22.036599155625574,8.004628211860656,22.306099155625574,7.472558211860656,22.306099155625574,6.828428211860657C22.306099155625574,6.184298211860657,22.036599155625574,5.6522182118606565,21.652299155625574,5.148618211860657C21.288299155625573,4.671488211860657,20.758499155625575,4.141718211860656,20.123099155625574,3.5064082118606565L20.049599155625575,3.432898211860657C19.414299155625574,2.7975582118606566,18.884599155625573,2.2677582118606567,18.407399155625573,1.9037312118606566C17.903799155625574,1.5194972118606567,17.371799155625574,1.2499982118606567,16.727599155625576,1.2499982118606567C16.083499155625574,1.2499982118606567,15.551399155625573,1.5194972118606567,15.047799155625574,1.9037312118606566C14.702599155625574,2.167114211860657,14.329899155625574,2.5172682118606566,13.909499155625573,2.9313982118606567L14.434099155625574,3.474198211860657L20.080799155625574,9.120908211860657L20.626799155625573,9.644398211860656ZM15.951999155625574,16.796398211860655L20.749999155625574,11.998398211860657L20.749999155625574,12.045298211860656C20.749999155625574,13.881798211860657,20.749999155625574,15.321398211860657,20.626299155625574,16.463498211860657C20.499999155625574,17.629098211860658,20.237699155625574,18.573398211860656,19.651799155625575,19.379798211860656C19.297199155625574,19.867898211860656,18.867899155625572,20.297198211860657,18.379799155625573,20.65179821186066C17.573399155625573,21.237698211860657,16.629099155625575,21.499998211860657,15.463499155625573,21.626298211860657C14.321399155625574,21.749998211860657,12.881799155625574,21.749998211860657,11.045269155625574,21.749998211860657L10.954649155625575,21.749998211860657C9.118169155625573,21.749998211860657,7.678589155625573,21.749998211860657,6.536479155625574,21.626298211860657C5.370939155625574,21.499998211860657,4.426559155625574,21.237698211860657,3.6202391556255735,20.65179821186066C3.1320891556255734,20.297198211860657,2.7028091556255736,19.867898211860656,2.3481491556255736,19.379798211860656C1.7623231556255736,18.573398211860656,1.5000061556255737,17.629098211860658,1.3737271556255737,16.463498211860657C1.2499852799255735,15.321398211860657,1.2499913772255735,13.881798211860657,1.2499991556255736,12.045198211860656L1.2499991556255736,11.954698211860658C1.2499913772255735,10.118208211860656,1.2499852816255737,8.678608211860656,1.3737271556255737,7.536478211860657C1.5000061556255737,6.370938211860657,1.7623231556255736,5.426558211860657,2.3481491556255736,4.620238211860657C2.7028091556255736,4.132088211860657,3.1320891556255734,3.7028082118606567,3.6202391556255735,3.3481482118606567C4.426559155625574,2.7623182118606566,5.370939155625574,2.500008211860657,6.536479155625574,2.373728211860657C7.678609155625574,2.2499842118606566,9.118219155625575,2.2499902118606565,10.954749155625574,2.2499982118606567L11.045329155625573,2.2499982118606567C11.417099155625573,2.2499972118606566,11.772599155625574,2.2499952118606568,12.112699155625574,2.2510182118606568L6.759639155625574,7.604028211860657C6.726919155625573,7.636748211860657,6.692169155625574,7.671138211860657,6.655849155625574,7.707088211860657C6.280539155625574,8.078518211860658,5.731179155625574,8.622198211860656,5.389679155625574,9.332748211860658C5.0481691556255734,10.043288211860657,4.966799155625574,10.811948211860656,4.911219155625574,11.336998211860656C4.905839155625573,11.387898211860657,4.900699155625574,11.436398211860658,4.895589155625574,11.482398211860657L4.879649155625573,11.625698211860657C4.7659091556255735,12.646898211860657,4.652729155625574,13.663198211860657,4.679889155625574,14.504198211860658C4.710489155625574,15.451698211860657,4.925019155625574,16.661098211860654,5.910009155625573,17.646098211860657C6.894999155625573,18.631098211860657,8.104419155625575,18.845598211860658,9.051849155625574,18.876198211860657C9.892889155625573,18.90329821186066,10.909149155625574,18.790098211860656,11.930399155625574,18.676398211860658L12.073599155625574,18.660498211860656C12.119699155625574,18.655398211860657,12.168199155625574,18.65019821186066,12.219099155625573,18.644798211860657C12.744199155625573,18.58929821186066,13.512799155625574,18.507898211860656,14.223299155625574,18.166398211860656C14.933899155625573,17.824898211860656,15.477499155625573,17.275498211860658,15.848999155625574,16.900198211860655C15.884899155625574,16.863898211860658,15.919299155625573,16.829198211860657,15.951999155625574,16.796398211860655ZM12.847499155625574,3.9910182118606565L7.924729155625574,8.913738211860657C7.5038491556255735,9.333928211860657,7.171059155625573,9.666168211860656,6.966959155625574,10.090828211860657C6.7628591556255735,10.515478211860657,6.711319155625573,10.982888211860656,6.646129155625574,11.573998211860657L6.628429155625573,11.733798211860657C6.506489155625574,12.830998211860656,6.405979155625573,13.735298211860657,6.428979155625574,14.447698211860656C6.453039155625573,15.192798211860657,6.614049155625573,15.875198211860656,7.147449155625574,16.408598211860657C7.6808391556255735,16.941998211860657,8.363289155625573,17.10299821186066,9.108339155625574,17.127098211860655C9.820709155625574,17.15009821186066,10.725069155625574,17.049598211860655,11.822199155625574,16.927598211860655L11.982099155625574,16.909898211860657C12.573199155625574,16.844698211860656,13.040599155625573,16.793198211860656,13.465199155625573,16.58909821186066C13.889899155625574,16.384998211860655,14.222099155625573,16.052198211860656,14.642299155625574,15.631298211860656L19.567099155625574,10.706468211860656L19.031299155625575,10.192768211860656L13.359799155625574,4.521268211860656L12.847499155625574,3.9910182118606565Z" fill-rule="evenodd" fill="#11141D" fill-opacity="1"/></g></g></g></svg>