<svg xmlns="http://www.w3.org/2000/svg" xmlns:xlink="http://www.w3.org/1999/xlink" fill="none" version="1.1" width="24" height="24" viewBox="0 0 24 24"><defs><clipPath id="master_svg0_306_744"><rect x="0" y="0" width="24" height="24" rx="0"/></clipPath></defs><g clip-path="url(#master_svg0_306_744)"><g><g><path d="M19.999977111816406,6C18.895377111816405,6,17.999977111816406,5.10457,17.999977111816406,4C17.999977111816406,2.895431,18.895377111816405,2,19.999977111816406,2C21.104577111816408,2,21.999977111816406,2.895431,21.999977111816406,4C21.999977111816406,5.10457,21.104577111816408,6,19.999977111816406,6ZM16.999977111816406,4C16.999977111816406,5.65685,18.343077111816406,7,19.999977111816406,7C20.539877111816406,7,21.046477111816408,6.85739,21.484077111816408,6.60778C21.544877111816405,6.90123,21.590877111816408,7.21018,21.626277111816407,7.53648C21.749977111816406,8.67859,21.749977111816406,10.11816,21.749977111816406,11.95465L21.749977111816406,12.0453C21.749977111816406,13.8818,21.749977111816406,15.3214,21.626277111816407,16.4635C21.499977111816406,17.6291,21.237677111816406,18.5734,20.651777111816408,19.3798C20.297177111816406,19.8679,19.867877111816405,20.2972,19.379777111816406,20.6518C18.573377111816406,21.2377,17.629077111816407,21.5,16.463477111816406,21.6263C15.321377111816407,21.75,13.881777111816406,21.75,12.045327111816405,21.75L11.954707111816406,21.75C10.118217111816406,21.75,8.678567111816406,21.75,7.536457111816406,21.6263C6.370917111816406,21.5,5.4265371118164065,21.2377,4.620217111816406,20.6518C4.132067111816406,20.2972,3.702787111816406,19.8679,3.348127111816406,19.3798C2.7623011118164063,18.5734,2.4999841118164063,17.6291,2.373705111816406,16.4635C2.249963219316406,15.3214,2.2499693239864063,13.8818,2.2499771118164062,12.0452L2.2499771118164062,11.95474C2.2499693239864063,10.11821,2.2499632229164064,8.678609999999999,2.373705111816406,7.53648C2.4999841118164063,6.37094,2.7623011118164063,5.42656,3.348127111816406,4.62024C3.702787111816406,4.13209,4.132067111816406,3.70281,4.620217111816406,3.34815C5.4265371118164065,2.762324,6.370917111816406,2.500006,7.536457111816406,2.373728C8.678587111816405,2.249986,10.118187111816408,2.2499919999999998,11.954727111816407,2.25L12.045227111816406,2.25C13.881777111816406,2.2499919999999998,15.321377111816407,2.249986,16.463477111816406,2.373728C16.789777111816406,2.40908,17.098777111816407,2.455095,17.39217711181641,2.515883C17.142577111816408,2.953535,16.999977111816406,3.4601100000000002,16.999977111816406,4ZM17.673377111816407,9.47315C17.85577711181641,9.10127,17.702177111816404,8.65192,17.330277111816407,8.4695C16.958377111816404,8.28708,16.509077111816406,8.44067,16.326577111816405,8.81255L14.866277111816407,11.7896C14.413677111816407,12.7124,13.083277111816406,12.6673,12.694177111816407,11.71602C11.814977111816406,9.566970000000001,8.809527111816406,9.46517,7.786957111816406,11.54979L6.326627111816406,14.5268C6.1442071118164066,14.8987,6.297797111816406,15.3481,6.669677111816406,15.5305C7.041557111816406,15.7129,7.490907111816406,15.5593,7.673327111816406,15.1874L9.133657111816406,12.2104C9.586297111816407,11.28763,10.916657111816406,11.3327,11.305817111816406,12.284C12.184977111816407,14.433,15.190377111816407,14.5348,16.212977111816407,12.4502L17.673377111816407,9.47315Z" fill-rule="evenodd" fill="#11141D" fill-opacity="1"/></g></g></g></svg>