<svg xmlns="http://www.w3.org/2000/svg" xmlns:xlink="http://www.w3.org/1999/xlink" fill="none" version="1.1" width="24" height="24" viewBox="0 0 24 24"><defs><clipPath id="master_svg0_306_740"><rect x="0" y="0" width="24" height="24" rx="0"/></clipPath></defs><g clip-path="url(#master_svg0_306_740)"><g><g><path d="M7.11111,6C5.83826,6,4.89085,6,4.14176,6.06511C4.22207,5.541980000000001,4.34788,5.11254,4.54497,4.7262699999999995C5.02433,3.78676,5.78924,3.02292,6.73005,2.544213C7.7996,2,9.19974,2,12,2L14,2C16.8003,2,18.2004,2,19.27,2.544213C20.2108,3.02292,20.9757,3.78676,21.455,4.7262699999999995C22,5.79435,22,7.19254,22,9.98893L22,14.2114C22,16.291600000000003,20.3114,17.977899999999998,18.2283,17.977899999999998L17.6266,17.977899999999998C16.8475,17.977899999999998,16.314700000000002,18.7636,16.604100000000003,19.486C17.0126,20.5058,15.8365,21.4277,14.9415,20.7893L13.5704,19.8113C14.9536,19.1034,15.9173,17.6899,15.995,16.0398C16,15.9342,16,15.8093,16,15.5594L16,13.148C16,10.64596,16,9.39494,15.5156,8.43929C15.0895,7.59868,14.4096,6.91524,13.5733,6.48693C12.6226,6,11.378,6,8.88889,6L7.11111,6ZM15,13.3071C15,11.09938,15,9.99554,14.5761,9.15232C14.2033,8.410599999999999,13.6084,7.80757,12.8766,7.42964C12.0448,7,10.95576,7,8.77778,7L7.22222,7C5.04424,7,3.95525,7,3.12337,7.42964C2.39163,7.80757,1.796704,8.410599999999999,1.423864,9.15232C1,9.99554,1,11.09938,1,13.3071L1,16.6406C1,18.2828,2.31338,19.6141,3.93351,19.6141L4.40154,19.6141C5.00751,19.6141,5.42186,20.2345,5.19681,20.8048C4.87911,21.6098,5.79383,22.3377,6.48993,21.8337L8.5205,20.3635L8.56175,20.3337C9.21041,19.8704,9.98339,19.6193,10.77691,19.6142L10.83917,19.6141C11.0818,19.6141,11.2031,19.6141,11.295,19.6097C13.2982,19.5136,14.9008,17.8891,14.9956,15.8586C15,15.7655,15,15.6552,15,15.4348L15,13.3071ZM6,14C6,14.5523,5.55228,15,5,15C4.44772,15,4,14.5523,4,14C4,13.4477,4.44772,13,5,13C5.55228,13,6,13.4477,6,14ZM8,15C8.55228,15,9,14.5523,9,14C9,13.4477,8.55228,13,8,13C7.44772,13,7,13.4477,7,14C7,14.5523,7.44772,15,8,15ZM12,14C12,14.5523,11.5523,15,11,15C10.44771,15,10,14.5523,10,14C10,13.4477,10.44771,13,11,13C11.5523,13,12,13.4477,12,14Z" fill-rule="evenodd" fill="#11141D" fill-opacity="1"/></g></g></g></svg>