<svg xmlns="http://www.w3.org/2000/svg" xmlns:xlink="http://www.w3.org/1999/xlink" fill="none" version="1.1" width="24" height="24" viewBox="0 0 24 24"><defs><clipPath id="master_svg0_306_742"><rect x="0" y="0" width="24" height="24" rx="0"/></clipPath></defs><g clip-path="url(#master_svg0_306_742)"><g><g><path d="M1.76973690625,9.30291C2.29344290625,7.87189,3.62685390625,6.90311,6.29366390625,4.96556C8.96047390625,3.02801,10.29389390625,2.0592251,11.81675390625,2.00336104C11.93885390625,1.99887965,12.06115390625,1.99887965,12.18335390625,2.00336104C13.70615390625,2.0592252,15.03955390625,3.02801,17.70635390625,4.96557C20.37315390625,6.90312,21.70655390625,7.87189,22.23025390625,9.30291C22.27225390625,9.41771,22.31005390625,9.533999999999999,22.34355390625,9.65157C22.76105390625,11.11711,22.25165390625,12.6846,21.23305390625,15.8197C20.21445390625,18.9547,19.70515390625,20.5222,18.50595390625,21.4625C18.40975390625,21.5379,18.31085390625,21.6098,18.20935390625,21.678C17.78275390625,21.9647,17.31245390625,22.1546,16.74995390625,22.2805L16.74995390625,17.819699999999997C16.74995390625,15.1963,14.62335390625,13.0697,11.99995390625,13.0697C9.376643906249999,13.0697,7.25000390625,15.1963,7.25000390625,17.819699999999997L7.25000390625,22.2805C6.68756390625,22.1546,6.21729390625,21.9647,5.79063390625,21.678C5.68917390625,21.6098,5.59024390625,21.5379,5.4940539062500005,21.4625C4.29490390625,20.5222,3.78558390625,18.9547,2.76695390625,15.8197C1.74832190625,12.6846,1.23900590625,11.11711,1.65645090625,9.65157C1.68993890625,9.533999999999999,1.7277259062499999,9.41771,1.76973690625,9.30291ZM15.24995390625,17.819699999999997L15.24995390625,22.4732C14.37705390625,22.5279,13.32085390625,22.5279,12.00005390625,22.5279C10.67916390625,22.5279,9.62295390625,22.5279,8.75000390625,22.4732L8.75000390625,17.819699999999997C8.75000390625,16.0247,10.20507390625,14.5697,11.99995390625,14.5697C13.79495390625,14.5697,15.24995390625,16.0247,15.24995390625,17.819699999999997ZM11.99995390625,17.069699999999997C12.41425390625,17.069699999999997,12.74995390625,17.4054,12.74995390625,17.819699999999997L12.74995390625,19.8197C12.74995390625,20.2339,12.41425390625,20.5697,11.99995390625,20.5697C11.58575390625,20.5697,11.25000390625,20.2339,11.25000390625,19.8197L11.25000390625,17.819699999999997C11.25000390625,17.4054,11.58575390625,17.069699999999997,11.99995390625,17.069699999999997Z" fill-rule="evenodd" fill="#11141D" fill-opacity="1"/></g></g></g></svg>