<svg xmlns="http://www.w3.org/2000/svg" xmlns:xlink="http://www.w3.org/1999/xlink" fill="none" version="1.1" width="16" height="16" viewBox="0 0 16 16"><defs><clipPath id="master_svg0_294_0543"><rect x="0" y="0" width="16" height="16" rx="0"/></clipPath></defs><g clip-path="url(#master_svg0_294_0543)"><g><g><path d="M13.020243505859375,3.68686598828125C13.215543505859374,3.49160398828125,13.215543505859374,3.17502198828125,13.020243505859375,2.97975998828125C12.824983505859375,2.78449748828125,12.508403505859375,2.78449748828125,12.313143505859374,2.97975998828125C12.313143505859374,2.97975998828125,8.000013505859375,7.29288298828125,8.000013505859375,7.29288298828125C8.000013505859375,7.29288298828125,3.686896505859375,2.97976198828125,3.686896505859375,2.97976198828125C3.491634505859375,2.78449938828125,3.175052505859375,2.78449938828125,2.979790505859375,2.97976198828125C2.784528005859375,3.17502398828125,2.784528005859375,3.49160598828125,2.979790505859375,3.68686798828125C2.979790505859375,3.68686798828125,7.292913505859375,7.99999298828125,7.292913505859375,7.99999298828125C7.292913505859375,7.99999298828125,2.979808505859375,12.31309298828125,2.979808505859375,12.31309298828125C2.784545905859375,12.50835298828125,2.784545905859375,12.82493298828125,2.979808505859375,13.02021298828125C3.175070505859375,13.21541298828125,3.491652505859375,13.21541298828125,3.686914505859375,13.02021298828125C3.686914505859375,13.02021298828125,8.000023505859374,8.70709298828125,8.000023505859374,8.70709298828125C8.000023505859374,8.70709298828125,12.313123505859375,13.02021298828125,12.313123505859375,13.02021298828125C12.508383505859374,13.21551298828125,12.824963505859374,13.21551298828125,13.020243505859375,13.02021298828125C13.215443505859374,12.82494298828125,13.215443505859374,12.50835298828125,13.020243505859375,12.31309298828125C13.020243505859375,12.31309298828125,8.707123505859375,7.99999298828125,8.707123505859375,7.99999298828125C8.707123505859375,7.99999298828125,13.020243505859375,3.68686598828125,13.020243505859375,3.68686598828125Z" fill="#FDFDFD" fill-opacity="1"/></g></g></g></svg>