<svg xmlns="http://www.w3.org/2000/svg" xmlns:xlink="http://www.w3.org/1999/xlink" fill="none" version="1.1" width="16" height="16" viewBox="0 0 16 16"><defs><clipPath id="master_svg0_352_0098"><rect x="0" y="0" width="16" height="16" rx="0"/></clipPath></defs><g clip-path="url(#master_svg0_352_0098)"><g><path d="M12.32993,6.929425C12.55813,6.715463,12.55647,6.3701039999999995,12.32623,6.158043C12.09599,5.9459823,11.72435,5.9475231,11.49615,6.161485C11.49615,6.161485,10.1287,7.44364,10.1287,7.44364C9.57372,7.964,9.19177,8.32095,8.86814,8.56248C8.55377,8.79709,8.351849999999999,8.87758,8.171,8.899000000000001C8.05745,8.91245,7.94255,8.91245,7.829,8.899000000000001C7.64815,8.87758,7.44623,8.79709,7.13186,8.56248C6.80823,8.32095,6.42628,7.964,5.8713,7.44364C5.8713,7.44364,4.50384,6.161485,4.50384,6.161485C4.275649,5.9475236,3.904013,5.9459828,3.673771,6.158044C3.4435303,6.3701039999999995,3.4418722,6.715464,3.670068,6.929425C3.670068,6.929425,5.06216,8.23468,5.06216,8.23468C5.58647,8.7263,6.0149799999999995,9.1281,6.39679,9.41305C6.79383,9.70936,7.19683,9.92386,7.68057,9.98116C7.89268,10.00628,8.10732,10.00628,8.31943,9.98116C8.80317,9.92386,9.20617,9.70936,9.60321,9.41305C9.985019999999999,9.1281,10.41353,8.7263,10.93783,8.23469C10.93783,8.23469,12.32993,6.929425,12.32993,6.929425Z" fill="#11141D" fill-opacity="1"/></g></g></svg>