<svg xmlns="http://www.w3.org/2000/svg" xmlns:xlink="http://www.w3.org/1999/xlink" fill="none" version="1.1" width="16" height="16" viewBox="0 0 16 16"><defs><clipPath id="master_svg0_325_2046"><rect x="0" y="0" width="16" height="16" rx="0"/></clipPath></defs><g clip-path="url(#master_svg0_325_2046)"><g><g><path d="M13.28269999929878,6.2779600212579325C13.574299999298779,5.983762021257933,13.57219999929878,5.508893021257933,13.27799999929878,5.2173090212579325C12.98379999929878,4.925725621257932,12.50889999929878,4.927844321257933,12.21729999929878,5.222041021257932C12.21729999929878,5.222041021257932,10.46999999929878,6.985010021257932,10.46999999929878,6.985010021257932C9.76085999929878,7.700500021257932,9.272819999298779,8.191310021257932,8.85929999929878,8.523410021257932C8.457599999298779,8.846000021257932,8.19957999929878,8.956680021257933,7.968499999298779,8.986130021257932C7.82340999929878,9.004620021257931,7.67658999929878,9.004620021257931,7.53149999929878,8.986130021257932C7.3004199992987795,8.956680021257933,7.042399999298779,8.846010021257932,6.64070999929878,8.523410021257932C6.227179999298779,8.191310021257932,5.7391399992987795,7.700510021257932,5.029999999298779,6.985010021257932C5.029999999298779,6.985010021257932,3.2826899992987797,5.222042021257932,3.2826899992987797,5.222042021257932C2.9911069992987795,4.927845021257932,2.5162379992987796,4.925726421257933,2.2220409992987795,5.217310021257933C1.9278441992987796,5.508894021257932,1.9257255992987796,5.983763021257932,2.21730899929878,6.2779600212579325C2.21730899929878,6.2779600212579325,3.9960899992987793,8.072690021257932,3.9960899992987793,8.072690021257932C4.66603999929878,8.748660021257933,5.2135899992987795,9.301140021257932,5.70145999929878,9.692940021257932C6.208789999298779,10.100370021257932,6.723729999298779,10.395310021257933,7.34183999929878,10.474090021257933C7.61286999929878,10.508640021257932,7.887139999298779,10.508640021257932,8.158159999298778,10.474090021257933C8.77627999929878,10.395310021257933,9.291219999298779,10.100370021257932,9.798539999298779,9.692940021257932C10.28640999929878,9.301140021257932,10.833959999298779,8.748670021257933,11.50389999929878,8.072690021257932C11.50389999929878,8.072690021257932,13.28269999929878,6.2779600212579325,13.28269999929878,6.2779600212579325Z" fill="#11141D" fill-opacity="1"/></g></g></g></svg>