<svg xmlns="http://www.w3.org/2000/svg" xmlns:xlink="http://www.w3.org/1999/xlink" fill="none" version="1.1" width="24" height="24" viewBox="0 0 24 24"><defs><clipPath id="master_svg0_235_779"><rect x="0" y="0" width="24" height="24" rx="0"/></clipPath></defs><g clip-path="url(#master_svg0_235_779)"><g><g><path d="M22.58567520475199,3.5314773732078133C22.84437520475199,3.8549243732078136,22.791975204751992,4.326891373207814,22.46847520475199,4.5856513732078135L2.4685252047519906,20.585671373207813C2.1450772047519906,20.844371373207814,1.6731082047519905,20.791971373207815,1.4143512047519906,20.468471373207812C1.1555940047519906,20.145071373207813,1.2080351047519906,19.673071373207815,1.5314812047519906,19.414371373207814L4.712235204751991,16.86977137320781C3.8690652047519904,15.980471373207813,3.157485204751991,15.072671373207813,2.6111852047519903,14.311671373207814L2.5396152047519904,14.212171373207813C2.0170652047519906,13.486071373207814,1.5869122047519906,12.888301373207813,1.5869192047519904,11.999971373207813C1.5869252047519906,11.111631373207814,2.0171562047519904,10.513821373207813,2.5398152047519904,9.787591373207814L2.6114152047519905,9.688011373207814C3.4796152047519904,8.478651373207814,4.77163520475199,6.889461373207814,6.3517252047519905,5.595711373207814C7.92324520475199,4.308991373207814,9.85904520475199,3.2499989867078134,11.99997520475199,3.2499989867078134C14.38967520475199,3.2499989867078134,16.52897520475199,4.568321373207813,18.20617520475199,6.074611373207814L21.53147520475199,3.4143473732078133C21.85497520475199,3.1555902732078134,22.32687520475199,3.2080312732078133,22.58567520475199,3.5314773732078133ZM17.01727520475199,7.025711373207813C15.50237520475199,5.709291373207813,13.77767520475199,4.750001373207813,11.99997520475199,4.750001373207813C10.35423520475199,4.750001373207813,8.749105204751991,5.571461373207813,7.302005204751991,6.756311373207813C5.86348520475199,7.934141373207813,4.65919520475199,9.407651373207813,3.8299252047519907,10.562781373207812C3.2059752047519905,11.431921373207814,3.0869252047519904,11.641461373207813,3.0869152047519908,11.999981373207813C3.0869152047519908,12.358511373207813,3.2059252047519906,12.567981373207813,3.8297152047519907,13.436871373207813C4.36799520475199,14.186771373207813,5.06699520475199,15.074571373207814,5.88800520475199,15.929171373207813L8.66189520475199,13.709971373207814C8.398685204751992,13.197041373207814,8.25000520475199,12.615381373207814,8.25000520475199,12.000001373207814C8.25000520475199,9.928931373207813,9.92893520475199,8.250001373207812,11.99997520475199,8.250001373207812C12.91337520475199,8.250001373207812,13.750575204751991,8.577041373207813,14.400575204751991,9.119061373207813L17.01727520475199,7.025711373207813ZM20.39537520475199,8.390761373207813C20.13317520475199,8.070031373207813,19.66077520475199,8.022521373207812,19.33997520475199,8.284641373207814C19.01927520475199,8.546761373207813,18.971775204751992,9.019251373207814,19.23387520475199,9.339981373207813C19.58437520475199,9.768851373207813,19.89807520475199,10.183931373207812,20.169975204751992,10.562701373207814C20.79407520475199,11.431911373207814,20.91307520475199,11.641471373207814,20.91307520475199,11.999991373207813C20.91307520475199,12.358521373207813,20.79407520475199,12.568061373207813,20.170075204751992,13.437171373207814C19.340775204751992,14.592371373207813,18.136475204751992,16.065871373207813,16.69797520475199,17.243671373207814C15.25087520475199,18.428571373207813,13.64577520475199,19.249971373207813,11.99997520475199,19.249971373207813C10.59519520475199,19.249971373207813,9.21818520475199,18.652071373207814,7.937535204751991,17.732171373207812C7.601105204751991,17.490571373207814,7.132495204751991,17.567371373207813,6.890855204751991,17.903771373207814C6.649205204751991,18.24027137320781,6.7260452047519905,18.708871373207813,7.0624752047519905,18.95047137320781C8.487005204751991,19.973671373207814,10.16758520475199,20.749971373207813,11.99997520475199,20.749971373207813C14.14097520475199,20.749971373207813,16.07677520475199,19.690971373207812,17.64827520475199,18.404271373207813C19.22837520475199,17.11057137320781,20.52037520475199,15.521371373207813,21.38857520475199,14.311971373207813L21.46017520475199,14.212371373207814C21.98287520475199,13.486171373207814,22.41307520475199,12.888341373207814,22.41307520475199,11.999991373207813C22.41307520475199,11.111641373207814,21.98287520475199,10.513791373207813,21.46017520475199,9.787511373207813L21.38857520475199,9.687931373207814C21.10087520475199,9.287221373207814,20.76817520475199,8.846931373207813,20.39537520475199,8.390761373207813ZM13.18837520475199,10.088871373207812C12.84327520475199,9.873801373207813,12.43617520475199,9.750001373207812,11.99997520475199,9.750001373207812C10.75736520475199,9.750001373207812,9.750005204751991,10.757361373207814,9.750005204751991,12.000001373207814C9.750005204751991,12.259611373207813,9.79374520475199,12.508501373207814,9.87433520475199,12.740071373207813L13.18837520475199,10.088871373207812ZM15.74997520475199,12.000001373207814C15.74997520475199,11.585781373207814,15.41417520475199,11.250001373207814,14.99997520475199,11.250001373207814C14.585775204751991,11.250001373207814,14.24997520475199,11.585781373207814,14.24997520475199,12.000001373207814C14.24997520475199,13.242641373207814,13.24267520475199,14.249971373207813,11.99997520475199,14.249971373207813C11.585775204751991,14.249971373207813,11.24997520475199,14.585771373207814,11.24997520475199,14.999971373207813C11.24997520475199,15.414171373207813,11.585775204751991,15.749971373207813,11.99997520475199,15.749971373207813C14.07107520475199,15.749971373207813,15.74997520475199,14.071071373207813,15.74997520475199,12.000001373207814Z" fill-rule="evenodd" fill="#11141D" fill-opacity="1"/></g></g></g></svg>