<svg xmlns="http://www.w3.org/2000/svg" xmlns:xlink="http://www.w3.org/1999/xlink" fill="none" version="1.1" width="16" height="16" viewBox="0 0 16 16"><defs><clipPath id="master_svg0_356_0106"><rect x="0" y="0" width="16" height="16" rx="0"/></clipPath></defs><g clip-path="url(#master_svg0_356_0106)"><g><g><path d="M4.7336616553497315,1.5471918553497315C5.032111655349731,1.4999218732497315,5.3781116553497315,1.4999492904497314,5.946121655349732,1.4999943912797316L6.666661655349731,1.4999972522997314C7.529051655349732,1.4999972920397315,8.326231655349732,1.7853736553497315,8.966951655349732,2.2666366553497315C9.187751655349732,2.4324816553497315,9.232291655349732,2.7459116553497314,9.06645165534973,2.9667116553497315C8.900601655349732,3.1875016553497315,8.587171655349731,3.232051655349731,8.366371655349731,3.0662016553497313C7.892881655349732,2.7105516553497315,7.305081655349731,2.5000016553497315,6.666661655349731,2.5000016553497315L6.000001655349731,2.5000016553497315C5.361551655349731,2.5000016553497315,5.100541655349732,2.5015516553497315,4.890101655349731,2.5348816553497313C3.6777416553497315,2.7269016553497316,2.7269016553497316,3.6777416553497315,2.5348816553497313,4.890101655349731C2.5015516553497315,5.100541655349732,2.5000016553497315,5.361551655349731,2.5000016553497315,6.000001655349731L2.5000016553497315,10.000001655349731C2.5000016553497315,10.638441655349732,2.5015516553497315,10.899451655349731,2.5348816553497313,11.109891655349731C2.7269016553497316,12.322291655349732,3.6777416553497315,13.273091655349731,4.890101655349731,13.465091655349731C5.100541655349732,13.498491655349731,5.361551655349731,13.499991655349731,6.000001655349731,13.499991655349731L6.666661655349731,13.499991655349731C7.305081655349731,13.499991655349731,7.892881655349732,13.289491655349732,8.366371655349731,12.933791655349731C8.587171655349731,12.767991655349732,8.900601655349732,12.812491655349731,9.06645165534973,13.033291655349732C9.232291655349732,13.25409165534973,9.187751655349732,13.567491655349732,8.966951655349732,13.733391655349731C8.326231655349732,14.214591655349732,7.529051655349732,14.499991655349731,6.666661655349731,14.499991655349731L5.946131655349731,14.499991655349731C5.3781116553497315,14.500091655349731,5.032121655349732,14.500091655349731,4.7336616553497315,14.452791655349731C3.0934116553497315,14.192991655349731,1.8069826553497315,12.90659165534973,1.5471914553497315,11.266331655349731C1.4999218732497315,10.967881655349732,1.4999492904497314,10.621891655349732,1.4999943912897316,10.053871655349731L1.4999945502397314,5.946121655349732C1.4999495288497315,5.378101655349731,1.4999222705497315,5.032111655349731,1.5471917553497314,4.7336616553497315C1.8069826553497315,3.0934116553497315,3.0934116553497315,1.8069826553497315,4.7336616553497315,1.5471918553497315ZM10.941541655349731,5.022681655349731C11.113111655349732,4.806301655349731,11.427601655349731,4.769971655349732,11.643991655349732,4.941541655349731L12.843191655349731,5.892371655349732C13.29149165534973,6.2478316553497315,13.661391655349732,6.5411416553497315,13.924991655349732,6.803671655349731C14.19539165534973,7.073081655349731,14.419591655349732,7.372101655349732,14.48049165534973,7.754211655349732C14.49349165534973,7.8356216553497315,14.499991655349731,7.917741655349731,14.499991655349731,8.000001655349731C14.499991655349731,8.082251655349731,14.49349165534973,8.164371655349733,14.48049165534973,8.245781655349731C14.419591655349732,8.627891655349732,14.19539165534973,8.92691165534973,13.924991655349732,9.196321655349731C13.661391655349732,9.458851655349731,13.29149165534973,9.75217165534973,12.843191655349731,10.107631655349731L11.643991655349732,11.058451655349732C11.427601655349731,11.23002165534973,11.113101655349732,11.193691655349731,10.941541655349731,10.977311655349732C10.769971655349732,10.760931655349731,10.806301655349731,10.446441655349732,11.022681655349732,10.274871655349731L12.197991655349732,9.342981655349732C12.667391655349732,8.97083165534973,12.988691655349731,8.71510165534973,13.206991655349732,8.500001655349731L4.666661655349731,8.500001655349731C4.3905216553497315,8.500001655349731,4.166661655349731,8.276141655349733,4.166661655349731,8.000001655349731C4.166661655349731,7.723851655349732,4.3905216553497315,7.500001655349731,4.666661655349731,7.500001655349731L13.206991655349732,7.500001655349731C12.988691655349731,7.284891655349732,12.667391655349732,7.029161655349731,12.197991655349732,6.657021655349731L11.022681655349732,5.7251216553497315C10.806301655349731,5.5535516553497315,10.769981655349731,5.239061655349731,10.941541655349731,5.022681655349731Z" fill-rule="evenodd" fill="#4D4D4D" fill-opacity="1"/></g></g></g></svg>