<svg xmlns="http://www.w3.org/2000/svg" xmlns:xlink="http://www.w3.org/1999/xlink" fill="none" version="1.1" width="24" height="24" viewBox="0 0 24 24"><defs><clipPath id="master_svg0_314_708"><rect x="0" y="0" width="24" height="24" rx="0"/></clipPath></defs><g clip-path="url(#master_svg0_314_708)"><g><path d="M5.142857,4C4.787817,4,4.5,4.335786,4.5,4.75C4.5,5.16421,4.787817,5.5,5.142857,5.5C5.142857,5.5,18.857100000000003,5.5,18.857100000000003,5.5C19.2122,5.5,19.5,5.16421,19.5,4.75C19.5,4.335786,19.2122,4,18.857100000000003,4C18.857100000000003,4,5.142857,4,5.142857,4Z" fill="#11141D" fill-opacity="1"/></g><g transform="matrix(0,1,-1,0,24.5,-15.5)"><path d="M20.642857,4.5C20.287817,4.5,20,4.835786,20,5.25C20,5.66421,20.287817,6,20.642857,6C20.642857,6,34.3571,6,34.3571,6C34.712199999999996,6,35,5.66421,35,5.25C35,4.835786,34.712199999999996,4.5,34.3571,4.5C34.3571,4.5,20.642857,4.5,20.642857,4.5Z" fill="#11141D" fill-opacity="1"/></g><g transform="matrix(0,1,-1,0,10,-1)"><path d="M6.142857,4.5C5.787817,4.5,5.5,4.835786,5.5,5.25C5.5,5.66421,5.787817,6,6.142857,6C6.142857,6,19.857100000000003,6,19.857100000000003,6C20.2122,6,20.5,5.66421,20.5,5.25C20.5,4.835786,20.2122,4.5,19.857100000000003,4.5C19.857100000000003,4.5,6.142857,4.5,6.142857,4.5Z" fill="#11141D" fill-opacity="1"/></g><g><path d="M5.142857,18.5C4.787817,18.5,4.5,18.835786,4.5,19.25C4.5,19.66421,4.787817,20,5.142857,20C5.142857,20,18.857100000000003,20,18.857100000000003,20C19.2122,20,19.5,19.66421,19.5,19.25C19.5,18.835786,19.2122,18.5,18.857100000000003,18.5C18.857100000000003,18.5,5.142857,18.5,5.142857,18.5Z" fill="#11141D" fill-opacity="1"/></g></g></svg>