<svg xmlns="http://www.w3.org/2000/svg" xmlns:xlink="http://www.w3.org/1999/xlink" fill="none" version="1.1" width="16" height="16" viewBox="0 0 16 16"><defs><clipPath id="master_svg0_318_1794"><rect x="0" y="0" width="16" height="16" rx="0"/></clipPath></defs><g clip-path="url(#master_svg0_318_1794)"><g><g><path d="M3.6657810301208498,5.063568247070313C3.3850010301208497,2.8173482470703126,5.136451030120849,0.8333282470703125,7.40016103012085,0.8333282470703125L8.53544103012085,0.8333282470703125C9.20142103012085,0.8333282470703125,9.825091030120849,1.0054742470703124,10.36552103012085,1.3064182470703125C10.60678103012085,1.4407642470703124,10.69345103012085,1.7452522470703125,10.55910103012085,1.9865082470703126C10.42475103012085,2.2277682470703124,10.12027103012085,2.3144382470703126,9.87901103012085,2.1800882470703122C9.48361103012085,1.9599182470703125,9.02692103012085,1.8333282470703125,8.53544103012085,1.8333282470703125L7.40016103012085,1.8333282470703125C5.73795103012085,1.8333282470703125,4.45188103012085,3.2901682470703126,4.65806103012085,4.939538247070312L4.710961030120849,5.362768247070313C4.828401030120849,6.302298247070312,4.485211030120849,7.240758247070312,3.78937103012085,7.882868247070313C3.16286503012085,8.460998247070313,2.98880403012085,9.381168247070313,3.3608610301208497,10.148178247070312L3.42976103012085,10.290228247070312C3.7886710301208497,11.030128247070312,4.5387710301208495,11.500028247070313,5.361151030120849,11.500028247070313L10.84170103012085,11.500028247070313C11.53962103012085,11.500028247070313,12.18914103012085,11.143428247070313,12.56394103012085,10.554638247070313C13.09284103012085,9.723498247070312,12.95274103012085,8.633148247070313,12.23084103012085,7.962718247070312L12.20164103012085,7.9355482470703125C11.87282103012085,7.630188247070312,11.61935103012085,7.2617482470703125,11.451671030120849,6.858748247070313C11.38319103012085,6.694188247070312,11.32901103012085,6.523848247070313,11.28982103012085,6.349648247070313C11.229221030120849,6.080238247070312,11.39849103012085,5.812708247070312,11.66790103012085,5.752108247070312C11.93731103012085,5.691508247070312,12.20484103012085,5.8607782470703125,12.265441030120849,6.130178247070313C12.29194103012085,6.248008247070312,12.328641030120849,6.363248247070312,12.37494103012085,6.474578247070313C12.48834103012085,6.747168247070313,12.65974103012085,6.996248247070312,12.882141030120849,7.202798247070312L12.91134103012085,7.229968247070312C13.98694103012085,8.228808247070312,14.19564103012085,9.853268247070313,13.40754103012085,11.091528247070313C12.849241030120849,11.968828247070313,11.88151103012085,12.500028247070313,10.84170103012085,12.500028247070313L5.361151030120849,12.500028247070313C4.15567103012085,12.500028247070313,3.05613303012085,11.811328247070312,2.5300210301208494,10.726658247070313L2.4611200301208496,10.584618247070312C1.8966860301208497,9.420988247070312,2.16074999012085,8.025028247070313,3.1112030301208495,7.147958247070313C3.5698810301208495,6.724698247070313,3.7960910301208495,6.1061082470703125,3.71868103012085,5.486798247070313L3.6657810301208498,5.063568247070313ZM11.45568103012085,5.3333282470703125C12.19204103012085,5.3333282470703125,12.789041030120849,4.736378247070313,12.789041030120849,3.9999982470703124C12.789041030120849,3.2636182470703123,12.19204103012085,2.6666582470703126,11.45568103012085,2.6666582470703126C10.71930103012085,2.6666582470703126,10.12234103012085,3.2636182470703123,10.12234103012085,3.9999982470703124C10.12234103012085,4.736378247070313,10.71930103012085,5.3333282470703125,11.45568103012085,5.3333282470703125ZM5.82231103012085,13.600028247070313C6.04322103012085,13.434328247070313,6.3566210301208494,13.479128247070312,6.52231103012085,13.700028247070312L6.722311030120849,13.966628247070313C7.4223110301208495,14.900028247070313,8.82231103012085,14.900028247070313,9.52231103012085,13.966628247070313L9.72231103012085,13.700028247070312C9.88799103012085,13.479128247070312,10.201391030120849,13.434328247070313,10.42231103012085,13.600028247070313C10.64322103012085,13.765728247070312,10.68799103012085,14.079128247070312,10.52231103012085,14.300028247070312L10.322311030120849,14.566628247070312C9.22231103012085,16.033328247070312,7.02231103012085,16.033328247070312,5.9223110301208495,14.566628247070312L5.722311030120849,14.300028247070312C5.55662103012085,14.079128247070312,5.601391030120849,13.765728247070312,5.82231103012085,13.600028247070313Z" fill-rule="evenodd" fill="#FDFDFD" fill-opacity="1"/></g></g></g></svg>