<svg xmlns="http://www.w3.org/2000/svg" xmlns:xlink="http://www.w3.org/1999/xlink" fill="none" version="1.1" width="24" height="24" viewBox="0 0 24 24"><defs><clipPath id="master_svg0_306_745"><rect x="0" y="0" width="24" height="24" rx="0"/></clipPath></defs><g clip-path="url(#master_svg0_306_745)"><g><g><path d="M15.047799390825736,1.903733C15.551399390825734,1.519499,16.083499390825736,1.25,16.727599390825738,1.25C17.371799390825736,1.25,17.903799390825736,1.519499,18.407399390825734,1.903733C18.884599390825734,2.26777,19.414299390825736,2.79757,20.049699390825737,3.43293L20.123199390825736,3.50644C20.758499390825737,4.14174,21.288299390825735,4.6715,21.652299390825736,5.14862C22.036599390825735,5.65222,22.306099390825736,6.1843,22.306099390825736,6.82843C22.306099390825736,7.47256,22.036599390825735,8.004629999999999,21.652299390825736,8.50824C21.288299390825735,8.98536,20.758499390825737,9.51512,20.123099390825736,10.15043L14.642299390825736,15.6313C14.222099390825734,16.0522,13.889899390825736,16.384999999999998,13.465199390825735,16.589100000000002C13.040599390825735,16.7932,12.573199390825735,16.8447,11.982099390825736,16.9099L11.822199390825736,16.927599999999998C10.725059390825734,17.049599999999998,9.820709390825735,17.150100000000002,9.108329390825734,17.1271C8.363279390825735,17.103,7.680839390825735,16.942,7.147439390825735,16.4086C6.614049390825735,15.8752,6.453039390825735,15.1928,6.428979390825735,14.4477C6.405969390825735,13.7353,6.5064893908257355,12.831,6.628429390825735,11.7338L6.646119390825735,11.574C6.711309390825735,10.98289,6.762859390825735,10.51548,6.9669593908257355,10.09083C7.171049390825735,9.66617,7.5038393908257355,9.33393,7.9247293908257355,8.91374L13.405599390825735,3.4329C14.040899390825736,2.79756,14.570699390825736,2.26776,15.047799390825736,1.903733ZM9.749949390825735,3.16953C9.754909390825736,3.58371,9.423169390825736,3.9235,9.008989390825736,3.92846C6.508189390825735,3.95844,5.336269390825735,4.126799999999999,4.501909390825736,4.73299C4.141109390825735,4.99513,3.823819390825735,5.31242,3.561679390825735,5.67322C3.1925893908257352,6.18123,2.9774493908257353,6.83144,2.8649993908257354,7.86936C2.7510293908257353,8.921299999999999,2.749999390825735,10.27974,2.749999390825735,12.1713C2.749999390825735,14.0629,2.7510293908257353,15.4213,2.8649993908257354,16.473300000000002C2.9774493908257353,17.5112,3.1925893908257352,18.1614,3.561679390825735,18.6694C3.823819390825735,19.0302,4.141109390825735,19.3475,4.501909390825736,19.6096C5.009919390825735,19.9787,5.660129390825735,20.1939,6.698039390825735,20.3063C7.749989390825736,20.4203,9.108429390825735,20.4213,10.999999390825735,20.4213C12.891599390825736,20.4213,14.249999390825735,20.4203,15.301999390825735,20.3063C16.339899390825735,20.1939,16.990099390825733,19.9787,17.498099390825736,19.6096C17.858899390825734,19.3475,18.176199390825737,19.0302,18.438299390825737,18.6694C19.044499390825735,17.835,19.212899390825736,16.6631,19.242799390825734,14.1623C19.247799390825737,13.7481,19.587599390825734,13.4164,20.001799390825735,13.4214C20.415999390825736,13.4263,20.747699390825733,13.7661,20.742699390825734,14.1803C20.713699390825735,16.6068,20.580899390825735,18.2724,19.651799390825737,19.5511C19.297199390825735,20.0392,18.867899390825734,20.4685,18.379799390825735,20.8232C17.573399390825735,21.409,16.629099390825736,21.6713,15.463499390825735,21.7976C14.321399390825736,21.9213,12.881799390825735,21.9213,11.045269390825736,21.9213L10.954649390825736,21.9213C9.118169390825734,21.9213,7.678589390825735,21.9213,6.536479390825735,21.7976C5.370939390825735,21.6713,4.4265593908257355,21.409,3.620239390825735,20.8232C3.132089390825735,20.4685,2.702809390825735,20.0392,2.348149390825735,19.5511C1.7623233908257352,18.7448,1.5000053908257351,17.8004,1.3737273908257353,16.6348C1.2499850601257352,15.4927,1.2499913573057353,14.0531,1.2499993908257352,12.2166L1.2499993908257352,12.1261C1.2499913573057353,10.28952,1.2499850613257353,8.849920000000001,1.3737273908257353,7.70779C1.5000053908257351,6.54225,1.7623233908257352,5.59787,2.348149390825735,4.79155C2.702809390825735,4.3034,3.132089390825735,3.87412,3.620239390825735,3.51946C4.898939390825735,2.59043,6.564489390825735,2.4576599999999997,8.991009390825734,2.4285699999999997C9.405189390825734,2.42361,9.744979390825735,2.75534,9.749949390825735,3.16953ZM14.961099390825735,4.0012799999999995L19.554799390825735,8.594909999999999C19.954399390825735,8.18927,20.248299390825736,7.87551,20.459799390825737,7.59836C20.742199390825736,7.22819,20.806099390825736,7.01272,20.806099390825736,6.82843C20.806099390825736,6.64413,20.742199390825736,6.42866,20.459799390825737,6.05849C20.164199390825736,5.67101,19.707399390825735,5.21199,19.025699390825736,4.53033C18.344099390825736,3.84867,17.885099390825737,3.3919,17.497599390825734,3.09627C17.127399390825737,2.8138300000000003,16.911899390825734,2.75,16.727599390825738,2.75C16.543299390825737,2.75,16.327899390825735,2.8138300000000003,15.957699390825736,3.09627C15.680499390825736,3.30772,15.366799390825735,3.60162,14.961099390825735,4.0012799999999995ZM18.495399390825735,9.65685L13.899199390825736,5.06066L9.057729390825735,9.90213C8.530289390825736,10.42957,8.398349390825736,10.57533,8.318909390825734,10.74061C8.239469390825736,10.90589,8.208079390825734,11.09997,8.125709390825735,11.8413C7.995709390825735,13.0113,7.909089390825735,13.8076,7.9281993908257355,14.3993C7.946649390825735,14.9709,8.061789390825735,15.2016,8.208099390825735,15.348C8.354409390825735,15.4943,8.585169390825735,15.6094,9.156739390825734,15.6279C9.748429390825736,15.647,10.544749390825736,15.5603,11.714699390825736,15.4303C12.456099390825734,15.348,12.650199390825735,15.3166,12.815499390825735,15.2372C12.980699390825736,15.1577,13.126499390825735,15.0258,13.653899390825735,14.4983L18.495399390825735,9.65685Z" fill-rule="evenodd" fill="#11141D" fill-opacity="1"/></g></g></g></svg>