<svg xmlns="http://www.w3.org/2000/svg" xmlns:xlink="http://www.w3.org/1999/xlink" fill="none" version="1.1" width="24" height="24" viewBox="0 0 24 24"><defs><clipPath id="master_svg0_306_746"><rect x="0" y="0" width="24" height="24" rx="0"/></clipPath></defs><g clip-path="url(#master_svg0_306_746)"><g><g><path d="M19.99999939082545,6.5C18.61929939082545,6.5,17.49999939082545,5.3807100000000005,17.49999939082545,4C17.49999939082545,2.61929,18.61929939082545,1.5,19.99999939082545,1.5C21.380699390825452,1.5,22.49999939082545,2.61929,22.49999939082545,4C22.49999939082545,5.3807100000000005,21.380699390825452,6.5,19.99999939082545,6.5ZM15.749999390825451,3C15.749999390825451,3.4142099999999997,15.41419939082545,3.75,14.999999390825451,3.75L11.999999390825451,3.75C10.108429390825451,3.75,8.749989390825451,3.75103,7.698049390825451,3.865C6.660129390825451,3.97745,6.009919390825451,4.19259,5.5019093908254515,4.56168C5.14110939082545,4.8238199999999996,4.8238193908254505,5.141109999999999,4.561679390825451,5.50191C4.192589390825451,6.00992,3.977449390825451,6.66013,3.864999390825451,7.69805C3.751029390825451,8.74999,3.749999390825451,10.10843,3.749999390825451,12C3.749999390825451,13.8916,3.751029390825451,15.25,3.864999390825451,16.302C3.977449390825451,17.3399,4.192589390825451,17.9901,4.561679390825451,18.4981C4.8238193908254505,18.8589,5.14110939082545,19.1762,5.5019093908254515,19.4383C6.009919390825451,19.8074,6.660129390825451,20.0225,7.698039390825451,20.135C8.749989390825451,20.249,10.108429390825451,20.25,11.999999390825451,20.25C13.891599390825451,20.25,15.249999390825451,20.249,16.30199939082545,20.135C17.33989939082545,20.0225,17.99009939082545,19.8074,18.498099390825452,19.4383C18.85889939082545,19.1762,19.176199390825452,18.8589,19.438299390825453,18.4981C19.807399390825452,17.9901,20.022499390825452,17.3399,20.134999390825453,16.302C20.24899939082545,15.25,20.24999939082545,13.8916,20.24999939082545,12L20.24999939082545,9C20.24999939082545,8.58579,20.58579939082545,8.25,20.99999939082545,8.25C21.414199390825452,8.25,21.74999939082545,8.58579,21.74999939082545,9L21.74999939082545,12.0453C21.74999939082545,13.8818,21.74999939082545,15.3214,21.62629939082545,16.4635C21.49999939082545,17.6291,21.23769939082545,18.5734,20.651799390825452,19.3798C20.29719939082545,19.8679,19.86789939082545,20.2972,19.37979939082545,20.6518C18.57339939082545,21.2377,17.629099390825452,21.5,16.46349939082545,21.6263C15.321399390825452,21.75,13.881799390825451,21.75,12.045269390825451,21.75L11.954649390825452,21.75C10.11816939082545,21.75,8.67858939082545,21.75,7.536479390825451,21.6263C6.370939390825451,21.5,5.426559390825451,21.2377,4.62022939082545,20.6518C4.132089390825451,20.2972,3.702809390825451,19.8679,3.348149390825451,19.3798C2.762323390825451,18.5734,2.500005390825451,17.6291,2.373727390825451,16.4635C2.249985060125451,15.3214,2.249991357305451,13.8818,2.249999390825451,12.0452L2.249999390825451,11.9548C2.249991357305451,10.11821,2.249985061325451,8.678609999999999,2.373727390825451,7.53648C2.500005390825451,6.37094,2.762323390825451,5.42656,3.348149390825451,4.620229999999999C3.702809390825451,4.13209,4.132089390825451,3.70281,4.620239390825451,3.34815C5.426559390825451,2.76232,6.370939390825451,2.50001,7.536479390825451,2.373728C8.67860939082545,2.249985,10.118209390825452,2.2499919999999998,11.954749390825452,2.25L14.999999390825451,2.25C15.41419939082545,2.25,15.749999390825451,2.5857900000000003,15.749999390825451,3ZM19.99999939082545,5C19.447699390825452,5,18.99999939082545,4.55228,18.99999939082545,4C18.99999939082545,3.44772,19.447699390825452,3,19.99999939082545,3C20.55229939082545,3,20.99999939082545,3.44772,20.99999939082545,4C20.99999939082545,4.55228,20.55229939082545,5,19.99999939082545,5ZM6.669699390825451,15.5305C6.297819390825451,15.3481,6.144229390825451,14.8987,6.326649390825451,14.5268L7.786979390825451,11.5498C8.80954939082545,9.46517,11.81499939082545,9.56698,12.694199390825451,11.716C13.08329939082545,12.6673,14.413699390825451,12.7124,14.866299390825452,11.7896L16.32659939082545,8.812560000000001C16.50909939082545,8.44068,16.95839939082545,8.28709,17.330299390825452,8.46951C17.70219939082545,8.65192,17.855799390825453,9.10127,17.673399390825452,9.47316L16.212999390825452,12.4502C15.190399390825451,14.5348,12.184999390825451,14.433,11.30583939082545,12.284C10.91667939082545,11.3327,9.586319390825452,11.28764,9.13368939082545,12.2104L7.673349390825451,15.1874C7.490929390825451,15.5593,7.041579390825451,15.7129,6.669699390825451,15.5305Z" fill-rule="evenodd" fill="#11141D" fill-opacity="1"/></g></g></g></svg>