<svg xmlns="http://www.w3.org/2000/svg" xmlns:xlink="http://www.w3.org/1999/xlink" fill="none" version="1.1" width="24" height="24" viewBox="0 0 24 24"><defs><clipPath id="master_svg0_306_743"><rect x="0" y="0" width="24" height="24" rx="0"/></clipPath></defs><g clip-path="url(#master_svg0_306_743)"><g><g><path d="M11.78925201213588,1.2538651850988387C11.929652012135879,1.2487115850988388,12.07035201213588,1.2487115850988388,12.21075201213588,1.2538651850988387C13.13815201213588,1.2878858850988388,13.973252012135879,1.6032339850988389,14.88885201213588,2.128174985098839C15.781152012135879,2.639729985098839,16.80835201213588,3.386069985098839,18.11175201213588,4.333029985098839L18.18255201213588,4.384519985098839C19.48595201213588,5.331489985098838,20.51325201213588,6.077819985098839,21.27555201213588,6.768349985098839C22.05765201213588,7.476929985098839,22.61565201213588,8.17367998509884,22.934552012135878,9.045149985098838C22.98295201213588,9.177169985098839,23.02635201213588,9.310909985098839,23.06485201213588,9.446109985098838C23.31905201213588,10.338609985098838,23.27725201213588,11.230259985098838,23.06095201213588,12.263299985098838C22.85015201213588,13.269899985098839,22.45775201213588,14.47759998509884,21.95985201213588,16.00969998509884L21.93285201213588,16.09299998509884C21.43495201213588,17.625299985098838,21.04265201213588,18.832899985098837,20.62145201213588,19.77119998509884C20.189252012135878,20.73409998509884,19.69905201213588,21.48009998509884,18.96875201213588,22.05269998509884C18.85815201213588,22.139399985098837,18.74435201213588,22.22209998509884,18.62765201213588,22.30049998509884C17.89295201213588,22.79419998509884,17.07565201213588,23.03149998509884,16.09015201213588,23.15089998509884C15.041852012135879,23.277899985098838,13.73115201213588,23.277899985098838,12.050152012135879,23.277899985098838L11.94985201213588,23.277899985098838C10.268862012135878,23.277899985098838,8.958142012135879,23.277899985098838,7.9098120121358795,23.15089998509884C6.92433201213588,23.03149998509884,6.10704201213588,22.79419998509884,5.37234201213588,22.30049998509884C5.255662012135879,22.22209998509884,5.141892012135879,22.139399985098837,5.03126201213588,22.05269998509884C4.300992012135879,21.48009998509884,3.8107620121358794,20.73409998509884,3.3785720121358795,19.77119998509884C2.9574020121358795,18.832899985098837,2.5650320121358794,17.625299985098838,2.0671920121358793,16.09309998509884L2.0401320121358792,16.009799985098837C1.5422720121358795,14.47759998509884,1.1498910121358794,13.269999985098838,0.9390940121358793,12.263299985098838C0.7227836121358794,11.230259985098838,0.6809208121358793,10.338609985098838,0.9351410121358793,9.446109985098838C0.9736510121358793,9.310909985098839,1.0171070121358794,9.177169985098839,1.0654200121358794,9.045149985098838C1.3843510121358793,8.17367998509884,1.9423120121358795,7.476929985098839,2.724502012135879,6.768349985098839C3.4867520121358795,6.077829985098838,4.514012012135879,5.331489985098838,5.817412012135879,4.384529985098839L5.888262012135879,4.333049985098839C7.19164201213588,3.386079985098839,8.218882012135879,2.6397399850988386,9.111152012135879,2.128174985098839C10.02676201213588,1.6032339850988389,10.861852012135879,1.2878858850988388,11.78925201213588,1.2538651850988387ZM12.15585201213588,2.752859985098839C12.05195201213588,2.749049985098839,11.948052012135879,2.749049985098839,11.84415201213588,2.752859985098839C11.24875201213588,2.774699985098839,10.655722012135879,2.971669985098839,9.85722201213588,3.4294799850988387C9.04345201213588,3.896029985098839,8.08110201213588,4.593959985098839,6.734502012135879,5.572319985098839C5.387912012135879,6.550679985098839,4.426752012135879,7.250259985098839,3.7315620121358792,7.880019985098839C3.0494220121358793,8.497979985098839,2.6788220121358792,9.001119985098839,2.4740520121358793,9.560669985098839C2.4383420121358794,9.658239985098838,2.4062220121358795,9.757099985098838,2.3777620121358796,9.857029985098839C2.214532012135879,10.43006998509884,2.2186020121358796,11.054949985098839,2.4072520121358796,11.955799985098839C2.599502012135879,12.87399998509884,2.965892012135879,14.004899985098838,3.4802420121358795,15.587899985098838C3.9946020121358794,17.17089998509884,4.362922012135879,18.30119998509884,4.747042012135879,19.15699998509884C5.123952012135879,19.99669998509884,5.487962012135879,20.50459998509884,5.956832012135879,20.872299985098838C6.038602012135879,20.936399985098838,6.12269201213588,20.997499985098838,6.20893201213588,21.055499985098837C6.504482012135879,21.25399998509884,6.836042012135879,21.401499985098837,7.250002012135879,21.50909998509884L7.250002012135879,17.81969998509884C7.250002012135879,15.19629998509884,9.37665201213588,13.069699985098838,12.00005201213588,13.069699985098838C14.623352012135879,13.069699985098838,16.750052012135882,15.19629998509884,16.750052012135882,17.81969998509884L16.750052012135882,21.50909998509884C17.16395201213588,21.401499985098837,17.495552012135878,21.25399998509884,17.79105201213588,21.055499985098837C17.87735201213588,20.997499985098838,17.96145201213588,20.936399985098838,18.04315201213588,20.872299985098838C18.51205201213588,20.50459998509884,18.87605201213588,19.99669998509884,19.25295201213588,19.15699998509884C19.63705201213588,18.30119998509884,20.00545201213588,17.17089998509884,20.51975201213588,15.587899985098838C21.03415201213588,14.004899985098838,21.40055201213588,12.87399998509884,21.59275201213588,11.955799985098839C21.78135201213588,11.054949985098839,21.78545201213588,10.43006998509884,21.622252012135878,9.857029985098839C21.59375201213588,9.757089985098839,21.56165201213588,9.658239985098838,21.52595201213588,9.560669985098839C21.32115201213588,9.001119985098839,20.95055201213588,8.497979985098839,20.268452012135878,7.880019985098839C19.573252012135878,7.250259985098839,18.61205201213588,6.550679985098839,17.265552012135878,5.572319985098839C15.918952012135879,4.593959985098839,14.95655201213588,3.896029985098839,14.14275201213588,3.4294799850988387C13.344252012135879,2.971669985098839,12.751252012135879,2.774699985098839,12.15585201213588,2.752859985098839ZM15.25005201213588,17.81969998509884C15.25005201213588,16.024699985098838,13.79495201213588,14.569699985098838,12.00005201213588,14.569699985098838C10.205082012135879,14.569699985098838,8.75000201213588,16.024699985098838,8.75000201213588,17.81969998509884L8.75000201213588,21.72179998509884C9.59340201213588,21.77709998509884,10.636722012135879,21.777899985098838,12.00005201213588,21.777899985098838C13.363252012135879,21.777899985098838,14.40665201213588,21.77709998509884,15.25005201213588,21.721699985098837L15.25005201213588,17.81969998509884ZM12.00005201213588,17.069699985098836C12.41425201213588,17.069699985098836,12.75005201213588,17.40539998509884,12.75005201213588,17.81969998509884L12.75005201213588,19.81969998509884C12.75005201213588,20.233899985098837,12.41425201213588,20.56969998509884,12.00005201213588,20.56969998509884C11.58575201213588,20.56969998509884,11.25005201213588,20.233899985098837,11.25005201213588,19.81969998509884L11.25005201213588,17.81969998509884C11.25005201213588,17.40539998509884,11.58575201213588,17.069699985098836,12.00005201213588,17.069699985098836Z" fill-rule="evenodd" fill="#11141D" fill-opacity="1"/></g></g></g></svg>