<svg xmlns="http://www.w3.org/2000/svg" xmlns:xlink="http://www.w3.org/1999/xlink" fill="none" version="1.1" width="24" height="24" viewBox="0 0 24 24"><defs><clipPath id="master_svg0_306_741"><rect x="0" y="0" width="24" height="24" rx="0"/></clipPath></defs><g clip-path="url(#master_svg0_306_741)"><g><g><path d="M14.033599284743353,1.2499992847440922L11.966399284743353,1.2499992847440922C10.594699284743353,1.249994710824092,9.519279284743353,1.2499911247140922,8.654939284743353,1.320611284744092C7.7747892847433535,1.3925212847440922,7.047689284743353,1.5413782847440922,6.389549284743353,1.8767122847440922C5.307619284743353,2.427979284744092,4.4279892847433535,3.307619284744092,3.8767092847433533,4.389549284744092C3.557599284743353,5.0158492847440925,3.406449284743353,5.707219284744093,3.3308292847433534,6.535959284744092C3.1400792847433534,6.5968592847440926,2.9569092847433533,6.6714892847440925,2.779209284743353,6.7632692847440925C1.9055492847433533,7.214489284744092,1.1971182847433532,7.933469284744092,0.7537602847433532,8.815479284744093C0.4802772847433532,9.359539284744093,0.36206428474335317,9.954849284744093,0.3054070847433532,10.657759284744092C0.2499894428133532,11.345299284744092,0.2499937942033532,12.198199284744092,0.2499992847433532,13.274499284744092L0.2499992847433532,16.64059928474409C0.2499992847433532,18.687399284744092,1.8896192847433533,20.364099284744093,3.9335092847433533,20.364099284744093L4.401539284743353,20.364099284744093C4.435269284743353,20.364099284744093,4.464349284743353,20.377999284744092,4.487129284743353,20.41209928474409C4.510209284743353,20.446699284744092,4.515929284743353,20.48699928474409,4.4991692847433535,20.52939928474409C3.922159284743353,21.99159928474409,5.591439284743354,23.410199284744092,6.929769284743354,22.44119928474409L8.960339284743354,20.970999284744092L8.997669284743353,20.94399928474409C9.521099284743354,20.570199284744092,10.143659284743354,20.368299284744094,10.781799284743354,20.364199284744092L10.839199284743353,20.364099284744093L10.865999284743353,20.364099284744093C11.083099284743353,20.364099284744093,11.220799284743354,20.364099284744093,11.330999284743353,20.35879928474409C11.790699284743352,20.336799284744092,12.233299284743353,20.24719928474409,12.648999284743352,20.09949928474409L14.505599284743353,21.42569928474409C16.010099284743355,22.50029928474409,17.987099284743355,20.94839928474409,17.300499284743353,19.231699284744092C17.208199284743355,19.000999284744093,17.378099284743353,18.749999284744092,17.626599284743353,18.749999284744092L18.228299284743354,18.749999284744092C20.725599284743353,18.749999284744092,22.749999284743353,16.725599284744092,22.749999284743353,14.228299284744093L22.749999284743353,9.966369284744092C22.749999284743353,8.594689284744092,22.749999284743353,7.519269284744092,22.679399284743354,6.654939284744092C22.607499284743355,5.7747892847440925,22.458599284743354,5.0476892847440915,22.123299284743354,4.389559284744092C21.571999284743352,3.307619284744092,20.692399284743352,2.427979284744092,19.61039928474335,1.8767122847440922C18.952299284743354,1.5413782847440922,18.225199284743354,1.3925212847440922,17.345099284743352,1.3206111847440922C16.480699284743352,1.2499911248440922,15.405299284743354,1.249994710824092,14.033599284743353,1.2499992847440922ZM7.138549284743354,6.249999284744092C6.243439284743353,6.249959284744092,5.498469284743353,6.249929284744092,4.868149284743353,6.287909284744092C4.939489284743353,5.768179284744092,5.049889284743354,5.391099284744092,5.213219284743353,5.0705392847440915C5.620679284743353,4.2708492847440915,6.2708492847433535,3.6206792847440923,7.0705392847433535,3.213219284744092C7.481969284743353,3.003589284744092,7.989699284743353,2.8799592847440922,8.777079284743353,2.8156292847440922C9.573219284743352,2.7505792847440924,10.587499284743354,2.749999284744092,11.999999284743353,2.749999284744092L13.999999284743353,2.749999284744092C15.412499284743353,2.749999284744092,16.426799284743353,2.7505792847440924,17.222899284743352,2.8156292847440922C18.010299284743354,2.8799592847440922,18.517999284743354,3.003589284744092,18.929499284743354,3.213219284744092C19.729099284743352,3.6206792847440923,20.379299284743354,4.2708492847440915,20.786799284743353,5.0705392847440915C20.996399284743354,5.481969284744092,21.119999284743354,5.989699284744092,21.184399284743353,6.777079284744092C21.249399284743355,7.573219284744092,21.249999284743353,8.587489284744091,21.249999284743353,9.999999284744092L21.249999284743353,14.228299284744093C21.249999284743353,15.897199284744092,19.897199284743355,17.249999284744092,18.228299284743354,17.249999284744092L17.626599284743353,17.249999284744092C16.316899284743354,17.249999284744092,15.421299284743354,18.572799284744093,15.907699284743353,19.78879928474409C16.037999284743353,20.11449928474409,15.662899284743354,20.40899928474409,15.377399284743353,20.205099284744094L14.079399284743353,19.27789928474409C15.048699284743353,18.46099928474409,15.681399284743353,17.252599284744093,15.744799284743353,15.893599284744091C15.749999284743353,15.782699284744092,15.749999284743353,15.656199284744092,15.749999284743353,15.457399284744092L15.749999284743353,13.274499284744092C15.749999284743353,12.198199284744092,15.749999284743353,11.345299284744092,15.694599284743353,10.657759284744092C15.637899284743353,9.954849284744093,15.519699284743353,9.359539284744093,15.246199284743353,8.815479284744093C14.802899284743352,7.933469284744092,14.094499284743353,7.214489284744092,13.220799284743354,6.7632692847440925C12.680599284743353,6.484279284744092,12.089599284743354,6.363879284744092,11.393899284743354,6.306259284744092C10.714399284743353,6.2499892847440925,9.871859284743353,6.2499892847440925,8.811109284743353,6.249999284744092L7.138549284743354,6.249999284744092ZM4.1739792847433534,7.870879284744092C4.825389284743353,7.752979284744092,5.7178492847433535,7.749999284744092,7.222219284743353,7.749999284744092L8.777779284743353,7.749999284744092C9.879309284743353,7.749999284744092,10.659699284743354,7.7505992847440925,11.270099284743353,7.801149284744092C11.871399284743353,7.850939284744092,12.240799284743353,7.945359284744092,12.532499284743354,8.096009284744092C13.122299284743352,8.400639284744091,13.603699284743353,8.887729284744093,13.905999284743354,9.489159284744092C14.056399284743353,9.788319284744093,14.150099284743353,10.166539284744092,14.199399284743354,10.778269284744091C14.249399284743353,11.398499284744092,14.249999284743353,12.190999284744093,14.249999284743353,13.307099284744092L14.249999284743353,15.434799284744091C14.249999284743353,15.663699284744093,14.249799284743354,15.752399284744092,14.246499284743352,15.823599284744093C14.189299284743353,17.047399284744092,13.458999284743353,18.084999284744093,12.428599284743353,18.569999284744092C12.070899284743353,18.73849928474409,11.676299284743353,18.84049928474409,11.259099284743353,18.860599284744094C11.189899284743353,18.863899284744093,11.091699284743353,18.864099284744093,10.839199284743353,18.864099284744093L10.771999284743353,18.864199284744092C9.823119284743353,18.870399284744092,8.899719284743353,19.170699284744092,8.125819284743354,19.723399284744094L8.080659284743353,19.755999284744092L6.050089284743353,21.22619928474409C6.015469284743353,21.251299284744093,5.997589284743353,21.25029928474409,5.991199284743353,21.249899284744092C5.978189284743353,21.24919928474409,5.955119284743353,21.24309928474409,5.930179284743353,21.22319928474409C5.905269284743353,21.20339928474409,5.891069284743353,21.179799284744092,5.885449284743353,21.160999284744094C5.881579284743353,21.14809928474409,5.876979284743353,21.124299284744094,5.894459284743353,21.080099284744094C6.308099284743353,20.031799284744093,5.551849284743353,18.864099284744093,4.401539284743353,18.864099284744093L3.9335092847433533,18.864099284744093C2.7371292847433533,18.864099284744093,1.7499992847433532,17.878199284744092,1.7499992847433532,16.64059928474409L1.7499992847433532,13.307099284744092C1.7499992847433532,12.190999284744093,1.7505692847433532,11.398499284744092,1.8005592847433531,10.778269284744091C1.849869284743353,10.166539284744092,1.9435892847433531,9.788319284744093,2.0939692847433533,9.489159284744092C2.3962892847433532,8.887729284744093,2.877709284743353,8.400639284744091,3.467529284743353,8.096009284744092C3.656789284743353,7.998269284744092,3.878839284743353,7.924299284744092,4.1739792847433534,7.870879284744092ZM4.999999284743353,14.999999284744092C5.552289284743353,14.999999284744092,5.999999284743353,14.552299284744093,5.999999284743353,13.999999284744092C5.999999284743353,13.447699284744091,5.552289284743353,12.999999284744092,4.999999284743353,12.999999284744092C4.4477192847433535,12.999999284744092,3.999999284743353,13.447699284744091,3.999999284743353,13.999999284744092C3.999999284743353,14.552299284744093,4.4477192847433535,14.999999284744092,4.999999284743353,14.999999284744092ZM7.999999284743353,14.999999284744092C8.552289284743352,14.999999284744092,8.999999284743353,14.552299284744093,8.999999284743353,13.999999284744092C8.999999284743353,13.447699284744091,8.552289284743352,12.999999284744092,7.999999284743353,12.999999284744092C7.4477192847433535,12.999999284744092,6.999999284743353,13.447699284744091,6.999999284743353,13.999999284744092C6.999999284743353,14.552299284744093,7.4477192847433535,14.999999284744092,7.999999284743353,14.999999284744092ZM10.999999284743353,14.999999284744092C11.552299284743354,14.999999284744092,11.999999284743353,14.552299284744093,11.999999284743353,13.999999284744092C11.999999284743353,13.447699284744091,11.552299284743354,12.999999284744092,10.999999284743353,12.999999284744092C10.447699284743353,12.999999284744092,9.999999284743353,13.447699284744091,9.999999284743353,13.999999284744092C9.999999284743353,14.552299284744093,10.447699284743353,14.999999284744092,10.999999284743353,14.999999284744092Z" fill-rule="evenodd" fill="#11141D" fill-opacity="1"/></g></g></g></svg>