<svg xmlns="http://www.w3.org/2000/svg" xmlns:xlink="http://www.w3.org/1999/xlink" fill="none" version="1.1" width="139" height="153" viewBox="0 0 139 153"><defs><clipPath id="master_svg0_428_0561"><rect x="0" y="0" width="139" height="153" rx="0"/></clipPath></defs><g clip-path="url(#master_svg0_428_0561)"><g><g><g><path d="M79.27026667480469,65.68223864746093C79.27026667480469,67.23343864746093,78.01226667480469,68.49093864746094,76.46046667480468,68.49093864746094L35.953816674804685,68.49093864746094C34.401976674804686,68.49093864746094,33.14396046105469,67.23343864746093,33.14396667480469,65.68223864746093L33.14396667480469,46.63149864746094C33.14396046105469,45.08025864746094,34.401976674804686,43.82273243612094,35.953816674804685,43.82273864746094L76.46046667480468,43.82273864746094C78.01226667480469,43.82273243612094,79.27026667480469,45.08025864746094,79.27026667480469,46.63149864746094L79.27026667480469,65.68223864746093Z" fill="#FFFFFF" fill-opacity="1"/><path d="M79.77026667480469,65.68223864746093L79.77026667480469,46.63149864746094Q79.77026667480469,45.26089864746094,78.80076667480469,44.29178064746094Q77.83136667480468,43.32273264746094,76.46046667480468,43.32273864746094L35.953816674804685,43.32273864746094Q34.58288667480469,43.322733647460936,33.61346467480469,44.291779647460935Q32.64396067480469,45.26090864746094,32.64396667480469,46.63149864746094L32.64396667480469,65.68223864746093Q32.64396067480469,67.05283864746093,33.61346467480469,68.02193864746094Q34.58288667480469,68.99093864746094,35.953816674804685,68.99093864746094L76.46046667480468,68.99093864746094Q77.83136667480468,68.99093864746094,78.80076667480469,68.02193864746094Q79.77026667480469,67.05283864746093,79.77026667480469,65.68223864746093ZM78.0937666748047,44.999018647460936Q78.77026667480469,45.67522864746094,78.77026667480469,46.63149864746094L78.77026667480469,65.68223864746093Q78.77026667480469,66.63843864746093,78.09386667480469,67.31463864746094Q77.4172666748047,67.99093864746094,76.46046667480468,67.99093864746094L35.953816674804685,67.99093864746094Q34.99698667480469,67.99093864746094,34.32043667480469,67.31463864746094Q33.64396267480469,66.63843864746093,33.64396667480469,65.68223864746093L33.64396667480469,46.63149864746094Q33.64396267480469,45.67522864746094,34.32043667480469,44.99902864746094Q34.99698667480469,44.32273464746094,35.95380667480469,44.32273864746094L76.46046667480468,44.32273864746094Q77.4172666748047,44.32273464746094,78.0937666748047,44.999018647460936Z" fill-rule="evenodd" fill="#000000" fill-opacity="1"/></g><g><path d="M79.27026667480469,70.36350141113282C79.27026667480469,70.49580141113282,78.01196667480468,70.60367141113281,76.46046667480468,70.60367141113281L35.953816674804685,70.60367141113281C34.402286674804685,70.60367141113281,33.14396667480469,70.49580141113282,33.14396667480469,70.36350141113282L33.14396667480469,68.73523941113281C33.14396667480469,68.60090641113281,34.402286674804685,68.49507141113281,35.953816674804685,68.49507141113281L76.46046667480468,68.49507141113281C78.01196667480468,68.49507141113281,79.27026667480469,68.60090641113281,79.27026667480469,68.73523941113281L79.27026667480469,70.36350141113282Z" fill="#2C2C2C" fill-opacity="1"/></g></g><g><g><rect x="14.896270751953125" y="70.60574340820312" width="91.30381774902344" height="4.951963901519775" rx="0" fill="#2C2C2C" fill-opacity="1"/></g><g transform="matrix(0,1,-1,0,105.19552612304688,45.919830322265625)"><rect x="29.637847900390625" y="75.55767822265625" width="77.34059143066406" height="4.953886985778809" rx="0" fill="#2C2C2C" fill-opacity="1"/></g></g><g><line x1="0" y1="152.4022979736328" x2="139" y2="152.4022979736328" fill-opacity="0" stroke-opacity="1" stroke="#000000" fill="none" stroke-width="1"/></g><g><g><path d="M14.678405273378907,65.26090098673062L25.370068713378906,65.26090098673062C25.370068713378906,68.21274477539062,22.976218713378906,70.60568477539063,20.023228713378906,70.60568477539063C17.070238713378906,70.60568477539063,14.676368713378906,68.21274477539062,14.676368713378906,65.26089477539062L14.678405273378907,65.26090098673062Z" fill="#EEA476" fill-opacity="1"/></g><g><path d="M17.677454729003905,58.71933453125Q15.380703729003907,58.58296453125,16.066876729003905,56.97302553125C16.753048729003908,55.36308353125,21.120534729003907,55.25113653125,20.025104729003907,65.26293453125Q20.623724729003907,59.06127453125,17.677454729003905,58.71933453125Z" fill="#2C2C2C" fill-opacity="1"/></g><g><path d="M22.493073400878906,60.819840546875C22.619013400878906,60.784440546875,22.742753400878907,60.741620546875,22.863653400878906,60.691610546875C23.141493400878907,60.574790546875,23.392883400878908,60.403100546875,23.602763400878906,60.186850546875C23.787003400878906,60.015350546875,23.909403400878908,59.787820546875,23.950943400878906,59.539610546875C23.970603400878908,59.266986546875,23.864923400878908,59.000265546875,23.663843400878907,58.815037546875C23.463273400878904,58.634076546875,23.212803400878904,58.517750046875,22.945093400878907,58.481239746875C21.029103400878906,58.177977546875,20.322566400878905,60.659050546875,20.157640400878908,62.095990546875C20.023075800878907,63.145930546875,19.978796600878905,64.205470546875,20.025294200878907,65.262970546875C20.094521600878906,64.106900546875,20.092483500878906,63.669310546874996,20.285917400878905,62.910120546875C20.479351400878905,62.150940546875,20.939511400878906,61.420260546875,21.648083400878907,61.090540546875C21.922023400878906,60.977780546875,22.204603400878906,60.887260546875,22.493073400878906,60.819840546875Z" fill="#5560C1" fill-opacity="1"/></g><g><rect x="15.338111877441406" y="64.91085815429688" width="9.61253547668457" height="0.35007721185684204" rx="0" fill="#A1FFC7" fill-opacity="1"/></g></g></g><g><g><path d="M89.40799285888671,73.08067321777344L103.17019285888672,99.28967321777344L106.60919285888673,152.89827321777344L102.13789285888672,152.89827321777344L66.01299285888672,152.89827321777344L89.40799285888671,73.08067321777344Z" fill="#DB8682" fill-opacity="1"/></g><g><ellipse cx="96.70569896697998" cy="13.854506492614746" rx="7.832964897155762" ry="7.829924583435059" fill="#FFFFFF" fill-opacity="1"/><ellipse cx="96.70569896697998" cy="13.854506492614746" rx="7.832964897155762" ry="7.829924583435059" fill-opacity="0" stroke-opacity="1" stroke="#000000" fill="none" stroke-width="1"/></g><g><path d="M97.36744285888672,21.46456882324219Q102.29084285888672,24.702768823242188,103.73234285888671,19.508568823242186Q106.16144285888672,18.718868823242186,105.17804285888673,16.410868823242186Q108.32794285888671,15.277168823242187,107.62134285888672,10.779068823242188Q107.62134285888672,6.763368823242187,102.44964285888672,6.504878823242188Q100.66804285888672,-2.3060811767578127,92.36876285888673,2.0149388232421876Q87.33139285888672,-2.8210111767578123,84.78012985888672,2.5054488232421877Q82.22886285888671,7.831918823242187,90.33264285888671,9.321778823242187Q93.59043285888671,7.373968823242188,95.01574285888672,8.914718823242188C96.44104285888672,10.455468823242187,92.83096285888672,13.744568823242188,94.38454285888672,15.089868823242188C95.93804285888672,16.435268823242186,96.85024285888672,14.576968823242188,97.78894285888671,16.29686882324219C98.72754285888672,18.01666882324219,95.10934285888672,19.626668823242188,97.36744285888672,21.46456882324219Z" fill="#2C2C2C" fill-opacity="1"/></g><g><path d="M87.14805141357422,23.900894165039062L112.58126141357423,23.900894165039062L120.20046141357422,83.05579416503906L78.22576141357422,80.64799416503907L87.14805141357422,23.900894165039062Z" fill="#7581F1" fill-opacity="1"/></g><g><path d="M43.47742879638672,73.08067321777344L120.20032879638671,84.58237321777344L106.09422879638672,111.55257321777344L57.23952879638672,99.25707321777344L60.68062879638672,152.80057321777343L56.207228796386715,152.80057321777343L20.08232879638672,152.80057321777343L43.47742879638672,73.08067321777344Z" fill="#F0968D" fill-opacity="1"/></g><g><path d="M87.14800750732422,25.362289428710938L68.72310750732422,59.65968942871094L51.06790750732422,62.76148942871094L37.15300750732422,70.60568942871095L54.52930750732422,70.60568942871095L80.40430750732422,70.36348942871093L87.14800750732422,25.362289428710938Z" fill="#FFFFFF" fill-opacity="1"/><path d="M54.52930750732422,71.10568942871095L80.83560750732423,70.85948942871093L80.89880750732422,70.43758942871094L88.06870750732422,22.59179942871094L68.39750750732422,59.209189428710935L50.89700750732422,62.283889428710935L35.247867507324216,71.10568942871095L54.52930750732422,71.10568942871095ZM79.97310750732422,69.86748942871094L54.52930750732422,70.10568942871095L39.05813750732422,70.10568942871095L51.23880750732422,63.23918942871094L69.04870750732422,60.110089428710936L86.22720750732421,28.132779428710936L79.97310750732422,69.86748942871094Z" fill-rule="evenodd" fill="#000000" fill-opacity="1"/></g><g><path d="M112.58123016357422,25.362289428710938L123.20163016357422,49.350689428710936L115.75351016357422,49.350689428710936L112.58123016357422,25.362289428710938Z" fill="#FFFFFF" fill-opacity="1"/><path d="M111.62917016357422,21.976779428710937L115.25783016357421,49.41628942871094L115.31528016357422,49.850689428710936L123.96983016357422,49.850689428710936L111.62917016357422,21.976779428710937ZM116.19174016357422,48.850689428710936L113.53329116357422,28.747799428710938L122.43348016357422,48.850689428710936L116.19174016357422,48.850689428710936Z" fill-rule="evenodd" fill="#000000" fill-opacity="1"/></g></g><g><g><path d="M110.91165161132812,109.57414245605469L126.39225161132812,152.89824245605467L128.62995161132812,152.89824245605467L115.90015161132813,109.57414245605469L110.91165161132812,109.57414245605469Z" fill="#FFFFFF" fill-opacity="1"/><path d="M129.29805161132813,153.39824245605467L116.27437161132812,109.07414245605469L115.90015161132813,109.07414245605469L110.20202961132813,109.07414245605469L126.03995161132812,153.39824245605467L129.29805161132813,153.39824245605467ZM115.52593161132812,110.07414245605469L127.96195161132812,152.39824245605467L126.74455161132812,152.39824245605467L111.62127361132812,110.07414245605469L115.52593161132812,110.07414245605469Z" fill-rule="evenodd" fill="#000000" fill-opacity="1"/></g><g><path d="M67.78665161132812,110.22342825683594L85.30135161132813,110.22342825683594L88.24965161132812,110.22342825683594L91.74575161132813,110.22342825683594L91.74575161132813,104.06858825683594L67.78665161132812,104.06858825683594L67.78665161132812,110.22342825683594Z" fill="#FFFFFF" fill-opacity="1"/><path d="M67.28665161132812,110.72342825683594L67.28665161132812,103.56858825683594L92.24575161132813,103.56858825683594L92.24575161132813,110.72342825683594L67.28665161132812,110.72342825683594ZM91.24575161132813,104.56858825683594L68.28665161132812,104.56858825683594L68.28665161132812,109.72342825683594L91.24575161132813,109.72342825683594L91.24575161132813,104.56858825683594Z" fill-rule="evenodd" fill="#000000" fill-opacity="1"/></g><g><path d="M97.66469711914063,152.8005424560547L99.55625711914062,109.57414245605469L93.87954711914062,109.57414245605469L95.60006711914062,152.8005424560547L97.66469711914063,152.8005424560547Z" fill="#FFFFFF" fill-opacity="1"/><path d="M93.35925011914063,109.07414245605469L95.11957711914063,153.3005424560547L98.14329711914063,153.3005424560547L100.07861711914063,109.07414245605469L93.35925011914063,109.07414245605469ZM96.08055711914062,152.3005424560547L94.39984411914062,110.07414245605469L99.03389711914062,110.07414245605469L97.18609711914063,152.3005424560547L96.08055711914062,152.3005424560547Z" fill-rule="evenodd" fill="#000000" fill-opacity="1"/></g><g><path d="M82.01089204101562,110.03410339355469L78.22579204101562,110.03410339355469L66.01309204101562,152.8005033935547L68.76389204101562,152.8005033935547L82.01089204101562,110.03410339355469Z" fill="#FFFFFF" fill-opacity="1"/><path d="M65.35032104101562,153.3005033935547L69.13245204101563,153.3005033935547L69.24151204101562,152.94840339355468L82.68919204101563,109.53410339355469L77.84859204101562,109.53410339355469L65.35032104101562,153.3005033935547ZM68.39533204101562,152.3005033935547L66.67586304101563,152.3005033935547L78.60299204101563,110.53410339355469L81.33259204101563,110.53410339355469L68.39533204101562,152.3005033935547Z" fill-rule="evenodd" fill="#000000" fill-opacity="1"/></g><g><path d="M133.27440180664064,110.22339274902345L99.55620180664063,110.22339274902345L93.87952180664062,110.22339274902345L87.14810180664062,110.22339274902345L87.14810180664062,49.35069274902344L133.27440180664064,49.35069274902344L133.27440180664064,110.22339274902345Z" fill="#FFFFFF" fill-opacity="1"/><path d="M133.77440180664064,48.85069274902344L86.64810180664062,48.85069274902344L86.64810180664062,110.72339274902345L133.77440180664064,110.72339274902345L133.77440180664064,48.85069274902344ZM87.64810180664062,109.72339274902345L87.64810180664062,49.85069274902344L132.77440180664064,49.85069274902344L132.77440180664064,109.72339274902345L87.64810180664062,109.72339274902345Z" fill-rule="evenodd" fill="#000000" fill-opacity="1"/></g><g><g><path d="M128.48532085546876,73.90333222558594Q127.09772685546875,75.39137622558594,127.94787985546876,79.33473622558594L128.92541985546876,79.12398622558594Q128.18536235546875,75.69130622558593,129.21668685546874,74.58532622558593Q130.20554685546875,73.52486912558594,133.11336685546874,74.51463522558593L133.43559685546876,73.56797222558593Q129.91536685546876,72.36975622558593,128.48532085546876,73.90333222558594Z" fill-rule="evenodd" fill="#000000" fill-opacity="1"/></g><g><path d="M127.82776712890625,70.43780396777343Q126.54279712890624,72.81724696777344,127.94793312890624,79.33676696777344L128.92548712890624,79.12607696777344Q127.59814712890625,72.96751696777343,128.70766112890624,70.91297696777343Q129.67347712890626,69.12452696777343,132.99972712890624,70.80950696777344L133.45162712890624,69.91743896777344Q129.25643712890624,67.79227696777343,127.82776712890625,70.43780396777343Z" fill-rule="evenodd" fill="#000000" fill-opacity="1"/></g><g><path d="M121.73084919921875,60.72045734863281Q125.38126919921875,63.25035734863281,133.44947919921876,60.071977348632814L133.08297919921876,59.14156734863281Q125.51179919921876,62.124157348632814,122.30046919921875,59.898517348632815Q119.11773319921875,57.692707348632815,120.03908919921875,50.15633394863281L119.04648019921875,50.03498264863281Q118.05184919921875,58.170677348632815,121.73084919921875,60.72045734863281Z" fill-rule="evenodd" fill="#000000" fill-opacity="1"/></g><g><path d="M121.13254630859375,75.7527063232422Q122.89371630859375,71.78074632324218,119.12735630859375,64.01882932324219L118.22767630859374,64.45538332324219Q121.79138630859376,71.7997163232422,120.21838630859375,75.3473063232422Q118.68383630859375,78.80820632324219,112.01161546859375,78.77620632324219L112.00681714859375,79.77620632324219Q119.33293630859374,79.81130632324219,121.13254630859375,75.7527063232422Z" fill-rule="evenodd" fill="#000000" fill-opacity="1"/></g><g><path d="M113.01997068359375,53.885700541992186Q113.96743068359375,51.980430541992185,111.76219068359374,48.29994454199219L110.90438068359374,48.813916541992185Q112.82841068359375,52.025070541992186,112.12457068359375,53.44044054199219Q111.44210068359375,54.81285054199219,108.04753398359375,54.69850054199219L108.01386738359375,55.69794054199219Q112.05115068359375,55.833940541992185,113.01997068359375,53.885700541992186Z" fill-rule="evenodd" fill="#000000" fill-opacity="1"/></g><g><ellipse cx="121.52803897857666" cy="77.58887386322021" rx="1.1056146621704102" ry="1.1051855087280273" fill-opacity="0" stroke-opacity="1" stroke="#000000" fill="none" stroke-width="1"/></g><g><ellipse cx="123.02059268951416" cy="56.305426597595215" rx="1.1056146621704102" ry="1.1051855087280273" fill-opacity="0" stroke-opacity="1" stroke="#000000" fill="none" stroke-width="1"/></g><g><ellipse cx="129.06771183013916" cy="66.77719783782959" rx="1.1056146621704102" ry="1.1051855087280273" fill-opacity="0" stroke-opacity="1" stroke="#000000" fill="none" stroke-width="1"/></g><g><ellipse cx="111.86666202545166" cy="76.48367977142334" rx="1.1056146621704102" ry="1.1051855087280273" fill-opacity="0" stroke-opacity="1" stroke="#000000" fill="none" stroke-width="1"/></g><g><ellipse cx="95.00960636138916" cy="56.305426597595215" rx="1.1056146621704102" ry="1.1051855087280273" fill-opacity="0" stroke-opacity="1" stroke="#000000" fill="none" stroke-width="1"/></g><g><path d="M129.27143232421875,63.32142790527344Q130.89233232421876,63.58902790527344,132.82803232421875,65.99182790527344L133.60683232421874,65.36442790527343Q131.43163232421875,62.664627905273434,129.43433232421876,62.334827905273436Q127.33623232421874,61.98842790527344,125.59063232421875,64.17112790527344Q124.16633232421876,65.95412790527344,122.44503232421874,65.71462790527343Q121.00463232421875,65.51422790527343,119.04973232421875,63.874427905273436Q117.39083232421875,62.47392790527344,114.10763232421874,59.56775790527344Q111.53233232421874,57.28814790527344,110.24603232421875,56.18265790527344Q108.20443232421874,54.425037905273435,105.81033232421875,53.139177905273435Q103.18523232421875,51.729175905273436,100.60953232421875,51.15397690527344Q94.36430232421876,49.759317905273434,90.20726232421875,53.471757905273435Q87.79984332421876,55.62129790527344,86.67924732421875,58.64745790527344L87.61701632421875,58.99471790527344Q88.65129232421874,56.20166790527344,90.87335232421876,54.21762790527344Q94.64743232421876,50.84717790527344,100.39153232421874,52.12993690527344Q102.83313232421875,52.675177905273436,105.33713232421874,54.02013790527344Q107.63483232421875,55.254237905273435,109.59423232421875,56.941067905273435Q110.87503232421875,58.04174790527344,113.44483232421875,60.316537905273435Q116.73693232421874,63.23062790527344,118.40703232421875,64.64052790527344Q120.58213232421875,66.46502790527344,122.30723232421875,66.70512790527344Q124.59243232421875,67.02302790527344,126.37153232421875,64.79562790527343Q127.75133232421875,63.07052790527344,129.27143232421875,63.32142790527344Z" fill-rule="evenodd" fill="#000000" fill-opacity="1"/></g><g><path d="M102.71523232421875,67.30437754394531L102.71523232421875,80.59920754394531L103.71523232421875,80.59920754394531L103.71523232421875,67.30437754394531Q103.67553232421875,60.857910543945316,99.17813232421875,60.71035354394531Q94.99248232421876,60.57302354394531,86.85795532421875,66.37004754394532L87.43830932421875,67.18440754394531Q95.29754232421875,61.583570543945314,99.14533232421874,61.70981554394531Q102.68153232421875,61.82583254394531,102.71523232421875,67.30437754394531Z" fill-rule="evenodd" fill="#000000" fill-opacity="1"/></g><g><path d="M92.45507291015625,70.21079695800782Q95.08632291015626,67.61109495800781,103.14558291015625,68.74588395800781L103.28498291015624,67.75565195800782Q94.73561291015625,66.55184695800781,91.75224291015626,69.4994369580078Q88.70876291015625,72.50643695800781,91.52190491015625,79.53120695800781L92.45023291015625,79.15950695800781Q89.88394391015625,72.75110695800781,92.45507291015625,70.21079695800782Z" fill-rule="evenodd" fill="#000000" fill-opacity="1"/></g><g><path d="M108.44717083984375,59.471806235351565Q108.74941083984375,56.104886235351564,104.45138083984375,52.487234235351565L103.80742483984375,53.25229823535156Q107.70683083984375,56.53442623535156,107.45117083984375,59.382396235351564Q107.19509083984374,62.235166235351564,102.75833183984375,64.86966623535156L103.26888983984375,65.72946623535157Q108.14536083984375,62.833916235351566,108.44717083984375,59.471806235351565Z" fill-rule="evenodd" fill="#000000" fill-opacity="1"/></g><g><path d="M110.45617099609375,66.70133463183593Q114.59547099609375,65.97441863183593,120.44357099609375,71.82421263183593L121.15077099609375,71.11720263183594Q114.93487099609375,64.89952263183594,110.28321099609374,65.71640663183594Q105.60321099609375,66.53827163183594,102.74544199609375,74.38725263183593L103.68509699609375,74.72937263183594Q106.34521099609375,67.42327263183594,110.45617099609375,66.70133463183593Z" fill-rule="evenodd" fill="#000000" fill-opacity="1"/></g><g><path d="M91.93729232421875,84.67138217285157Q93.32488232421875,83.18333217285156,92.47473232421875,79.23997717285157L91.49719232421874,79.45072717285156Q92.23725232421874,82.88341217285156,91.20593232421875,83.98939217285157Q90.21706232421874,85.04984217285156,87.30924532421875,84.06008217285157L86.98701932421875,85.00674217285156Q90.50724232421875,86.20496217285157,91.93729232421875,84.67138217285157Z" fill-rule="evenodd" fill="#000000" fill-opacity="1"/></g><g><path d="M96.05873564453125,72.84827560058594Q97.74153564453125,71.15835760058594,102.90983564453126,72.25491460058593L103.11743564453126,71.27669020058593Q97.41683564453125,70.06720560058594,95.35013564453125,72.14265960058594Q93.26147564453125,74.24014560058593,95.03193564453125,79.43042560058593Q96.33253564453125,85.49036560058593,94.43625564453124,87.52376560058593Q92.57797564453125,89.51636560058594,87.36017764453125,87.73996560058593L87.03789364453125,88.68666560058594Q92.86809564453125,90.67156560058594,95.16758564453124,88.20576560058593Q97.42463564453125,85.78556560058594,96.00334564453125,79.19118560058594L95.99713564453126,79.16237560058593L95.98758564453125,79.13449560058594Q94.40352564453124,74.51047560058593,96.05873564453125,72.84827560058594Z" fill-rule="evenodd" fill="#000000" fill-opacity="1"/></g><g><path d="M100.58723232421875,96.16019021855469Q96.85212232421875,93.89439151855468,86.85198332421875,101.24568151855469L87.44428132421875,102.05139151855468Q96.90542232421875,95.09633151855469,100.06863232421875,97.01517951855469Q103.20273232421874,98.91636151855468,100.45983232421875,109.89668151855469L101.43003232421876,110.13898151855469Q104.35153232421875,98.44364151855468,100.58723232421875,96.16019021855469Z" fill-rule="evenodd" fill="#000000" fill-opacity="1"/></g><g><path d="M108.41655212890625,79.7985753408203L112.01438212890625,79.77618934082031L112.00818212890626,78.77620934082032L108.41033212890625,78.79859434082032Q101.08874212890625,78.76343734082032,99.28860542890625,82.82204934082031Q97.52691212890625,86.79398934082032,101.29326212890625,94.55589934082032L102.19294212890625,94.11939934082031Q98.62924812890626,86.77507934082031,100.20272612890625,83.22748934082031Q101.73776212890625,79.76656334082031,108.41655212890625,79.7985753408203Z" fill-rule="evenodd" fill="#000000" fill-opacity="1"/></g><g><path d="M107.40377655078125,104.68907259277344Q106.45634955078125,106.59428259277344,108.66047955078125,110.27473259277343L109.51839955078125,109.76095259277344Q107.59530735078125,106.54977259277344,108.29917555078126,105.13433259277343Q108.98164955078126,103.76192659277343,112.37518955078124,103.87626959277344L112.40886955078125,102.87683659277344Q108.37259555078126,102.74083759277343,107.40377655078125,104.68907259277344Z" fill-rule="evenodd" fill="#000000" fill-opacity="1"/></g><g><ellipse cx="97.40206241607666" cy="102.26734066009521" rx="1.1056146621704102" ry="1.1051855087280273" fill-opacity="0" stroke-opacity="1" stroke="#000000" fill="none" stroke-width="1"/></g><g><ellipse cx="91.35482120513916" cy="91.79755306243896" rx="1.1056146621704102" ry="1.1051855087280273" fill-opacity="0" stroke-opacity="1" stroke="#000000" fill="none" stroke-width="1"/></g><g><ellipse cx="108.55587100982666" cy="82.09104061126709" rx="1.1056146621704102" ry="1.1051855087280273" fill-opacity="0" stroke-opacity="1" stroke="#000000" fill="none" stroke-width="1"/></g><g><ellipse cx="125.41304874420166" cy="102.26734066009521" rx="1.1056146621704102" ry="1.1051855087280273" fill-opacity="0" stroke-opacity="1" stroke="#000000" fill="none" stroke-width="1"/></g><g><path d="M91.26488904296875,95.26621571777343Q89.77381904296875,95.00666571777344,88.06962004296875,92.62970771777344L87.25691804296875,93.21238671777344Q89.19940904296875,95.92171571777344,91.09339904296876,96.25140571777344Q93.07747904296875,96.59676571777344,94.82394904296875,94.41167571777343Q96.24929904296874,92.62880271777344,97.97046904296874,92.86825571777344Q99.41006904296876,93.06854271777344,101.36686904296874,94.70862571777344Q103.08366904296875,96.15027571777344,106.47396904296875,99.14804571777344Q108.94346904296876,101.33158571777344,110.17646904296875,102.39198571777344Q112.21806904296875,104.14958571777343,114.61256904296874,105.43558571777344Q117.23786904296875,106.84558571777343,119.81386904296875,107.42078571777344Q126.05966904296875,108.81548571777344,130.21536904296875,105.10288571777343Q132.62196904296874,102.95288571777344,133.74326904296873,99.92740571777344L132.80556904296876,99.57988571777344Q131.77056904296876,102.37258571777343,129.54916904296874,104.35718571777343Q125.77646904296876,107.72758571777344,120.03176904296875,106.44478571777344Q117.58996904296875,105.89948571777344,115.08566904296875,104.55458571777343Q112.78756904296876,103.32038571777343,110.82846904296875,101.63378571777343Q109.60066904296875,100.57787571777344,107.13636904296875,98.39890571777343Q103.73646904296875,95.39262571777344,102.00926904296875,93.94221571777344Q99.83236904296875,92.11765571777343,98.10826904296874,91.87779471777344Q95.82352904296874,91.55993671777344,94.04279904296875,93.78732571777344Q92.66585904296875,95.51007571777343,91.26488904296875,95.26621571777343Z" fill-rule="evenodd" fill="#000000" fill-opacity="1"/></g><g><path d="M117.70941162109375,91.27043171386718L117.70941162109375,77.97563171386719L116.70941162109375,77.97563171386719L116.70941162109375,91.27043171386718Q116.74793062109374,97.71693171386718,121.24490162109375,97.86443171386719Q125.43008162109375,98.00173171386719,133.56461162109375,92.20473171386719L132.98421162109375,91.39043171386719Q125.12502162109375,96.9912317138672,121.27770162109375,96.86493171386718Q117.74216462109375,96.7489317138672,117.70941162109375,91.27043171386718Z" fill-rule="evenodd" fill="#000000" fill-opacity="1"/></g><g><path d="M127.96811162109375,88.36395485839844Q125.33734162109374,90.96365485839844,117.27913522109375,89.82885485839844L117.13968802109375,90.81905485839843Q125.68811162109375,92.02285485839843,128.67101162109375,89.07524485839843Q131.71391162109376,86.06825485839843,128.90071162109376,79.04347585839844L127.97241162109376,79.41523385839844Q130.53871162109374,85.82364485839844,127.96811162109375,88.36395485839844Z" fill-rule="evenodd" fill="#000000" fill-opacity="1"/></g><g><path d="M111.97540144140625,99.10296277832032Q111.67316044140625,102.4698627783203,115.97118744140624,106.0875227783203L116.61514744140625,105.32242277832032Q112.71574444140624,102.0403327783203,112.97139644140626,99.19237277832032Q113.22748244140625,96.33959277832031,117.66423744140624,93.70514477832032L117.15367744140624,92.84530077832031Q112.27721044140625,95.74084277832031,111.97540144140625,99.10296277832032Z" fill-rule="evenodd" fill="#000000" fill-opacity="1"/></g><g><path d="M109.96702724609375,91.87292423339844Q105.82720724609375,92.59936423339843,99.97906124609375,86.74855423339844L99.27179324609375,87.45549423339844Q105.48767724609375,93.67421423339843,110.13982724609374,92.85787423339843Q114.82032724609375,92.03656423339844,117.67922724609375,84.18758023339844L116.73952724609376,83.84534523339843Q114.07842724609375,91.15146423339844,109.96702724609375,91.87292423339844Z" fill-rule="evenodd" fill="#000000" fill-opacity="1"/></g></g></g></g></svg>