<svg xmlns="http://www.w3.org/2000/svg" xmlns:xlink="http://www.w3.org/1999/xlink" fill="none" version="1.1" width="494" height="488" viewBox="0 0 494 488"><defs><clipPath id="master_svg0_413_2695"><rect x="0" y="0" width="494" height="488" rx="0"/></clipPath></defs><g clip-path="url(#master_svg0_413_2695)"><g><g><line x1="0" y1="486.3658103942871" x2="494" y2="486.3658103942871" fill-opacity="0" stroke-opacity="1" stroke="#000000" fill="none" stroke-width="1"/></g><g><g><path d="M239.73867797851562,353.57043075561523L326.07597797851565,353.57043075561523C389.7146779785156,353.57043075561523,441.3036779785156,405.21623075561524,441.3036779785156,468.9244307556152L441.3036779785156,487.4654307556152L239.73867797851562,487.4654307556152L239.73867797851562,353.57043075561523Z" fill="#7368FE" fill-opacity="1"/></g><g><path d="M421.6712610058594,465.37771403686526Q416.22456100585936,471.2267440368652,419.73946400585936,487.57014403686526L420.71711100585935,487.35984403686524Q417.31189100585937,471.5264840368652,422.4030910058594,466.05920403686525Q427.45132100585937,460.6380640368652,441.1426810058594,465.3056140368652L441.4653810058594,464.35910403686523Q427.16091100585936,459.48254403686525,421.6712610058594,465.37771403686526Z" fill-rule="evenodd" fill="#000000" fill-opacity="1"/></g><g><path d="M407.6218000683594,449.95656575561526Q398.38669006835937,459.8721557556152,404.39286006835937,487.78305575561524L405.37048006835937,487.5727557556152Q399.4740800683594,460.1717557556152,408.3535700683594,450.63812575561525Q417.19012006835936,441.1505857556152,440.9495200683594,449.25292575561525L441.27232006835936,448.30644575561524Q416.89982006835936,439.99502575561525,407.6218000683594,449.95656575561526Z" fill-rule="evenodd" fill="#000000" fill-opacity="1"/></g><g><path d="M381.1278149707031,404.2930112243652Q392.69044497070314,414.5416112243652,427.0419449707031,401.00871122436524L426.6753449707031,400.0783112243652Q392.8943449707031,413.3863112243652,381.79112497070315,403.5446112243652Q370.70697497070313,393.72001122436524,382.0004149707031,360.52394922436525L381.0537049707031,360.2018732243652Q369.54612497070315,394.02751122436524,381.1278149707031,404.2930112243652Z" fill-rule="evenodd" fill="#000000" fill-opacity="1"/></g><g><path d="M386.8879597167969,471.61945341186527Q394.24455971679686,455.0050534118652,378.17905971679687,421.84315841186526L377.27915971679687,422.2791484118652Q393.1427597167969,455.02395341186525,385.9735597167969,471.2145534118652Q378.8429597167969,487.31815341186524,348.67989226679686,487.1712534118652L348.67503098679686,488.1712534118652Q379.4925597167969,488.3212534118652,386.8879597167969,471.61945341186527Z" fill-rule="evenodd" fill="#000000" fill-opacity="1"/></g><g><path d="M351.56663559570313,376.14503622436524Q355.2847355957031,368.65063622436526,346.1518355957031,353.3719952243652L345.2934355957031,353.88507722436526Q354.14633559570314,368.6951362243652,350.6708355957031,375.7006362243652Q347.2170355957031,382.66223622436524,331.3520479957031,382.12853622436523L331.3184250957031,383.1279362243652Q347.8267355957031,383.68333622436523,351.56663559570313,376.14503622436524Z" fill-rule="evenodd" fill="#000000" fill-opacity="1"/></g><g><ellipse cx="390.13377809524536" cy="480.31816244125366" rx="4.821552753448486" ry="4.826833248138428" fill-opacity="0" stroke-opacity="1" stroke="#000000" fill="none" stroke-width="1"/></g><g><ellipse cx="396.64195680618286" cy="387.46147298812866" rx="4.821552753448486" ry="4.826833248138428" fill-opacity="0" stroke-opacity="1" stroke="#000000" fill="none" stroke-width="1"/></g><g><ellipse cx="422.97703981399536" cy="433.14531087875366" rx="4.821552753448486" ry="4.826833248138428" fill-opacity="0" stroke-opacity="1" stroke="#000000" fill="none" stroke-width="1"/></g><g><ellipse cx="348.04015016555786" cy="475.49150228500366" rx="4.821552753448486" ry="4.826833248138428" fill-opacity="0" stroke-opacity="1" stroke="#000000" fill="none" stroke-width="1"/></g><g><ellipse cx="274.60960817337036" cy="387.46147298812866" rx="4.821552753448486" ry="4.826833248138428" fill-opacity="0" stroke-opacity="1" stroke="#000000" fill="none" stroke-width="1"/></g><g><path d="M423.6984763183594,416.33480927124026Q430.87047631835935,417.58850927124024,438.6954763183594,428.5257092712402L439.50947631835936,427.9439092712402Q431.4464763183594,416.67380927124026,423.87047631835935,415.3497092712402Q416.2054763183594,414.0098092712402,409.2154763183594,422.76740927124024Q402.4114763183594,431.29340927124025,393.96647631835935,430.1160092712402Q387.21247631835934,429.1742092712402,378.32747631835934,421.70420927124025Q370.66447631835933,415.27670927124024,355.57747631835934,401.9271092712402Q345.13947631835936,392.69090927124023,339.92727631835936,388.1975092712402Q331.1724763183594,380.6522092712402,320.9022763183594,375.1290492712402Q309.66577631835935,369.08620927124025,298.66797631835936,366.62524927124025Q286.40807631835935,363.88182927124024,275.7720763183594,365.9330772712402Q263.91867631835936,368.21911927124023,254.84177631835936,376.34600927124023Q244.64471631835937,385.4371092712402,239.90055831835937,398.25600927124026L240.83839231835938,398.6031092712402Q245.4961263183594,386.01780927124025,255.50887631835937,377.09100927124024Q264.3796763183594,369.14864927124023,275.96147631835936,366.9149792712402Q286.39307631835936,364.90317127124024,298.44967631835937,367.60110927124026Q309.3131763183594,370.03205927124026,320.4286763183594,376.0098092712402Q330.60237631835935,381.48110927124026,339.2742763183594,388.95490927124024Q344.48147631835934,393.4441092712402,354.9144763183594,402.6760092712402Q370.01147631835937,416.0340092712402,377.6844763183594,422.46960927124024Q386.78847631835936,430.1249092712402,393.8284763183594,431.10640927124024Q402.83847631835937,432.36250927124024,409.99747631835936,423.39120927124026Q416.6164763183594,415.0970092712402,423.6984763183594,416.33480927124026Z" fill-rule="evenodd" fill="#000000" fill-opacity="1"/></g><g><path d="M309.8560763183594,435.43966747436525L309.8560763183594,487.46506747436524L310.8560763183594,487.46506747436524L310.8560763183594,435.43966747436525Q310.6922763183594,408.9398154743652,292.71487631835936,408.34882447436524Q275.04887631835936,407.7680974743652,240.07897031835938,432.73206747436524L240.65998231835937,433.5459674743652Q275.35457631835936,408.7786807743652,292.68207631835935,409.34828447436524Q309.69837631835935,409.9077074743652,309.8560763183594,435.43966747436525Z" fill-rule="evenodd" fill="#000000" fill-opacity="1"/></g><g><path d="M263.36045313476563,446.79939122436525Q274.3693131347656,435.0141212243652,310.28651313476564,440.0593312243652L310.4256131347656,439.06905122436524Q273.99351313476564,433.9515312243652,262.6296931347656,446.11676122436523Q251.21093313476564,458.34071122436524,265.1586631347656,487.67991122436524L266.0618031347656,487.25051122436525Q252.40628313476563,458.5260112243652,263.36045313476563,446.79939122436525Z" fill-rule="evenodd" fill="#000000" fill-opacity="1"/></g><g><path d="M331.47603002929685,401.11825028686525Q332.71263002929686,387.30175028686523,314.6630600292969,372.08319128686526L314.0184500292969,372.8477092868652Q331.6702300292969,387.73085028686523,330.48003002929687,401.02905028686524Q329.28943002929685,414.3319502868652,309.2313800292969,426.26515028686526L309.7426720292969,427.12455028686526Q330.23983002929685,414.93005028686525,331.47603002929685,401.11825028686525Z" fill-rule="evenodd" fill="#000000" fill-opacity="1"/></g><g><path d="M341.6152875488281,431.15369013061525Q360.5102875488281,427.83153513061524,386.6062875488281,453.97251513061525L387.3139875488281,453.26601513061524Q360.8496875488281,426.75646513061525,341.4420875488281,430.16879713061525Q322.00648754882815,433.5860251306152,309.8860905488281,466.9172151306152L310.8258845488281,467.25891513061526Q322.74878754882815,434.47084513061526,341.6152875488281,431.15369013061525Z" fill-rule="evenodd" fill="#000000" fill-opacity="1"/></g></g><g style="opacity:0.4000000059604645;"><ellipse cx="70.07026290893555" cy="65.11390686035156" rx="25.028301239013672" ry="25.055713653564453" fill="#7581F1" fill-opacity="1"/></g><g style="opacity:0.4000000059604645;"><ellipse cx="428.7898464202881" cy="302.42784690856934" rx="12.514150619506836" ry="12.527856826782227" fill="#F0968D" fill-opacity="1"/></g></g><g><g><path d="M372.7337115234375,440.5502697265625Q345.6068115234375,416.8220697265625,345.6068115234375,379.1741087265625Q368.7812115234375,375.1785897265625,377.2591115234375,440.5502697265625L372.7337115234375,440.5502697265625Z" fill="#2C2C2C" fill-opacity="1"/></g><g><path d="M378.08310390625,442.9346931640625Q354.65770390625,396.2773931640625,375.20564390625,345.8179931640625Q408.46080390625,353.1387931640625,384.14710390625,445.4221931640625L378.08310390625,442.9346931640625Z" fill="#5560C1" fill-opacity="1"/></g><g><path d="M389.760425078125,437.9082123046875Q416.893755078125,414.1800123046875,416.893755078125,376.5320433046875Q393.719395078125,372.5429723046875,385.241455078125,437.9082123046875L389.760425078125,437.9082123046875Z" fill="#2C2C2C" fill-opacity="1"/></g><g><path d="M335.81570874671877,437.9146728515625L434.8152651367187,437.9146728515625C434.8152651367187,465.2843728515625,412.65206513671876,487.4718728515625,385.31226513671874,487.4718728515625C357.97256513671874,487.4718728515625,335.80926513671875,465.2843728515625,335.80926513671875,437.9146728515625L335.81570874671877,437.9146728515625Z" fill="#FFA500" fill-opacity="1"/><path d="M335.81570874671877,437.4146728515625L335.30926513671875,437.4146728515625L335.30926913671874,437.9146804112725Q335.30926513671875,448.0983728515625,339.23888513671875,457.3991728515625Q343.03427513671875,466.3823728515625,349.95466513671875,473.3102728515625Q356.87496513671874,480.2381728515625,365.84846513671874,484.0378728515625Q375.13936513671877,487.9719728515625,385.31226513671874,487.9718728515625Q395.48516513671876,487.9718728515625,404.7760651367188,484.0378728515625Q413.74946513671875,480.2381728515625,420.66996513671876,473.3102728515625Q427.5901651367187,466.3823728515625,431.3856651367188,457.3991728515625Q435.3152651367187,448.0983728515625,435.3152651367187,437.9146728515625L435.3152651367187,437.4146728515625L335.81570874671877,437.4146728515625ZM336.31169013671877,438.4146728515625Q336.4058201367188,448.1242728515625,340.16003513671876,457.0099728515625Q343.87957513671876,465.8135728515625,350.66206513671875,472.6035728515625Q357.4445651367188,479.3934728515625,366.23846513671873,483.1169728515625Q375.34236513671874,486.9719728515625,385.31226513671874,486.9718728515625Q395.28216513671873,486.9718728515625,404.3861651367188,483.1169728515625Q413.1798651367187,479.3934728515625,419.9624651367187,472.6035728515625Q426.74496513671875,465.8136728515625,430.46456513671876,457.0099728515625Q434.21876513671873,448.1242728515625,434.31286513671876,438.4146728515625L336.31169013671877,438.4146728515625Z" fill-rule="evenodd" fill="#000000" fill-opacity="1"/></g></g><g><g><path d="M369.1744034423828,64.3150802734375L369.0004034423828,63.5867802734375L369.0004034423828,65.1205802734375L222.37080344238282,161.4447802734375L199.4604034423828,114.0457802734375L359.22840344238284,22.7874802734375L354.5614034423828,3.2868702734375L363.02640344238284,0.3997802734375L368.81940344238285,17.3097802734375L369.0064034423828,17.8253802734375L370.8094034423828,23.1097802734375L409.4324034423828,20.3321802734375Q414.17040344238285,51.3360802734375,415.7734034423828,51.4198802734375Q417.3764034423828,51.5036802734375,369.1744034423828,64.3150802734375Z" fill="#FFFFFF" fill-opacity="1"/><path d="M415.91540344238285,50.9338802734375Q415.85340344238284,50.8542802734375,415.7704034423828,50.6903802734375Q415.54040344238285,50.2351802734375,415.2544034423828,49.2993802734375Q414.6644034423828,47.3690802734375,413.87740344238284,43.5061802734375Q412.2944034423828,35.7481802734375,409.9274034423828,20.2566802734375L409.8574034423828,19.8003802734375L371.1574034423828,22.5833802734375L369.4764034423828,17.6551802734375L369.2924034423828,17.1477802734375L363.3374034423828,-0.2346287265625L353.9694034423828,2.9605602734375L358.6544034423828,22.5392802734375L198.8071024423828,113.8437802734375L222.16880344238282,162.1757802734375L369.5004034423828,65.3903802734375L369.5004034423828,64.7456802734375Q393.4534034423828,58.3787802734375,405.0584034423828,55.1674802734375Q410.8894034423828,53.5539802734375,413.60640344238277,52.7359802734375Q414.9754034423828,52.3238802734375,415.5664034423828,52.1097802734375Q415.8974034423828,51.9897802734375,416.03140344238284,51.9121802734375Q416.3554034423828,51.7234802734375,416.3224034423828,51.3894802734375Q416.2854034423828,51.0026802734375,415.91540344238285,50.9338802734375ZM369.54140344238283,63.7000802734375Q393.2644034423828,57.3936802734375,404.79140344238283,54.2036802734375Q410.6114034423828,52.5931802734375,413.3184034423828,51.7784802734375Q414.3704034423828,51.4616802734375,414.9454034423828,51.2674802734375Q414.91140344238283,51.2071802734375,414.87740344238284,51.1412802734375Q414.6094034423828,50.6093802734375,414.2984034423828,49.5915802734375Q413.69440344238285,47.6156802734375,412.8974034423828,43.7059802734375Q411.3334034423828,36.0385802734375,409.0084034423828,20.8640802734375L370.4604034423828,23.6360802734375L368.53640344238283,17.9955802734375L368.3464034423828,17.4718802734375L362.7154034423828,1.0341912734375L355.1534034423828,3.6131702734375L359.8014034423828,23.0357802734375L200.1137034423828,114.2487802734375L222.57290344238282,160.7137802734375L368.5004034423828,64.8507802734375L368.5004034423828,59.3383802734375L369.54140344238283,63.7000802734375Z" fill-rule="evenodd" fill="#000000" fill-opacity="1"/></g><g><path d="M44.18580627441406,486.0993857421875L139.38730627441407,486.0993857421875L232.55480627441406,198.1453857421875L150.07980627441407,198.1453857421875L147.07380627441407,206.3168457421875L44.18580627441406,486.0993857421875Z" fill="#71DC9B" fill-opacity="1"/><path d="M149.73080627441408,197.6453857421875L146.60380627441407,206.1442057421875L43.46919827441406,486.5993857421875L139.75110627441404,486.5993857421875L233.24180627441407,197.6453857421875L149.73080627441408,197.6453857421875ZM44.902416274414065,485.5993857421875L147.54280627441406,206.4894157421875L150.42880627441406,198.6453857421875L231.86780627441405,198.6453857421875L139.02360627441408,485.5993857421875L44.902416274414065,485.5993857421875Z" fill-rule="evenodd" fill="#000000" fill-opacity="1"/></g><g><path d="M343.03242785644534,353.0810810546875L375.6114278564453,159.4080810546875L231.74352785644533,181.0160810546875L209.9854278564453,267.9120810546875L317.5724278564453,232.8029810546875L251.3902278564453,353.0810810546875L343.03242785644534,353.0810810546875Z" fill="#71DC9B" fill-opacity="1"/><path d="M316.5244278564453,233.6710810546875L250.5444278564453,353.5810810546875L343.4544278564453,353.5810810546875L376.2184278564453,158.8112420546875L231.3395278564453,180.5711810546875L209.28071485644531,268.6680810546875L316.5244278564453,233.6710810546875ZM252.2360278564453,352.5810810546875L318.6204278564453,231.9349810546875L210.6901408564453,267.1560810546875L232.1476278564453,181.4609810546875L375.00342785644534,160.0049200546875L342.60942785644534,352.5810810546875L252.2360278564453,352.5810810546875Z" fill-rule="evenodd" fill="#000000" fill-opacity="1"/></g><g><path d="M168.40680158691407,100.2874755859375L219.31960158691408,104.3667655859375L234.52450158691406,198.1452755859375L147.07350158691406,206.3164755859375L168.40680158691407,100.2874755859375Z" fill="#EEB8F7" fill-opacity="1"/></g><g><path d="M154.64361682128907,168.6879904296875L132.25471682128907,177.49099042968749L147.07341682128907,206.31619042968748L120.71261682128906,278.00419042968747L54.26661682128906,145.02429042968748L167.85361682128905,103.4451904296875L154.64361682128907,168.6879904296875Z" fill="#FFFFFF" fill-opacity="1"/><path d="M155.07961682128905,169.0537904296875L168.34361682128906,103.5444097296875L168.52061682128908,102.6684334296875L53.569189821289065,144.7470904296875L120.78261682128907,279.2621904296875L147.61851682128906,206.2831904296875L132.95221682128906,177.7540904296875L155.07961682128905,169.0537904296875ZM167.18561682128905,104.2219484296875L54.96404382128906,145.3013904296875L120.64271682128906,276.7451904296875L146.52841682128906,206.3501904296875L131.55731682128908,177.2279904296875L154.20761682128907,168.3221904296875L167.18561682128905,104.2219484296875Z" fill-rule="evenodd" fill="#000000" fill-opacity="1"/></g><g><path d="M225.69890432128906,73.2212548828125C225.70370432128908,75.68235488281249,224.84740432128905,78.06735488281251,223.27850432128906,79.96205488281251C227.20980432128906,85.7395548828125,226.28050432128907,93.53485488281251,221.10130432128906,98.2238548828125C215.92230432128906,102.9127548828125,208.08150432128906,103.0574548828125,202.73330432128907,98.5628548828125C197.38500432128905,94.0682548828125,196.16930432128908,86.3124548828125,199.88520432128905,80.39385488281249C197.73920432128907,75.0263548828125,200.04780432128905,68.9070548828125,205.20250432128907,66.3000548828125C204.77400432128906,65.1274548828125,204.55600432128907,63.8881548828125,204.55870432128907,62.6396548828125C204.55870432128907,62.3947548828125,204.55870432128907,62.156254882812505,204.55870432128907,61.9178548828125C201.22140432128907,61.274154882812496,198.36150432128906,59.1376548828125,196.79530432128905,56.1179548828125C195.83990432128905,56.3857548828125,194.85210432128906,56.5202548828125,193.85990432128906,56.5174548828125C191.31280432128906,56.5213548828125,188.84200432128907,55.6475548828125,186.86250432128907,54.0428548828125C186.14150432128906,54.6991548828125,185.33620432128907,55.256154882812496,184.46790432128907,55.699054882812504C185.70360432128905,57.8095548828125,186.35260432128905,60.2126548828125,186.34760432128905,62.658954882812495C186.34970432128907,63.795554882812496,186.20910432128906,64.9278548828125,185.92910432128906,66.0293548828125C195.27170432128906,73.9416548828125,195.99120432128905,88.1108548828125,187.49830432128905,96.9308548828125C179.00530432128906,105.7506548828125,164.83470432128905,105.5503548828125,156.59388432128907,96.4938548828125C148.35310432128907,87.4374548828125,149.47197432128905,73.2941548828125,159.03403432128906,65.6491548828125C158.81329432128905,64.66785488281249,158.70316432128905,63.6648548828125,158.70572432128907,62.658954882812495C158.70452432128906,57.1283548828125,161.99640432128905,52.1293548828125,167.07420432128907,49.9506548828125C163.71670432128906,42.8253548828125,168.91070432128907,34.6259548828125,176.78170432128906,34.6259548828125C177.21220432128905,34.624844882812496,177.64240432128906,34.6528448828125,178.06920432128908,34.7097348828125C178.50890432128907,34.6525548828125,178.95190432128908,34.6245748828125,179.39530432128907,34.6259548828125C181.49330432128906,34.6210548828125,183.54950432128908,35.2133248828125,185.32400432128907,36.3337148828125C187.92260432128907,33.2300968828125,191.99870432128907,31.7823058828125,195.97020432128906,32.5522948828125C199.94170432128905,33.3222738828125,203.18310432128908,36.1887948828125,204.43640432128905,40.0392248828125C205.17010432128905,39.8944148828125,205.91600432128905,39.8210448828125,206.66370432128906,39.8201148828125C212.81280432128906,39.8236648828125,217.79670432128904,44.8130548828125,217.80030432128905,50.9688548828125C217.79950432128908,51.4407548828125,217.76940432128907,51.9120548828125,217.71020432128907,52.380154882812505C224.49810432128908,54.1139548828125,227.75750432128905,61.8556548828125,224.25690432128906,67.9304548828125C225.19680432128905,69.5352548828125,225.69440432128906,71.3609548828125,225.69890432128906,73.2212548828125Z" fill-rule="evenodd" fill="#000000" fill-opacity="1"/></g><g><rect x="179.6978302001953" y="70.1922607421875" width="24.597000122070312" height="43.248172760009766" rx="12.298500061035156" fill="#FFFFFF" fill-opacity="1"/><rect x="179.6978302001953" y="70.1922607421875" width="24.597000122070312" height="43.248172760009766" rx="12.298500061035156" fill-opacity="0" stroke-opacity="1" stroke="#000000" fill="none" stroke-width="1"/></g><g><ellipse cx="191.14337539672852" cy="65.1141586303711" rx="18.867786407470703" ry="18.888450622558594" fill="#FFFFFF" fill-opacity="1"/><ellipse cx="191.14337539672852" cy="65.1141586303711" rx="18.867786407470703" ry="18.888450622558594" fill-opacity="0" stroke-opacity="1" stroke="#000000" fill="none" stroke-width="1"/></g></g></g></svg>