<svg xmlns="http://www.w3.org/2000/svg" xmlns:xlink="http://www.w3.org/1999/xlink" fill="none" version="1.1" width="152" height="158" viewBox="0 0 152 158"><defs><clipPath id="master_svg0_428_0528"><rect x="0" y="0" width="152" height="158" rx="0"/></clipPath></defs><g clip-path="url(#master_svg0_428_0528)"><g><g><path d="M35.018794311523436,137.51851098632812Q23.367294311523438,127.36261098632812,23.367294311523438,111.26582808632813Q33.32172431152344,109.55827098632813,36.959494311523436,137.50711098632812L35.018794311523436,137.51851098632812Z" fill="#2C2C2C" fill-opacity="1"/></g><g><path d="M37.315923569335936,138.53624384765624Q27.25571356933594,118.59574384765625,36.07880356933594,97.00494384765625Q50.36088356933594,100.13583384765624,39.918933569335934,139.59284384765624L37.315923569335936,138.53624384765624Z" fill="#5560C1" fill-opacity="1"/></g><g><path d="M42.33103522949219,136.38632241210937Q53.980185229492186,126.24182241210937,53.980185229492186,110.14503951210938Q44.02805522949219,108.43748241210938,40.38798522949219,136.38632241210937L42.33103522949219,136.38632241210937Z" fill="#2C2C2C" fill-opacity="1"/></g><g><path d="M19.161483764648438,136.38629150390625L61.67648376464844,136.38629150390625C61.67648376464844,148.08779150390626,52.159683764648435,157.57369150390625,40.42018376464844,157.57369150390625C28.680573764648436,157.57369150390625,19.163781974648437,148.08779150390626,19.163781974648437,136.38629150390625L19.161483764648438,136.38629150390625Z" fill="#EEA476" fill-opacity="1"/></g></g><g><g><path d="M87.0535888671875,108.41227722167969L95.4075788671875,108.41227722167969C118.1399888671875,108.41228421634969,136.5681888671875,126.7806772216797,136.5681888671875,149.43937722167968L136.5681888671875,157.7661772216797L87.0535888671875,157.7661772216797L87.0535888671875,108.41227722167969Z" fill="#7368FE" fill-opacity="1"/></g><g><ellipse cx="123.38538098335266" cy="57.614378929138184" rx="3.589482545852661" ry="3.577834129333496" fill="#F0968D" fill-opacity="1"/></g><g><line x1="0" y1="157.3762664794922" x2="152" y2="157.3762664794922" fill-opacity="0" stroke-opacity="1" stroke="#000000" fill="none" stroke-width="1"/></g><g><ellipse cx="29.60803723335266" cy="76.78936672210693" rx="3.589482545852661" ry="3.577834129333496" fill="#F0EEEC" fill-opacity="1"/></g></g><g><g><path d="M68.1357701171875,21.806190490722656L88.3159701171875,26.763820490722658L107.7488701171875,157.88519049072266L82.0453701171875,157.88519049072266L75.9999701171875,79.20279049072266L67.3424701171875,113.61509049072265L62.9044701171875,157.88519049072266L37.1043701171875,157.88519049072266L52.9155701171875,96.66109049072266L68.1357701171875,21.806190490722656Z" fill="#FFFFFF" fill-opacity="1"/><path d="M52.4281701171875,96.54869049072266L36.4588411171875,158.38519049072266L63.3568701171875,158.38519049072266L67.8363701171875,113.70149049072266L75.73647011718751,82.29969049072265L81.5822701171875,158.38519049072266L108.3284701171875,158.38519049072266L88.7613701171875,26.358360490722657L67.7495701171875,21.196434490722655L52.4281701171875,96.54869049072266ZM37.7499011171875,157.38519049072266L53.4029701171875,96.77349049072265L53.4055701171875,96.76069049072265L68.5220701171875,22.415946490722657L87.8706701171875,27.169270490722656L107.1692701171875,157.38519049072266L82.5083701171875,157.38519049072266L76.2635701171875,76.10599049072266L66.8486701171875,113.52869049072265L62.4520701171875,157.38519049072266L37.7499011171875,157.38519049072266Z" fill-rule="evenodd" fill="#000000" fill-opacity="1"/></g><g><path d="M94.71536328125,69.59241106689453L58.48486328125,69.27382106689453L59.04133928125,66.53028106689453L94.22566328125001,66.56695416689453L94.71536328125,69.59241106689453Z" fill="#9F9DF2" fill-opacity="1"/></g><g><g><ellipse cx="71.88857889175415" cy="12.585451602935791" rx="7.703245639801025" ry="7.678247928619385" fill="#FFFFFF" fill-opacity="1"/><ellipse cx="71.88857889175415" cy="12.585451602935791" rx="7.703245639801025" ry="7.678247928619385" fill-opacity="0" stroke-opacity="1" stroke="#000000" fill="none" stroke-width="1"/></g><g><path d="M64.18758985351562,12.509757336425782Q59.659919853515625,10.701357336425781,62.50896985351562,7.274817336425781Q63.62650985351563,6.018797336425782,65.80181985351562,6.571167336425781Q63.21260985351562,2.1659173364257813,66.60663985351563,0.5294203364257812Q69.33611985351563,-1.3660726635742189,71.96209985351562,2.014647336425781Q78.79389985351563,-0.9328856635742188,79.78029985351563,6.727027336425781Q85.44849985351563,7.859277336425782,83.03409985351563,12.09725733642578Q80.61969985351563,16.33515733642578,77.94539985351562,13.162957336425782Q75.56309985351562,8.429987336425782,73.84539985351563,8.182447336425781C72.12769985351562,7.934917336425782,71.59419985351562,11.941357336425781,69.93627985351563,11.521957336425782C68.27834985351562,11.10245733642578,69.11765985351562,9.610377336425781,67.50572985351562,9.786857336425781C65.89378985351563,9.963357336425782,66.50545985351563,13.172157336425782,64.18758985351562,12.509757336425782Z" fill="#2C2C2C" fill-opacity="1"/></g></g><g><g><path d="M29.8518314453125,53.32829222412109L16.9747314453125,49.91089222412109L16.9747314453125,36.736382224121094C16.9758893253125,35.312508224121096,18.4795014453125,34.387253224121096,19.7571014453125,35.024251224121095L23.4132614453125,36.84640222412109L26.8624814453125,34.783592224121094L33.632131445312496,38.551662224121095L29.8518314453125,53.32829222412109Z" fill="#FFFFFF" fill-opacity="1"/><path d="M30.2111314453125,53.94099222412109L34.1165314453125,38.6755922241211L34.212031445312505,38.302222224121095L26.8535114453125,34.206362224121094L23.3914314453125,36.27687222412109L19.9802014453125,34.57678622412109Q18.7734314453125,33.97509822412109,17.6252124453125,34.681655224121094Q16.4758274453125,35.38893222412109,16.4747314453125,36.736382224121094L16.4747314453125,50.29549222412109L30.2111314453125,53.94099222412109ZM33.0522314453125,38.80111222412109L29.492431445312498,52.715592224121096L17.4747314453125,49.52629222412109L17.4747314453125,36.736382224121094Q17.4753724453125,35.9480222241211,18.1492914453125,35.53332522412109Q18.8243814453125,35.11790722412109,19.5340014453125,35.471716224121096L23.4351014453125,37.415942224121096L26.871451445312502,35.360821224121096L33.0522314453125,38.80111222412109Z" fill-rule="evenodd" fill="#000000" fill-opacity="1"/></g><g><path d="M64.18529326171875,24.01342010498047L56.13029326171875,60.40602010498047L29.60809326171875,53.33062010498047L33.38383326171875,36.275720104980465L42.65069326171875,39.02842010498047L64.18529326171875,24.01342010498047Z" fill="#FFFFFF" fill-opacity="1"/><path d="M42.56229326171875,38.48052010498047L64.95039326171874,22.870420104980468L56.50569326171875,61.023620104980466L29.01636926171875,53.69022010498047L33.01167326171875,35.64352010498047L42.56229326171875,38.48052010498047ZM33.75599326171875,36.907820104980466L42.73919326171875,39.57632010498047L42.93669326171875,39.43852010498047L63.42019326171875,25.15642010498047L55.75489326171875,59.78842010498047L30.19981726171875,52.970920104980465L33.75599326171875,36.907820104980466Z" fill-rule="evenodd" fill="#000000" fill-opacity="1"/></g></g><g><path d="M36.9802375,42.18219093017578L27.6742075,44.586490930175785L20.0859375,25.129620930175783L28.0812175,23.06680463017578C28.8277275,22.87365393017578,29.601197499999998,23.26750993017578,29.8816975,23.98360993017578L36.9802375,42.18219093017578Z" fill="#F5C38F" fill-opacity="1"/></g><g><g><path d="M95.53407407226562,25.601783649902345L85.70837407226563,68.07970364990234L37.072174072265625,54.930403649902345L42.08273407226562,35.297003649902344L70.27887407226562,43.08760364990235L77.28077407226561,22.725303649902344L95.53407407226562,25.601783649902345Z" fill="#FFA500" fill-opacity="1"/></g><g><path d="M70.90907536132812,50.04935678466797Q69.42294436132812,47.52937678466797,70.75863536132813,43.23604878466797L69.80378036132812,42.938984784667966Q68.33641536132812,47.655556784667965,70.04770536132813,50.55733678466797Q71.76002536132812,53.46081678466797,76.57830536132812,54.42141678466797Q80.88549536132813,55.28001678466797,81.78789536132813,58.18981678466797Q82.72039536132813,61.19661678466797,80.18699536132813,66.49091678466797L81.08909536132812,66.92251678466798Q83.79159536132812,61.27471678466797,82.74309536132813,57.89361678466797Q81.66449536132812,54.41561678466797,76.77380536132813,53.44071678466797Q72.39417536132812,52.56760678466797,70.90907536132812,50.04935678466797Z" fill-rule="evenodd" fill="#000000" fill-opacity="1"/></g><g><path d="M68.53424614257813,56.935110858886716Q65.08090614257813,56.00134785888672,59.470447142578124,60.68927785888672L60.111645142578126,61.45665785888672Q65.32252614257813,57.102592858886716,68.27322614257812,57.90044385888672Q71.16274614257813,58.681747858886716,72.10534614257813,64.61464785888671L73.09294614257813,64.45774785888672Q72.04874614257812,57.88541485888672,68.53424614257813,56.935110858886716Z" fill-rule="evenodd" fill="#000000" fill-opacity="1"/></g><g><path d="M78.02599025195312,39.416120270996096Q76.46695325195313,45.788390270996096,88.19760325195313,55.84409027099609L88.84838325195312,55.084790270996095Q77.58432025195313,45.429190270996095,78.99734025195312,39.65377027099609Q80.40435325195313,33.90292027099609,94.54538325195313,31.662933270996092L94.38888325195313,30.675247270996095Q79.59105325195313,33.01928027099609,78.02599025195312,39.416120270996096Z" fill-rule="evenodd" fill="#000000" fill-opacity="1"/></g><g><path d="M52.58521293945313,55.16476077880859Q59.657412939453124,54.901160778808595,67.63631293945312,42.517166778808594L66.79571293945313,41.97555477880859Q59.09911293945312,53.921260778808595,52.54801293945312,54.165460778808594Q46.059232939453125,54.407160778808596,40.417386939453124,43.039441778808595L39.521638939453126,43.48400077880859Q45.45074293945312,55.4305607788086,52.58521293945313,55.16476077880859Z" fill-rule="evenodd" fill="#000000" fill-opacity="1"/></g><g><path d="M82.77509110351562,31.538632087402345Q86.49113110351563,31.399992087402346,90.60813110351563,25.010779087402344L89.76743110351562,24.469125087402343Q85.93288110351563,30.420122087402344,82.73781110351563,30.539332087402343Q79.60510110351562,30.656212087402345,76.81347410351563,25.033312087402344L75.91778810351562,25.477998087402344Q78.99673110351563,31.679602087402344,82.77509110351562,31.538632087402345Z" fill-rule="evenodd" fill="#000000" fill-opacity="1"/></g><g><ellipse cx="65.06601929664612" cy="52.46417236328125" rx="2.069528818130493" ry="2.0628128051757812" fill-opacity="0" stroke-opacity="1" stroke="#000000" fill="none" stroke-width="1"/></g></g><g><path d="M33.86665068359375,42.984405627441404L27.338460683593752,44.671305627441406C26.63931068359375,44.851705627441405,25.91529068359375,44.482505627441405,25.65295068359375,43.8118056274414L19.09714058359375,27.020545627441408C18.78757268359375,26.227785627441406,19.24144068359375,25.343375627441407,20.06752068359375,25.129625627441406L26.59574068359375,23.442709627441406C27.29500068359375,23.261239627441405,28.01973068359375,23.630810627441406,28.28125068359375,24.302214627441405L34.83705068359375,41.0935056274414C35.14665068359375,41.8863056274414,34.69275068359375,42.7707056274414,33.86665068359375,42.984405627441404Z" fill="#F0968D" fill-opacity="1"/></g><g><path d="M37.93911171875,51.529007385253905L25.06201171875,48.109307385253906L25.06201171875,34.937137385253905C25.06145032275,33.512253385253906,26.56588171875,32.585256385253906,27.84438171875,33.22270838525391L31.50054171875,35.056317385253905L34.94976171875,32.993507385253906L41.719411718749996,36.76157738525391L37.93911171875,51.529007385253905Z" fill="#FFFFFF" fill-opacity="1"/><path d="M38.29831171875,52.141807385253905L42.20381171875,36.8855773852539L42.29941171875,36.51215738525391L34.94079171875,32.416277385253906L31.47941171875,34.48636738525391L28.06748171875,32.775244385253906Q26.85986171875,32.173127385253906,25.71125671875,32.880868385253905Q24.56148071875,33.589332385253904,24.56201171875,34.937137385253905L24.56201171875,48.493907385253905L38.29831171875,52.141807385253905ZM41.13941171875,37.01099738525391L37.57981171875,50.9163073852539L25.56201171875,47.724807385253904L25.56201171875,34.937137385253905Q25.56170071875,34.14761738525391,26.23584171875,33.732225385253905Q26.91116171875,33.31611238525391,27.621271718750002,33.670173385253904L31.52168171875,35.62627738525391L34.95873171875,33.57073638525391L41.13941171875,37.01099738525391Z" fill-rule="evenodd" fill="#000000" fill-opacity="1"/></g><g transform="matrix(0.9159327745437622,-0.4013318717479706,0.4035242795944214,0.9149689674377441,-8.966274511759366,10.201768953553255)"><ellipse cx="20.388010501861572" cy="27.168873488903046" rx="0.5515847206115723" ry="0.8163878321647644" fill="#2C2C2C" fill-opacity="1"/></g><g transform="matrix(0.9159327149391174,-0.4013318717479706,0.4035242795944214,0.9149689078330994,-8.801648335021127,10.881485486865586)"><ellipse cx="21.890596717596054" cy="26.8179589509964" rx="0.3493369519710541" ry="0.5182687044143677" fill="#FFFFFF" fill-opacity="1"/></g></g></g></svg>