<svg xmlns="http://www.w3.org/2000/svg" xmlns:xlink="http://www.w3.org/1999/xlink" fill="none" version="1.1" width="459" height="481" viewBox="0 0 459 481"><defs><clipPath id="master_svg0_214_1144"><rect x="0" y="0" width="459" height="481" rx="0"/></clipPath></defs><g clip-path="url(#master_svg0_214_1144)"><g><g><path d="M196.329,284.160888671875L196.329,480.616888671875L1.42558e-12,480.616888671875C-0.0000129258,372.11708867187497,87.8995,284.160888671875,196.329,284.160888671875Z" fill="#7581F1" fill-opacity="1"/></g><g><ellipse cx="392.38262939453125" cy="418.67252349853516" rx="36.72430419921875" ry="36.747962951660156" fill="#F0EEEC" fill-opacity="1"/></g><g><ellipse cx="81.83959484100342" cy="254.34940910339355" rx="10.495539665222168" ry="10.502302169799805" fill="#E0EDD4" fill-opacity="1"/></g><g><line x1="0" y1="480.4530029296875" x2="459" y2="480.4530029296875" fill-opacity="0" stroke-opacity="1" stroke="#000000" fill="none" stroke-width="1"/></g><g><path d="M330.22964265625,418.6724853515625L454.51547265625,418.6724853515625C454.51547265625,453.0207853515625,426.68857265625,480.8654853515625,392.36247265625,480.8654853515625C358.03627265625,480.8654853515625,330.20947265625,453.0207853515625,330.20947265625,418.6724853515625L330.22964265625,418.6724853515625Z" fill="#EDA956" fill-opacity="1"/></g></g><g><g><g><path d="M240.3218354248047,480.5357039794922L254.6359354248047,308.11920397949217L195.9595354248047,480.1257039794922L142.3119354248047,480.1257039794922L194.48703542480467,222.1497039794922L338.4659354248047,222.1497039794922L294.9919354248047,480.5357039794922L240.3218354248047,480.5357039794922Z" fill="#CFBAFC" fill-opacity="1"/></g><g><path d="M338.06930993652344,222.4792152607422L294.7093099365234,480.1924422607422L240.69150993652343,480.1924422607422L254.75030993652342,310.8573422607422L255.20130993652344,305.4346422607422L253.44630993652345,310.5545422607422L195.71730993652343,479.7824422607422L142.72858993652343,479.7824422607422L194.76250993652343,222.4792352607422L338.06930993652344,222.4792152607422ZM338.86930993652345,221.8064422607422L194.21120993652343,221.8064422607422L141.90830993652344,480.4554422607422L196.20140993652345,480.4554422607422L254.07830993652345,310.8035422607422L239.95860993652343,480.8654422607422L295.28030993652345,480.8654422607422L338.86930993652345,221.84007366074218L338.86930993652345,221.8064422607422Z" fill="#000000" fill-opacity="1"/></g></g><g><path d="M196.32920837402344,215.16563830566406L338.86320837402343,215.16563830566406L321.6302083740234,67.58863830566406L262.07260837402345,67.58863830566406L196.32920837402344,215.16563830566406Z" fill="#FFFFFF" fill-opacity="1"/><path d="M322.0752083740234,67.08863830566406L261.74790837402344,67.08863830566406L261.61580837402346,67.38517230566406L195.55909637402343,215.66563830566406L339.42420837402346,215.66563830566406L322.0752083740234,67.08863830566406ZM262.3972083740234,68.08863830566406L197.09931837402343,214.66563830566406L338.3012083740234,214.66563830566406L321.18520837402343,68.08863830566406L262.3972083740234,68.08863830566406Z" fill-rule="evenodd" fill="#000000" fill-opacity="1"/></g><g><path d="M256.7944753662109,67.58863830566406L159.27537536621094,107.85533830566406L192.14707536621094,211.90963830566406L221.23337536621094,147.09933830566405L218.44307536621093,128.18713830566406L236.56987536621094,112.63883830566405L256.7944753662109,67.58863830566406Z" fill="#FFFFFF" fill-opacity="1"/><path d="M218.97797536621093,128.38703830566408L236.98027536621095,112.94563830566406L237.02607536621093,112.84363830566406L257.76537536621095,66.64679630566407L158.66035336621093,107.56833830566407L192.06567536621094,213.31163830566408L221.74927536621095,147.17083830566406L218.97797536621093,128.38703830566408ZM236.15947536621093,112.33213830566406L217.90817536621094,127.98723830566406L220.71737536621094,147.02783830566406L192.22837536621094,210.50763830566407L159.89039636621095,108.14233830566405L255.82357536621095,68.53048130566407L236.15947536621093,112.33213830566406Z" fill-rule="evenodd" fill="#000000" fill-opacity="1"/></g><g><path d="M264.0560064697266,100.5959752685547L262.45578446972655,92.31387526855468C261.81366946972656,89.02277526855468,263.15473746972657,85.66007526855469,265.8848064697266,83.71557526855469L279.4328564697266,74.10137526855469L278.25625646972657,64.53424526855468C277.9054564697266,61.66968526855469,280.30155646972656,59.21959126855469,283.17115646972655,59.50847646855469C285.07735646972657,59.697350268554686,286.6540564697266,61.07513526855469,287.09775646972656,62.93972526855469L292.77915646972656,86.76337526855468L264.0560064697266,100.5959752685547Z" fill="#FFFFFF" fill-opacity="1"/><path d="M263.68820646972654,101.32807526855468L292.99615646972654,87.21377526855468L293.35895646972654,87.03907526855468L287.58425646972654,62.823955268554684Q287.21435646972657,61.26997526855469,286.0118564697266,60.219203268554686Q284.80935646972654,59.16834426855469,283.22125646972654,59.01099126855469Q282.05295646972655,58.89337426855469,280.96755646972656,59.300965268554684Q279.9294564697266,59.69076926855469,279.14855646972654,60.48922526855469Q278.36775646972654,61.28764526855469,278.00085646972656,62.334455268554684Q277.6171564697266,63.42895526855469,277.75995646972655,64.59527526855469L278.90015646972654,73.86627526855469L265.59472646972654,83.3082752685547Q263.42732646972655,84.85207526855469,262.4412964697266,87.3245752685547Q261.45528746972656,89.79697526855469,261.96486446972654,92.40877526855468L263.68820646972654,101.32807526855468ZM292.19945646972656,86.48757526855469L286.61135646972656,63.05549526855469Q286.3155564697266,61.81257526855469,285.35385646972657,60.97220526855469Q284.3922564697266,60.131918268554685,283.12115646972654,60.00596226855469Q281.20825646972656,59.81339426855469,279.8635564697266,61.18840526855469Q278.5186564697266,62.563595268554685,278.75245646972655,64.4732052685547L279.96555646972655,74.3364752685547L266.17487646972654,84.12287526855468Q264.24716646972655,85.49587526855468,263.37015646972657,87.69497526855469Q262.49311046972656,89.89417526855469,262.94670546972657,92.21897526855469L264.42380646972657,99.8638752685547L292.19945646972656,86.48757526855469Z" fill-rule="evenodd" fill="#000000" fill-opacity="1"/></g><g><path d="M254.2530975341797,102.66803830566406L287.12479753417966,219.60663830566406L370.69209753417965,166.15283830566406L321.63699753417967,67.58863830566406L319.39809753417967,148.01433830566407L300.0743975341797,80.04203830566406L254.2530975341797,102.66803830566406Z" fill="#71DC9B" fill-opacity="1"/></g><g><g><ellipse cx="288.34156608581543" cy="34.41319274902344" rx="22.52406120300293" ry="22.53857421875" fill="#FFFFFF" fill-opacity="1"/><ellipse cx="288.34156608581543" cy="34.41319274902344" rx="22.52406120300293" ry="22.53857421875" fill-opacity="0" stroke-opacity="1" stroke="#000000" fill="none" stroke-width="1"/></g><g><g><ellipse cx="291.6295256614685" cy="35.34193229675293" rx="4.148461818695068" ry="5.08631706237793" fill="#FFFFFF" fill-opacity="1"/><ellipse cx="291.6295256614685" cy="35.34193229675293" rx="4.148461818695068" ry="5.08631706237793" fill-opacity="0" stroke-opacity="1" stroke="#000000" fill="none" stroke-width="1"/></g><g><ellipse cx="302.111581325531" cy="35.34193229675293" rx="4.148461818695068" ry="5.08631706237793" fill="#FFFFFF" fill-opacity="1"/><ellipse cx="302.111581325531" cy="35.34193229675293" rx="4.148461818695068" ry="5.08631706237793" fill-opacity="0" stroke-opacity="1" stroke="#000000" fill="none" stroke-width="1"/></g><g><path d="M295.5424346923828,35.33531284375C296.2634246923828,34.45268184375,297.6117546923828,34.45268184375,298.3327446923828,35.33531284375" fill="#FFFFFF" fill-opacity="1"/><path d="M296.9375946923828,35.17333984375Q297.5548246923828,35.17333984375,297.9455146923828,35.65162584375L298.71997469238283,35.01899984375Q298.0291846923828,34.17333984375,296.9375946923828,34.17333984375Q295.8459956923828,34.17333984375,295.1552066923828,35.01899984375L295.9296626923828,35.65162584375Q296.3203586923828,35.17333984375,296.9375946923828,35.17333984375Z" fill-rule="evenodd" fill="#000000" fill-opacity="1"/></g><g transform="matrix(-1,1.2246468525851679e-16,-1.2246468525851679e-16,-1,574.9621276855469,70.01153564453122)"><line x1="287.48106384277344" y1="34.505767822265625" x2="309.14450454711914" y2="34.505767822265625" fill-opacity="0" stroke-opacity="1" stroke="#000000" fill="none" stroke-width="1"/></g><g><line x1="306.2599639892578" y1="35.17822265625" x2="310.845458984375" y2="35.17822265625" fill-opacity="0" stroke-opacity="1" stroke="#000000" fill="none" stroke-width="1"/></g></g><g><path d="M266.2346054980469,38.678916577148435Q252.20245549804687,36.12231657714844,258.3612554980469,24.60411657714844Q260.83553549804685,20.338616577148436,267.3910354980469,20.661516577148436Q257.39305449804687,9.499916577148438,266.16061549804687,2.8123365771484377Q272.88423549804685,-4.2318134228515625,282.3779354980469,3.9628165771484376Q300.22233549804685,-8.497323422851562,307.53093549804686,12.958016577148438Q324.4340354980469,12.910916577148438,319.9964354980469,26.514816577148437Q315.55883549804685,40.11871657714844,306.0315354980469,32.57001657714844Q296.4436354980469,20.345316577148438,291.37403549804685,20.63461657714844C286.3045354980469,20.923916577148436,287.1247354980469,32.74491657714844,282.14933549804687,32.51611657714844C277.17383549804686,32.287416577148434,278.69333549804685,27.490416577148437,274.17513549804687,28.936916577148438C269.6569354980469,30.383416577148438,273.28093549804686,39.23731657714844,266.2346054980469,38.678916577148435Z" fill="#2C2C2C" fill-opacity="1"/></g></g><g><g><path d="M243.5915278564453,281.2188395263672Q247.6170278564453,264.5447395263672,237.8678278564453,237.32753052636718L236.92642785644532,237.6647485263672Q246.5749278564453,264.6005395263672,242.61942785644533,280.9842395263672Q238.6938278564453,297.2450395263672,221.27512785644532,303.1378395263672Q199.5521978564453,310.4873395263672,201.5232338564453,330.9361395263672Q203.46994785644532,351.13213952636715,228.77062785644532,384.1331395263672L229.5642278564453,383.5241395263672Q204.4378478564453,350.7511395263672,202.51862085644532,330.8402395263672Q200.6236678564453,311.1807395263672,221.5955278564453,304.0851395263672Q239.5364278564453,298.0156395263672,243.5915278564453,281.2188395263672Z" fill-rule="evenodd" fill="#000000" fill-opacity="1"/></g><g><path d="M267.0514135498047,282.8387291552734Q288.3007135498047,278.53871915527344,329.38121354980467,278.6529641552734L329.3839135498047,277.6529681552734Q288.2016135498047,277.53844115527346,266.8531135498047,281.8585891552734Q245.21739354980468,286.2368791552734,243.69472254980468,295.31050915527345Q242.17736354980468,304.35260915527346,260.79811354980467,317.6933091552734Q279.2027135498047,330.87910915527345,317.4475135498047,348.48350915527345L317.8657135498047,347.5751091552734Q279.7076135498047,330.0106091552734,261.3805135498047,316.88030915527344Q243.26680154980468,303.9030091552734,244.68093354980468,295.47600915527346Q246.0897635498047,287.08059915527343,267.0514135498047,282.8387291552734Z" fill-rule="evenodd" fill="#000000" fill-opacity="1"/></g><g><path d="M218.3807339111328,262.22708591308594Q215.0827339111328,277.8229859130859,177.76712291113282,301.39238591308595L178.3011449111328,302.23788591308596Q215.9737339111328,278.44308591308595,219.3591339111328,262.43398591308596Q222.79973391113282,246.16331591308594,191.5251339111328,238.12193691308593L191.2761339111328,239.09043491308594Q221.62333391113282,246.89335591308594,218.3807339111328,262.22708591308594Z" fill-rule="evenodd" fill="#000000" fill-opacity="1"/></g><g><path d="M200.84588283691406,347.2833154052734Q197.54788283691406,362.88731540527345,160.23213683691407,386.47381540527346L160.76642883691406,387.31911540527346Q198.43898283691408,363.50691540527345,201.82428283691405,347.49011540527346Q205.26488283691407,331.2110454052734,173.99028283691405,323.16966640527346L173.74128283691405,324.1381644052734Q204.08848283691407,331.94108540527344,200.84588283691406,347.2833154052734Z" fill-rule="evenodd" fill="#000000" fill-opacity="1"/></g><g><path d="M182.25490993652343,441.0302636474609Q178.95690993652343,456.63426364746095,141.64116393652344,480.22076364746096L142.17545593652343,481.06606364746096Q179.84800993652345,457.25386364746095,183.23330993652343,441.23706364746096Q186.67390993652344,424.9579936474609,155.39930993652342,416.91661464746096L155.15030993652343,417.8851126474609Q185.49750993652344,425.68803364746094,182.25490993652343,441.0302636474609Z" fill-rule="evenodd" fill="#000000" fill-opacity="1"/></g><g><path d="M301.97951101074216,266.3848129638672Q285.3960110107422,260.3730129638672,268.0552810107422,221.88352896386718L267.1435410107422,222.2942969638672Q284.65791101074217,261.1691129638672,301.6386110107422,267.3249129638672Q318.8056110107422,273.5483129638672,335.1549110107422,246.68381296386718L334.3007110107422,246.16391296386718Q318.3769110107422,272.3291129638672,301.97951101074216,266.3848129638672Z" fill-rule="evenodd" fill="#000000" fill-opacity="1"/></g><g><path d="M261.7256218994141,448.0053385498047Q268.50075189941407,431.7708385498047,306.3501718994141,415.4919565498047L305.95507189941407,414.5733205498047Q267.73390189941404,431.01213854980466,260.80276189941407,447.6202385498047Q253.79226189941406,464.4188385498047,278.46007189941406,481.1313385498047L279.02097189941406,480.30353854980467Q255.02997189941405,464.0494385498047,261.7256218994141,448.0053385498047Z" fill-rule="evenodd" fill="#000000" fill-opacity="1"/></g><g><path d="M228.51623747558594,240.9991422607422Q215.69779747558593,240.93024226074218,206.98486747558593,221.6009702607422L206.07320747558595,222.01191426074217Q215.05009747558594,241.92674226074217,228.51083747558593,241.9990422607422Q241.87553747558593,242.07094226074219,259.4600374755859,222.4224692607422L258.7148374755859,221.75558566074218Q241.43063747558594,241.0685422607422,228.51623747558594,240.9991422607422Z" fill-rule="evenodd" fill="#000000" fill-opacity="1"/></g><g><ellipse cx="295.7712264060974" cy="377.780038356781" rx="6.05124044418335" ry="6.055139064788818" fill-opacity="0" stroke-opacity="1" stroke="#000000" fill="none" stroke-width="1"/></g><g><ellipse cx="280.23304891586304" cy="365.66291189193726" rx="6.05124044418335" ry="6.055139064788818" fill-opacity="0" stroke-opacity="1" stroke="#000000" fill="none" stroke-width="1"/></g><g><ellipse cx="190.2781844139099" cy="402.895516872406" rx="6.05124044418335" ry="6.055139064788818" fill-opacity="0" stroke-opacity="1" stroke="#000000" fill="none" stroke-width="1"/></g></g></g><g><g><path d="M77.32119750976562,418.7062683105469L201.64019750976564,418.7062683105469C201.64019750976564,453.05456831054687,173.81369750976563,480.89926831054686,139.48759750976564,480.89926831054686C105.15619750976563,480.9066683105469,77.32119238006563,453.0597683105469,77.32119750976562,418.7062683105469Z" fill="#EEA476" fill-opacity="1"/></g><g><path d="M112.19653154296876,342.5661759277344Q85.50387154296875,340.9716759277344,93.47134154296874,322.22763592773435C101.43881154296875,303.48362592773435,152.25573154296876,302.1985759277344,139.48093154296873,418.6995759277344Q146.46673154296874,346.5490759277344,112.19653154296876,342.5661759277344Z" fill="#2C2C2C" fill-opacity="1"/></g><g><path d="M168.17729741210937,366.99541772460935C169.64389741210937,366.5870177246094,171.08519741210938,366.0927177246094,172.49379741210936,365.5152177246094C175.71839741210937,364.14351772460935,178.63739741210938,362.1422177246094,181.07989741210937,359.62831772460936C183.09689741210937,357.5426177246094,184.81819741210938,354.9860177246094,185.11399741210937,352.0997177246094C185.34369741210938,348.93338772460936,184.11849741210938,345.8349477246094,181.7857974121094,343.6830677246094C179.45369741210936,341.5721277246094,176.53789741210937,340.21648272460936,173.42169741210938,339.7943037246094C151.14639741210937,336.25540772460937,142.93686741210936,365.1384177246094,141.03409741210936,381.84391772460935C139.64231041210937,394.0080177246094,138.75479041210937,406.4815177246094,139.4742204121094,418.6995177246094C140.2743274121094,405.2436177246094,140.26759741210938,400.15731772460936,142.52000741210938,391.33031772460936C144.77241741210938,382.5032177246094,150.09749741210936,373.9991177246094,158.35409741210938,370.1508177246094C161.48729741210937,368.6975177246094,164.86929741210938,367.9574177246094,168.17729741210937,366.99541772460935Z" fill="#5560C1" fill-opacity="1"/></g><g><rect x="85.00637817382812" y="414.6288757324219" width="111.75968170166016" height="4.077126979827881" rx="0" fill="#A1FFC7" fill-opacity="1"/></g></g></g></svg>