<svg xmlns="http://www.w3.org/2000/svg" xmlns:xlink="http://www.w3.org/1999/xlink" fill="none" version="1.1" width="170" height="155" viewBox="0 0 170 155"><defs><clipPath id="master_svg0_413_8604"><rect x="0" y="0" width="170" height="155" rx="0"/></clipPath></defs><g clip-path="url(#master_svg0_413_8604)"><g><g><ellipse cx="116.258544921875" cy="18.135047912597656" rx="18.178621292114258" ry="18.135047912597656" fill="#FFA500" fill-opacity="1"/></g><g><ellipse cx="126.19207501411438" cy="83.81621241569519" rx="3.8872368335723877" ry="3.8779189586639404" fill="#E0EDD4" fill-opacity="1"/></g><g><ellipse cx="11.41271710395813" cy="60.05180811882019" rx="3.8872368335723877" ry="3.8779189586639404" fill="#F0968D" fill-opacity="1"/></g><g><path d="M81.50499491882324,82.10458374023438L81.50499491882324,154.64478374023437L8.790494918823242,154.64478374023437C8.790489219153242,114.58188374023437,41.34589491882324,82.10458374023438,81.50499491882324,82.10458374023438Z" fill="#7368FE" fill-opacity="1"/></g></g><g><g><ellipse cx="50.26761341094971" cy="9.688596725463867" rx="8.342244148254395" ry="8.322248458862305" fill="#FFFFFF" fill-opacity="1"/><ellipse cx="50.26761341094971" cy="9.688596725463867" rx="8.342244148254395" ry="8.322248458862305" fill-opacity="0" stroke-opacity="1" stroke="#000000" fill="none" stroke-width="1"/></g><g><path d="M56.86672727050781,92.53846740722656L24.244827270507812,154.87336740722657L59.35692727050781,154.87336740722657L71.06102727050782,124.20526740722656L56.86672727050781,92.53846740722656Z" fill="#FFFFFF" fill-opacity="1"/><path d="M59.70132727050781,155.37336740722657L71.60202727050782,124.18986740722656L71.51722727050782,124.00076740722656L56.90152727050781,91.39365740722656L23.418829270507814,155.37336740722657L59.70132727050781,155.37336740722657ZM70.51992727050782,124.22056740722655L59.012627270507814,154.37336740722657L25.07082527050781,154.37336740722657L56.83192727050781,93.68327740722657L70.51992727050782,124.22056740722655Z" fill-rule="evenodd" fill="#000000" fill-opacity="1"/></g><g><path d="M105.16712641113281,53.26741018066406L119.1123964111328,49.56091018066407L119.1123964111328,35.28388018066406C119.11299641113281,33.73949118066406,117.48379641113281,32.73475118066406,116.09919641113281,33.42565418066406L112.13969641113282,35.40064018066406L108.40440641113281,33.16481018066406L101.07319641113281,37.248920180664065L105.16712641113281,53.26741018066406Z" fill="#FFFFFF" fill-opacity="1"/><path d="M108.41338641113282,32.587458180664065L100.4933964111328,36.999570180664065L100.5887674111328,37.372730180664064L104.8076864111328,53.88031018066406L119.6123964111328,49.945310180664066L119.6123964111328,35.28388018066406Q119.61289641113281,33.84656918066406,118.38769641113281,33.09095358066406Q117.16329641113282,32.33587218066406,115.87599641113282,32.978263180664065L112.16159641113282,34.83099018066406L108.41338641113282,32.587458180664065ZM101.65299641113282,37.49828018066406L105.52655641113282,52.65451018066406L118.6123964111328,49.176410180664064L118.6123964111328,35.28388018066406Q118.61269641113282,34.40460018066406,117.86279641113282,33.942111180664064Q117.11189641113282,33.479082180664065,116.32249641113282,33.87304418066406L112.11789641113282,35.970290180664065L108.3954364111328,33.74216218066406L101.65299641113282,37.49828018066406Z" fill-rule="evenodd" fill="#000000" fill-opacity="1"/></g><g><g><path d="M42.79695129394531,25.165500009765626L53.437651293945315,71.20616000976563L106.1108512939453,56.95156000976562L100.67965129394531,35.67136000976562L70.14705129394531,44.11786000976562L62.56435129394531,22.047760009765625L42.79695129394531,25.165500009765626Z" fill="#7581F1" fill-opacity="1"/></g><g><g><path d="M70.36178884277344,52.18958452148438Q72.20548884277343,49.059964521484375,70.62198884277343,43.96450152148437L69.66708884277344,44.26126752148438Q71.11918884277344,48.933894521484376,69.50018884277344,51.68200452148437Q67.88248884277344,54.42808452148438,63.121408842773434,55.378084521484375Q57.84922384277344,56.42998452148437,56.688526842773435,60.17658452148437Q55.55793884277344,63.82598452148437,58.47746884277344,69.93368452148437L59.379698842773436,69.50248452148438Q56.629003842773436,63.74788452148438,57.64373784277344,60.472484521484375Q58.62836884277344,57.294184521484375,63.31706884277344,56.35868452148438Q68.51688884277344,55.32128452148437,70.36178884277344,52.18958452148438Z" fill-rule="evenodd" fill="#000000" fill-opacity="1"/></g><g><path d="M72.30783171386719,60.13202505078125Q75.52460171386718,59.26107005078125,81.18418171386719,63.99289205078125L81.8255817138672,63.22571205078125Q75.76625171386719,58.15964205078125,72.04649171386718,59.16677905078125Q68.26588871386718,60.19039405078125,67.13807971386719,67.28701205078124L68.12568571386718,67.44397205078126Q69.1519117138672,60.98650205078125,72.30783171386719,60.13202505078125Z" fill-rule="evenodd" fill="#000000" fill-opacity="1"/></g><g><path d="M60.74817976074219,40.371094970703126Q62.28457976074219,46.656144970703124,50.06653976074219,57.13844497070313L50.717679760742186,57.89744497070312Q63.40177976074219,47.01524497070312,61.71957976074219,40.13363497070313Q60.03137976074218,33.22734497070312,44.03317166074219,30.691012970703124L43.87658886074219,31.678676970703126Q59.217879760742186,34.110864970703126,60.74817976074219,40.371094970703126Z" fill-rule="evenodd" fill="#000000" fill-opacity="1"/></g><g><path d="M89.34843015136718,56.16551572265625Q82.23231015136719,55.90011572265625,73.87934715136718,42.93531372265625L73.03871315136719,43.47691772265625Q81.6740401513672,56.88001572265625,89.31123015136718,57.16481572265625Q97.01093015136719,57.45201572265625,103.41373015136719,44.52860572265625L102.51763015136719,44.08466772265625Q96.40203015136719,56.42861572265625,89.34843015136718,56.16551572265625Z" fill-rule="evenodd" fill="#000000" fill-opacity="1"/></g><g><path d="M56.65244569824219,30.55100798828125Q53.171525698242185,30.42158798828125,49.00712169824219,23.95327398828125L48.16630969824219,24.49460198828125Q52.61309569824219,31.40150798828125,56.615295698242186,31.55031798828125Q60.67981569824219,31.70144798828125,64.00091569824218,25.00249498828125L63.105015698242184,24.55832198828125Q60.071015698242185,30.67811798828125,56.65244569824219,30.55100798828125Z" fill-rule="evenodd" fill="#000000" fill-opacity="1"/></g><g><ellipse cx="75.79239320755005" cy="54.28096318244934" rx="2.2411999702453613" ry="2.235827684402466" fill-opacity="0" stroke-opacity="1" stroke="#000000" fill="none" stroke-width="1"/></g></g></g><g><path d="M41.92541437988281,8.429105502929687Q37.44301437988281,24.469915502929688,29.47426437988281,35.897515502929686C21.505554379882813,47.32501550292969,27.980134379882813,52.29351550292969,29.47426437988281,53.28721550292969C30.968404379882813,54.28091550292969,41.67631437988281,58.50421550292969,46.40781437988281,51.796715502929686C51.139214379882816,45.08921550292969,44.166614379882816,21.240415502929686,48.399914379882816,18.010915502929688C52.32701437988281,15.014815502929688,49.08721437988281,4.938725502929688,54.911914379882816,4.099055502929687C55.793314379882816,3.9637055029296877,56.44261437988281,3.2050255029296877,56.438414379882815,2.3153555029296875C56.43851437988281,1.2626135029296877,55.54081437988282,0.43226010292968753,54.488514379882815,0.5117921129296875L49.81191437988281,0.8695215029296874C46.02141437988281,1.1568615029296874,42.87611437988281,3.9059455029296877,42.09221437988281,7.616755502929688L41.92541437988281,8.429105502929687Z" fill="#2C2C2C" fill-opacity="1"/></g><g><g><path d="M54.60313415527344,75.31510736816406L81.27093415527344,68.44117736816406L130.07183415527345,154.87077736816406L91.22433415527344,154.87327736816405L54.60313415527344,75.31510736816406Z" fill="#FFFFFF" fill-opacity="1"/><path d="M53.898620155273434,74.98036736816407L90.77013415527344,155.08237736816406L90.90403415527344,155.37337736816406L130.92833415527343,155.37077736816406L81.51763415527344,67.86123336816406L53.898620155273434,74.98036736816407ZM91.54463415527343,154.37327736816405L55.30764815527344,75.64985736816406L81.02413415527343,69.02112136816406L129.21533415527344,154.37087736816406L91.54463415527343,154.37327736816405Z" fill-rule="evenodd" fill="#000000" fill-opacity="1"/></g><g><g transform="matrix(-0.5817285776138306,0.8133829236030579,-0.8147010207176208,-0.5798812508583069,183.85980060938255,54.11241045036513)"><line x1="77.93226623535156" y1="73.87342834472656" x2="94.22043800354004" y2="73.87342834472656" fill-opacity="0" stroke-opacity="1" stroke="#000000" fill="none" stroke-width="1"/></g><g transform="matrix(-0.5818297266960144,0.8133106231689453,-0.8146290183067322,-0.5799823999404907,187.09132636375944,55.43974719135258)"><line x1="79.20722961425781" y1="75.36149597167969" x2="95.4968490600586" y2="75.36149597167969" fill-opacity="0" stroke-opacity="1" stroke="#000000" fill="none" stroke-width="1"/></g></g></g></g><g><line x1="0" y1="154.39321899414062" x2="170" y2="154.39321899414062" fill-opacity="0" stroke-opacity="1" stroke="#000000" fill="none" stroke-width="1"/></g><g><g><path d="M107.05976101751875,131.80450439453125L153.10145341796874,131.80450439453125C153.10285341796876,144.48700439453125,142.79505341796875,154.76890439453126,130.07935341796875,154.76890439453126C117.36595341796875,154.76890439453126,107.05975341796875,144.48740439453124,107.05976101751875,131.80450439453125Z" fill="#EEA476" fill-opacity="1"/></g><g><path d="M119.97151015625,103.69029453125Q110.08532015625,103.10149453125,113.03624615625,96.18284453125C115.98717015625,89.26420453125,134.80331015625,88.78473453125,130.07931015625,131.80459453125Q132.66421015625,105.16089453125,119.97151015625,103.69029453125Z" fill="#2C2C2C" fill-opacity="1"/></g><g><path d="M140.70751181640625,112.7230482421875C141.24981181640624,112.5710482421875,141.78281181640625,112.3876882421875,142.30371181640623,112.1740082421875C143.49871181640626,111.6654682421875,144.57921181640626,110.9229382421875,145.48131181640625,109.9903582421875C146.22831181640626,109.2202482421875,146.86581181640625,108.2762182421875,146.97541181640625,107.2104782421875C147.06051181640626,106.0413282421875,146.60671181640626,104.8972482421875,145.74271181640626,104.1026782421875C144.87881181640626,103.3239812421875,143.79881181640624,102.8242792421875,142.64491181640625,102.6692562421875C134.39481181640625,101.3625382421875,131.35424181640624,112.0274382421875,130.64952081640624,118.1958482421875C130.13404281640624,122.6873482421875,129.80533181640624,127.2906482421875,130.07178711640626,131.8045482421875C130.36812381640624,126.8360482421875,130.36563181640625,124.9554482421875,131.19986181640624,121.6961482421875C132.03410181640626,118.4368482421875,134.00635181640624,115.2991482421875,137.06433181640625,113.8757482421875C138.22726181640624,113.3391482421875,139.48233181640626,113.0658482421875,140.70751181640625,112.7230482421875Z" fill="#5560C1" fill-opacity="1"/></g><g><rect x="109.9010009765625" y="130.299072265625" width="41.39247512817383" height="1.5054574012756348" rx="0" fill="#A1FFC7" fill-opacity="1"/></g></g></g></svg>