<svg xmlns="http://www.w3.org/2000/svg" xmlns:xlink="http://www.w3.org/1999/xlink" fill="none" version="1.1" width="510" height="514" viewBox="0 0 510 514"><defs><clipPath id="master_svg0_413_2749"><rect x="0" y="0" width="510" height="514" rx="0"/></clipPath></defs><g clip-path="url(#master_svg0_413_2749)"><g><g><rect x="269.2607421875" y="0.32830810546875" width="222.02903747558594" height="183.5137481689453" rx="0" fill="#EEB8F7" fill-opacity="1"/><rect x="269.2607421875" y="0.32830810546875" width="222.02903747558594" height="183.5137481689453" rx="0" fill-opacity="0" stroke-opacity="1" stroke="#000000" fill="none" stroke-width="1"/></g><g><ellipse cx="118.44346046447754" cy="284.8179807662964" rx="10.244363784790039" ry="10.249926567077637" fill="#F0968D" fill-opacity="1"/></g><g><path d="M296.1678466796875,371.19708251953125L320.0101466796875,371.19708251953125C384.8882466796875,371.19708251953125,437.48184667968746,423.81978251953126,437.48184667968746,488.73308251953125L437.48184667968746,512.5880825195312L296.1678466796875,512.5880825195312L296.1678466796875,371.19708251953125Z" fill="#F5C38F" fill-opacity="1"/></g><g><line x1="0" y1="512.4230346679688" x2="510" y2="512.4230346679688" fill-opacity="0" stroke-opacity="1" stroke="#000000" fill="none" stroke-width="1"/></g><g><g transform="matrix(0.706930935382843,-0.7072826027870178,0.706930935382843,0.7072826027870178,-239.3283883530521,414.20474641877536)"><path d="M380.272705078125,496.1935272216797L501.643705078125,496.1935272216797C501.643705078125,529.7073272216796,474.475005078125,556.8755272216797,440.961305078125,556.8755272216797C407.447505078125,556.8755272216797,380.279275968125,529.7073272216796,380.279275968125,496.1935272216797L380.272705078125,496.1935272216797Z" fill="#7368FE" fill-opacity="1"/></g><g><g><path d="M463.2302083984375,453.00391824951174Q453.3972083984375,452.0779182495117,442.1818763984375,434.6064172495117L441.3403403984375,435.14661924951173Q452.8187083984375,453.02791824951174,463.1365083984375,453.9995182495117Q473.5365083984375,454.9789182495117,482.49920839843753,438.91545824951174L481.6259083984375,438.4282182495117Q472.9810083984375,453.92221824951173,463.2302083984375,453.00391824951174Z" fill-rule="evenodd" fill="#000000" fill-opacity="1"/></g><g><ellipse cx="465.7739772796631" cy="465.25856161117554" rx="5.906423568725586" ry="5.909631252288818" fill-opacity="0" stroke-opacity="1" stroke="#000000" fill="none" stroke-width="1"/></g><g><ellipse cx="437.7710475921631" cy="477.06471395492554" rx="5.906423568725586" ry="5.909631252288818" fill-opacity="0" stroke-opacity="1" stroke="#000000" fill="none" stroke-width="1"/></g><g><path d="M430.8772748046875,494.18607129638673Q439.7923748046875,491.8826512963867,454.8755748046875,504.8514412963867L455.5274748046875,504.0931412963867Q440.0480748046875,490.7837412963867,430.6270748046875,493.2178662963867Q421.1457648046875,495.66758129638674,418.0363198046875,513.8631412963867L419.0220298046875,514.0316412963867Q422.0224648046875,496.47391129638675,430.8772748046875,494.18607129638673Z" fill-rule="evenodd" fill="#000000" fill-opacity="1"/></g><g><path d="M434.02340332031247,464.1576434448242Q438.6978033203125,456.19784344482423,434.6326033203125,443.07439244482424L433.6774033203125,443.3702944448242Q437.6120033203125,456.0720434448242,433.1611033203125,463.6512434448242Q428.7117033203125,471.2275434448242,415.80600332031247,473.81014344482423Q402.3888233203125,476.49514344482424,399.4741373203125,485.9294434448242Q396.5896333203125,495.2661434448242,404.1452733203125,511.1159434448242L405.0479533203125,510.6856434448242Q397.6603233203125,495.1881434448242,400.4295833203125,486.2246434448242Q403.1685833203125,477.35884344482423,416.0022033203125,474.7907434448242Q429.3472033203125,472.1202434448242,434.02340332031247,464.1576434448242Z" fill-rule="evenodd" fill="#000000" fill-opacity="1"/></g></g></g></g><g><g><path d="M217.91416010742188,98.66454315185547L217.91416010742188,167.31474315185545L190.35086010742188,172.56774315185547L217.91416010742188,203.25854315185546Q198.99396010742188,268.05454315185546,198.64606010742187,267.1615431518555Q198.29826010742187,266.2685431518555,141.15036010742188,172.1737431518555L217.91416010742188,98.66454315185547Z" fill="#FFA500" fill-opacity="1"/></g><g><ellipse cx="257.9925594329834" cy="69.1426830291748" rx="21.985021591186523" ry="22.410634994506836" fill="#FFFFFF" fill-opacity="1"/><ellipse cx="257.9925594329834" cy="69.1426830291748" rx="21.985021591186523" ry="22.410634994506836" fill-opacity="0" stroke-opacity="1" stroke="#000000" fill="none" stroke-width="1"/></g><g><path d="M224.03066848242187,75.46605740966797C224.53580848242188,73.17625740966797,225.3158644824219,70.95605740966798,226.35386448242187,68.85375740966796Q228.63112448242188,64.51345740966796,235.05604448242187,64.52665740966796Q224.91008448242187,53.93525740966797,233.27752448242188,46.90280740966797Q239.6105444824219,39.62083740966797,249.17234448242186,47.29678740966797Q266.23534448242185,34.12487740966797,274.1106444824219,55.03835740966797Q290.6486444824219,54.21105740966797,286.7438444824219,67.88855740966797Q282.8389444824219,81.56605740966796,275.1672444824219,78.45365740966797Q266.79324448242187,69.26085740966798,265.28374448242187,79.11025740966797C264.53564448242184,84.02845740966796,259.5939444824219,89.34705740966797,254.7244444824219,89.33395740966796C249.85484448242187,89.32085740966797,246.7047444824219,84.51435740966797,242.32744448242187,86.14935740966797C241.23144448242186,86.56295740966797,240.18804448242187,87.08825740966796,239.08544448242188,87.58735740966796C235.36544448242188,89.26545740966796,231.01855448242188,88.70995740966796,227.83940448242188,86.15035740966798C224.66026048242188,83.59065740966797,223.18808048242187,79.46085740966797,224.03066848242187,75.46605740966797Z" fill="#2C2C2C" fill-opacity="1"/></g><g><path d="M217.92074584960938,98.65789569091797L304.92894584960936,98.65789569091797L348.41374584960937,148.25939569091798L362.0047458496094,98.65789569091797L352.65274584960935,87.21299569091798L369.4927458496094,51.92589569091797L375.10374584960937,51.92589569091797L370.73974584960933,74.39559569091797L394.0237458496094,89.64899569091797L363.26474584960937,216.20089569091797L303.3735458496094,172.31189569091796L295.0586458496094,200.71089569091797L217.92074584960938,200.71089569091797L217.92074584960938,98.65789569091797Z" fill="#FFFFFF" fill-opacity="1"/><path d="M217.42074584960938,98.15789569091797L217.42074584960938,201.21089569091797L295.43324584960936,201.21089569091797L303.6530458496094,173.13589569091795L363.5737458496094,217.04689569091798L394.5937458496094,89.42419569091797L371.2947458496094,74.16139569091797L375.71074584960934,51.42589569091797L369.1777458496094,51.42589569091797L352.0647458496094,87.28379569091797L361.45474584960937,98.77459569091798L348.17674584960935,147.23099569091795L305.1555458496094,98.15789569091797L217.42074584960938,98.15789569091797ZM218.42074584960938,200.21089569091797L294.6840458496094,200.21089569091797L303.09404584960936,171.48689569091798L362.95574584960934,215.35389569091797L393.45474584960937,89.87389569091798L370.1847458496094,74.62989569091798L374.4977458496094,52.42589569091797L369.8077458496094,52.42589569091797L353.24074584960937,87.14209569091797L362.5547458496094,98.54129569091796L348.6497458496094,149.28789569091796L304.7023458496094,99.15789569091797L218.42074584960938,99.15789569091797L218.42074584960938,200.21089569091797Z" fill-rule="evenodd" fill="#000000" fill-opacity="1"/></g><g><path d="M233.51376342773438,203.25194549560547L295.05866342773436,203.25194549560547L353.5847634277344,512.5819454956054L264.6996634277344,512.5819454956054L233.51376342773438,203.25194549560547Z" fill="#9F9DF2" fill-opacity="1"/></g><g><path d="M217.92076733398437,203.25194549560547L125.11776733398438,511.01194549560546L224.19476733398437,512.5819454956054L236.66376733398437,284.8179454956055L229.2347673339844,203.25194549560547L217.92076733398437,203.25194549560547Z" fill="#FFFFFF" fill-opacity="1"/><path d="M237.16476733398437,284.8089454956055L229.6917673339844,202.75194549560547L229.2347673339844,202.75194549560547L217.54936733398438,202.75194549560547L124.44793833398438,511.50194549560547L224.66766733398435,513.0889454956055L237.16476733398437,284.8089454956055ZM228.77876733398438,203.75194549560547L236.1627673339844,284.8270454956055L223.72176733398436,512.0739454956055L125.78759533398437,510.5229454956055L218.29226733398437,203.75194549560547L228.77876733398438,203.75194549560547Z" fill-rule="evenodd" fill="#000000" fill-opacity="1"/></g></g><g><g><path d="M21.460010528564453,466.2698974609375L112.49771052856445,466.2698974609375C112.49771052856445,491.4228974609375,92.11821052856445,511.81349746093747,66.97881052856445,511.8133974609375C41.83951052856445,511.81349746093747,21.460010528564453,491.4228974609375,21.460010528564453,466.2698974609375Z" fill="#EEA476" fill-opacity="1"/></g><g><path d="M46.99542615356445,410.515910546875Q27.445196153564453,409.353610546875,33.279436153564454,395.630200546875C39.11366615356445,381.90674054687497,76.32412615356445,380.961160546875,66.97882615356446,466.25031054687497Q72.09122615356446,413.437910546875,46.99542615356445,410.515910546875Z" fill="#2C2C2C" fill-opacity="1"/></g><g><path d="M87.99265213012696,428.408746484375C89.06575213012695,428.111746484375,90.11985213012696,427.749946484375,91.14925213012695,427.325346484375C93.51285213012696,426.323246484375,95.65265213012695,424.858746484375,97.44285213012695,423.017846484375C98.91945213012696,421.487946484375,100.17955213012695,419.616546484375,100.40265213012695,417.502216484375C100.57245213012695,415.183106484375,99.67615213012695,412.913126484375,97.96795213012695,411.336486484375C96.25835213012695,409.791506484375,94.12155213012696,408.800318484375,91.83835213012695,408.493286484375C75.53006213012695,405.899606484375,69.52520213012696,427.049546484375,68.12078213012695,439.289046484375C67.10356313012696,448.192846484375,66.45386313012695,457.326546484375,66.97887013012695,466.276346484375C67.56950813012695,456.426946484375,67.56294913012695,452.697346484375,69.21018213012695,446.229546484375C70.85741213012696,439.761746484375,74.76222213012696,433.536946484375,80.80645213012696,430.720046484375C83.09025213012696,429.656446484375,85.55785213012695,429.117946484375,87.99265213012696,428.408746484375Z" fill="#5560C1" fill-opacity="1"/></g><g><rect x="27.077686309814453" y="463.288818359375" width="81.84990692138672" height="2.9810805320739746" rx="0" fill="#A1FFC7" fill-opacity="1"/></g></g></g></svg>