<svg xmlns="http://www.w3.org/2000/svg" xmlns:xlink="http://www.w3.org/1999/xlink" fill="none" version="1.1" width="16" height="16" viewBox="0 0 16 16"><defs><clipPath id="master_svg0_318_1792"><rect x="0" y="0" width="16" height="16" rx="0"/></clipPath></defs><g clip-path="url(#master_svg0_318_1792)"><g><g><path d="M5.723525569763184,2.1548693866157533C6.377135569763183,-0.13538361338424687,9.622875569763183,-0.1353846133842468,10.276485569763183,2.1548693866157533C10.478995569763184,2.8644693866157533,11.208035569763183,3.285379386615753,11.923835569763183,3.105959386615753C14.234035569763183,2.526869386615753,15.856935569763184,5.337759386615753,14.200335569763183,7.048929386615753C13.687035569763184,7.5791093866157535,13.687035569763184,8.420919386615754,14.200335569763183,8.951109386615753C15.856935569763184,10.662279386615753,14.234035569763183,13.473179386615753,11.923835569763183,12.894079386615752C11.208035569763183,12.714679386615753,10.478995569763184,13.135579386615753,10.276485569763183,13.845179386615753C9.622875569763183,16.135379386615753,6.377135569763183,16.135379386615753,5.723525569763184,13.845179386615753C5.5210155697631835,13.135579386615753,4.791985569763184,12.714679386615753,4.0761955697631835,12.894079386615752C1.7659735697631835,13.473179386615753,0.14310556976318356,10.662279386615753,1.7997195697631836,8.951099386615754C2.3129955697631837,8.420919386615754,2.3129955697631837,7.5791093866157535,1.7997195697631836,7.048929386615753C0.14310556976318356,5.337759386615753,1.7659735697631835,2.526869386615753,4.0761955697631835,3.105959386615753C4.791985569763184,3.285379386615753,5.5210155697631835,2.8644693866157533,5.723525569763184,2.1548693866157533ZM9.314875569763183,2.429299386615753C8.937355569763184,1.1064723866157533,7.062655569763184,1.1064723866157533,6.685135569763184,2.429299386615753C6.334515569763184,3.6578593866157534,5.0723255697631835,4.3865893866157535,3.8330555697631836,4.075949386615753C2.498695569763184,3.741479386615753,1.5613435697631837,5.365019386615753,2.5181855697631836,6.3533693866157535C3.4068455697631834,7.271289386615753,3.4068455697631834,8.728739386615754,2.5181855697631836,9.646669386615754C1.5613435697631837,10.634979386615754,2.498695569763184,12.258579386615754,3.8330555697631836,11.924079386615754C5.0723255697631835,11.613479386615753,6.334515569763184,12.342179386615753,6.685135569763184,13.570779386615753C7.062655569763184,14.893579386615754,8.937355569763184,14.893579386615754,9.314875569763183,13.570779386615753C9.665485569763183,12.342179386615753,10.927685569763183,11.613479386615753,12.166935569763183,11.924079386615754C13.501335569763183,12.258579386615754,14.438635569763184,10.634979386615754,13.481835569763184,9.646669386615754C12.593135569763184,8.728739386615754,12.593135569763184,7.271289386615753,13.481835569763184,6.3533693866157535C14.438635569763184,5.365019386615753,13.501335569763183,3.741479386615753,12.166935569763183,4.075949386615753C10.927685569763183,4.3865893866157535,9.665485569763183,3.6578593866157534,9.314875569763183,2.429299386615753ZM5.500005569763184,8.000019386615753C5.500005569763184,6.6192993866157535,6.6192955697631835,5.500019386615753,8.000005569763184,5.500019386615753C9.380715569763183,5.500019386615753,10.500005569763184,6.6192993866157535,10.500005569763184,8.000019386615753C10.500005569763184,9.380729386615753,9.380715569763183,10.499979386615752,8.000005569763184,10.499979386615752C6.6192955697631835,10.499979386615752,5.500005569763184,9.380729386615753,5.500005569763184,8.000019386615753ZM8.000005569763184,6.500019386615753C7.171575569763184,6.500019386615753,6.500005569763184,7.171589386615753,6.500005569763184,8.000019386615753C6.500005569763184,8.828439386615754,7.171575569763184,9.500019386615753,8.000005569763184,9.500019386615753C8.828435569763183,9.500019386615753,9.500005569763184,8.828439386615754,9.500005569763184,8.000019386615753C9.500005569763184,7.171589386615753,8.828435569763183,6.500019386615753,8.000005569763184,6.500019386615753Z" fill-rule="evenodd" fill="#FDFDFD" fill-opacity="1"/></g></g></g></svg>