<svg xmlns="http://www.w3.org/2000/svg" xmlns:xlink="http://www.w3.org/1999/xlink" fill="none" version="1.1" width="24" height="24" viewBox="0 0 24 24"><defs><clipPath id="master_svg0_219_4414"><rect x="0" y="0" width="24" height="24" rx="0"/></clipPath></defs><g clip-path="url(#master_svg0_219_4414)"><g><g><path d="M6.3517340625,5.59572C7.9232540625,4.30899,9.8590540625,3.25,12.0000140625,3.25C14.1409140625,3.25,16.076714062500002,4.30899,17.6483140625,5.59572C19.2284140625,6.88946,20.5204140625,8.47865,21.3886140625,9.68801L21.4602140625,9.78759C21.9828140625,10.51384,22.4131140625,11.11166,22.4131140625,12C22.4131140625,12.88835,21.9828140625,13.4862,21.4602140625,14.2124L21.3886140625,14.312C20.5204140625,15.5214,19.2284140625,17.110500000000002,17.6483140625,18.4043C16.076714062500002,19.691,14.1409140625,20.75,12.0000140625,20.75C9.8590540625,20.75,7.9232540625,19.691,6.3517340625,18.4043C4.7716340625,17.110500000000002,3.4796240625,15.5214,2.6114140624999997,14.312L2.5398140625,14.2124C2.0171510625,13.4862,1.5869140625,12.88834,1.5869140625,12C1.5869140625,11.11166,2.0171520625,10.51384,2.5398140625,9.78759L2.6114140624999997,9.68801C3.4796140625,8.47865,4.7716340625,6.88946,6.3517340625,5.59572ZM7.3020040625,6.75631C5.8634840625,7.93414,4.6591940625,9.40765,3.8299340625,10.56278C3.2059640625,11.43194,3.0869140625,11.64148,3.0869140625,12C3.0869140625,12.35852,3.2059640625,12.56806,3.8299340625,13.4372C4.659204062500001,14.5923,5.8634840625,16.0659,7.3020040625,17.2437C8.749104062499999,18.4285,10.3542340625,19.25,12.0000140625,19.25C13.6458140625,19.25,15.2509140625,18.4285,16.6980140625,17.2437C18.1365140625,16.0659,19.3408140625,14.5923,20.1701140625,13.4372C20.7940140625,12.56806,20.9131140625,12.35852,20.9131140625,12C20.9131140625,11.64148,20.7940140625,11.43194,20.1701140625,10.56278C19.3408140625,9.40765,18.1365140625,7.93414,16.6980140625,6.75631C15.2509140625,5.57146,13.6458140625,4.75,12.0000140625,4.75C10.3542340625,4.75,8.749104062499999,5.57146,7.3020040625,6.75631ZM8.2500040625,12C8.2500040625,9.928930000000001,9.9289340625,8.25,12.0000140625,8.25C14.0711140625,8.25,15.7500140625,9.928930000000001,15.7500140625,12C15.7500140625,14.0711,14.0711140625,15.75,12.0000140625,15.75C9.9289340625,15.75,8.2500040625,14.0711,8.2500040625,12ZM12.0000140625,9.75C10.7573640625,9.75,9.7500040625,10.75736,9.7500040625,12C9.7500040625,13.24264,10.7573640625,14.25,12.0000140625,14.25C13.2426140625,14.25,14.2500140625,13.24264,14.2500140625,12C14.2500140625,10.75736,13.2426140625,9.75,12.0000140625,9.75Z" fill-rule="evenodd" fill="#11141D" fill-opacity="1"/></g></g></g></svg>