<svg xmlns="http://www.w3.org/2000/svg" xmlns:xlink="http://www.w3.org/1999/xlink" fill="none" version="1.1" width="18" height="18" viewBox="0 0 18 18"><defs><clipPath id="master_svg0_480_0549"><rect x="0" y="0" width="18" height="18" rx="0"/></clipPath></defs><g clip-path="url(#master_svg0_480_0549)"><g><g><path d="M9,16.5C13.1421,16.5,16.5,13.1421,16.5,9C16.5,4.8578600000000005,13.1421,1.5,9,1.5C4.8578600000000005,1.5,1.5,4.8578600000000005,1.5,9C1.5,13.1421,4.8578600000000005,16.5,9,16.5ZM13.1691,7.1252C13.3763,6.89375,13.3567,6.53814,13.1252,6.33092C12.8938,6.1237,12.5381,6.14334,12.3309,6.3748C12.3309,6.3748,9.80404,9.19718,9.80404,9.19718C9.29202,9.76908,8.947199999999999,10.15221,8.65239,10.39999C8.37155,10.63604,8.2066,10.6875,8.0625,10.6875C7.9184,10.6875,7.75345,10.63604,7.47261,10.39999C7.1778,10.1522,6.83298,9.76908,6.32096,9.19718C6.32096,9.19718,5.66908,8.46907,5.66908,8.46907C5.46186,8.23762,5.10625,8.217970000000001,4.8748000000000005,8.42519C4.64334,8.63241,4.6236999999999995,8.988019999999999,4.83092,9.219470000000001C4.83092,9.219470000000001,5.51065,9.97869,5.51065,9.97869C5.98754,10.51139,6.38531,10.95571,6.74876,11.2612C7.13324,11.5844,7.54794,11.8125,8.0625,11.8125C8.57705,11.8125,8.99176,11.5844,9.37624,11.2612C9.73969,10.95571,10.13746,10.51139,10.61435,9.9787C10.61435,9.9787,13.1691,7.1252,13.1691,7.1252Z" fill-rule="evenodd" fill="#345DFF" fill-opacity="1"/></g></g></g></svg>