<svg xmlns="http://www.w3.org/2000/svg" xmlns:xlink="http://www.w3.org/1999/xlink" fill="none" version="1.1" width="24" height="24" viewBox="0 0 24 24"><defs><clipPath id="master_svg0_314_713"><rect x="0" y="0" width="24" height="24" rx="0"/></clipPath></defs><g clip-path="url(#master_svg0_314_713)"><g><path d="M6.6,4C6.268629,4,6,4.335786,6,4.75C6,5.16421,6.268629,5.5,6.6,5.5C6.6,5.5,19.4,5.5,19.4,5.5C19.7314,5.5,20,5.16421,20,4.75C20,4.335786,19.7314,4,19.4,4C19.4,4,6.6,4,6.6,4Z" fill="#2D264B" fill-opacity="1"/></g><g transform="matrix(0,1,-1,0,24,-16)"><path d="M20.6,4C20.268629,4,20,4.335786,20,4.75C20,5.16421,20.268629,5.5,20.6,5.5C20.6,5.5,33.4,5.5,33.4,5.5C33.7314,5.5,34,5.16421,34,4.75C34,4.335786,33.7314,4,33.4,4C33.4,4,20.6,4,20.6,4Z" fill="#2D264B" fill-opacity="1"/></g><g transform="matrix(0,1,-1,0,11.5,-3.5)"><path d="M8.1,4C7.768629,4,7.5,4.335786,7.5,4.75C7.5,5.16421,7.768629,5.5,8.1,5.5C8.1,5.5,9.5,5.5,9.5,5.5C9.83137,5.5,10,5.16421,10,4.75C10,4.335786,9.83137,4,9.5,4C9.5,4,8.1,4,8.1,4Z" fill="#2D264B" fill-opacity="1"/></g><g><path d="M18.00000129711914,16.5C17.66863029711914,16.5,17.49997329711914,16.835786,17.49997329711914,17.25C17.49997329711914,17.66421,17.66875029711914,18,18.00012129711914,18C18.00012129711914,18,19.40000329711914,18,19.40000329711914,18C19.73137329711914,18,20.00000329711914,17.66421,20.00000329711914,17.25C20.00000329711914,16.835786,19.73137329711914,16.5,19.40000329711914,16.5C19.40000329711914,16.5,18.00000129711914,16.5,18.00000129711914,16.5Z" fill="#2D264B" fill-opacity="1"/></g><g><path d="M4.6,6C4.268629,6,4,6.335786,4,6.75C4,7.16421,4.268629,7.5,4.6,7.5C4.6,7.5,17.4,7.5,17.4,7.5C17.7314,7.5,18,7.16421,18,6.75C18,6.335786,17.7314,6,17.4,6C17.4,6,4.6,6,4.6,6Z" fill="#2D264B" fill-opacity="1"/></g><g transform="matrix(0,1,-1,0,24,-12)"><path d="M18.6,6C18.268629,6,18,6.335786,18,6.75C18,7.16421,18.268629,7.5,18.6,7.5C18.6,7.5,31.4,7.5,31.4,7.5C31.7314,7.5,32,7.16421,32,6.75C32,6.335786,31.7314,6,31.4,6C31.4,6,18.6,6,18.6,6Z" fill="#2D264B" fill-opacity="1"/></g><g transform="matrix(0,1,-1,0,11.5,0.5)"><path d="M6.1,6C5.768629,6,5.5,6.335786,5.5,6.75C5.5,7.16421,5.768629,7.5,6.1,7.5C6.1,7.5,18.9,7.5,18.9,7.5C19.2314,7.5,19.5,7.16421,19.5,6.75C19.5,6.335786,19.2314,6,18.9,6C18.9,6,6.1,6,6.1,6Z" fill="#2D264B" fill-opacity="1"/></g><g><path d="M4.6,18.5C4.268629,18.5,4,18.835786,4,19.25C4,19.66421,4.268629,20,4.6,20C4.6,20,17.4,20,17.4,20C17.7314,20,18,19.66421,18,19.25C18,18.835786,17.7314,18.5,17.4,18.5C17.4,18.5,4.6,18.5,4.6,18.5Z" fill="#2D264B" fill-opacity="1"/></g></g></svg>