<svg xmlns="http://www.w3.org/2000/svg" xmlns:xlink="http://www.w3.org/1999/xlink" fill="none" version="1.1" width="16" height="16" viewBox="0 0 16 16"><defs><clipPath id="master_svg0_354_0285"><rect x="0" y="0" width="16" height="16" rx="0"/></clipPath></defs><g clip-path="url(#master_svg0_354_0285)"><g><g><path d="M7.809878648300171,0.687088876875C7.936518648300171,0.680801106875,8.063398648300172,0.680801106875,8.19004864830017,0.687088876875C8.67895864830017,0.711362346875,9.129068648300171,0.853423046875,9.630838648300172,1.086273046875C10.11931864830017,1.312957046875,10.68693864830017,1.640677046875,11.405008648300171,2.055283046875L11.44570864830017,2.0787630468750002C12.16380864830017,2.4933630468750003,12.73150864830017,2.821083046875,13.17200864830017,3.130773046875C13.624608648300171,3.448903046875,13.97260864830017,3.767673046875,14.238108648300171,4.178943046875C14.30690864830017,4.285483046875,14.37030864830017,4.395363046875,14.42820864830017,4.508183046875001C14.65160864830017,4.943723046875,14.75370864830017,5.404563046875,14.802908648300171,5.955533046875C14.850808648300172,6.491913046875,14.850808648300172,7.147373046875,14.850808648300172,7.976563046875L14.850808648300172,8.023553046875C14.850808648300172,8.852743046875,14.850808648300172,9.508173046875,14.802908648300171,10.044543046875C14.75370864830017,10.595513046875,14.65160864830017,11.056373046875,14.42820864830017,11.491873046875C14.37030864830017,11.604673046875,14.30690864830017,11.714573046875,14.238108648300171,11.821173046875C13.91460864830017,12.322373046875,13.46700864830017,12.687473046875,12.85820864830017,13.079873046875C12.472008648300172,13.328773046875,12.001208648300171,13.600573046875,11.435408648300172,13.927273046875L11.405108648300171,13.944773046875C10.68694864830017,14.359373046875,10.11931864830017,14.687073046875,9.630838648300172,14.913773046875C9.129068648300171,15.146673046875,8.67895864830017,15.288673046875,8.19004864830017,15.312973046875C8.063398648300172,15.319273046875,7.936518648300171,15.319273046875,7.809878648300171,15.312973046875C7.320968648300171,15.288673046875,6.870858648300171,15.146673046875,6.3690886483001705,14.913773046875C5.880598648300171,14.687073046875,5.312978648300171,14.359373046875,4.594858648300171,13.944773046875L4.5649886483001705,13.927573046875C4.004388648300171,13.603873046875,3.537178648300171,13.334173046875,3.1531486483001707,13.087273046875C2.538468648300171,12.692073046875,2.087314648300171,12.325373046875,1.761804648300171,11.821173046875C1.6930366483001709,11.714573046875,1.629596648300171,11.604673046875,1.571719648300171,11.491873046875C1.348287648300171,11.056373046875,1.2462603483001709,10.595513046875,1.1970289483001708,10.044543046875C1.149101317030171,9.508163046875,1.149104553600171,8.852733046875,1.149108648300171,8.023513046875L1.149108648300171,7.976563046875C1.149104553600171,7.147353046875,1.149101317570171,6.491913046875,1.1970289483001708,5.955533046875C1.2462603483001709,5.404563046875,1.348287648300171,4.943723046875,1.571719648300171,4.508183046875001C1.629596648300171,4.395363046875,1.6930366483001709,4.285483046875,1.761804648300171,4.178943046875C2.027279648300171,3.767673046875,2.375358648300171,3.448903046875,2.827898648300171,3.130773046875C3.2684586483001707,2.821083046875,3.836088648300171,2.4933630468750003,4.55419864830017,2.0787630468750002L4.594868648300171,2.055283046875C5.312988648300171,1.640677046875,5.8806086483001705,1.312957046875,6.3690886483001705,1.086273046875C6.870858648300171,0.853423046875,7.320968648300171,0.711362346875,7.809878648300171,0.687088876875ZM8.140458648300172,1.685863046875C8.04684864830017,1.6812110468750001,7.953068648300171,1.6812110468750001,7.859468648300171,1.685863046875C7.5442486483001705,1.701513046875,7.224628648300171,1.791683046875,6.790028648300171,1.993363046875C6.346748648300171,2.199073046875,5.817458648300171,2.5041230468749998,5.074538648300171,2.933053046875C4.331608648300171,3.361983046875,3.802778648300171,3.667823046875,3.402998648300171,3.948863046875C3.011038648300171,4.2244030468750005,2.7731286483001707,4.456113046875,2.601968648300171,4.721273046875C2.551138648300171,4.800013046875,2.504248648300171,4.881233046875,2.461468648300171,4.964623046875C2.317418648300171,5.245433046875,2.235698648300171,5.567323046875,2.1930586483001706,6.044533046875C2.149568648300171,6.531283046875,2.149108648300171,7.142183046875,2.149108648300171,8.000043046875C2.149108648300171,8.857893046875,2.149568648300171,9.468793046875,2.1930586483001706,9.955543046875C2.235698648300171,10.432753046875,2.317418648300171,10.754673046875,2.461468648300171,11.035473046875C2.504248648300171,11.118873046875,2.551138648300171,11.200073046875,2.601968648300171,11.278773046875C2.738508648300171,11.490373046875,2.9168986483001706,11.679873046875,3.181988648300171,11.887673046875C3.707148648300171,10.865973046875,4.7714186483001715,10.166703046875,5.999958648300171,10.166703046875L9.99995864830017,10.166703046875C11.22850864830017,10.166703046875,12.292808648300172,10.866073046875,12.81790864830017,11.887673046875C13.08300864830017,11.679873046875,13.26140864830017,11.490273046875,13.39790864830017,11.278773046875C13.44880864830017,11.200073046875,13.495708648300171,11.118873046875,13.538408648300171,11.035473046875C13.682508648300171,10.754673046875,13.76420864830017,10.432753046875,13.80690864830017,9.955543046875C13.850308648300171,9.468793046875,13.850808648300172,8.857893046875,13.850808648300172,8.000043046875C13.850808648300172,7.142183046875,13.850308648300171,6.531283046875,13.80690864830017,6.044533046875C13.76420864830017,5.567323046875,13.682508648300171,5.245433046875,13.538408648300171,4.964623046875C13.495708648300171,4.881233046875,13.44880864830017,4.800013046875,13.39790864830017,4.721273046875C13.226808648300171,4.456113046875,12.988908648300171,4.2244030468750005,12.596908648300172,3.948863046875C12.197108648300171,3.667823046875,11.66830864830017,3.361983046875,10.92538864830017,2.933053046875C10.182458648300171,2.5041230468749998,9.653178648300171,2.199073046875,9.209898648300172,1.993363046875C8.775298648300172,1.791683046875,8.455678648300172,1.701513046875,8.140458648300172,1.685863046875ZM4.833298648300171,6.000043046875C4.833298648300171,4.251133046875,6.251058648300171,2.833373046875,7.999958648300171,2.833373046875C9.74886864830017,2.833373046875,11.166608648300171,4.251133046875,11.166608648300171,6.000043046875C11.166608648300171,7.748943046875,9.74886864830017,9.166703046875,7.999958648300171,9.166703046875C6.251058648300171,9.166703046875,4.833298648300171,7.748943046875,4.833298648300171,6.000043046875ZM7.999958648300171,3.833373046875C6.803348648300171,3.833373046875,5.833298648300171,4.803423046875,5.833298648300171,6.000043046875C5.833298648300171,7.196653046875,6.803348648300171,8.166703046875,7.999958648300171,8.166703046875C9.196578648300171,8.166703046875,10.16662864830017,7.196653046875,10.16662864830017,6.000043046875C10.16662864830017,4.803423046875,9.196578648300171,3.833373046875,7.999958648300171,3.833373046875ZM11.979008648300171,12.449773046875C11.64080864830017,11.693273046875,10.88133864830017,11.166673046875,9.99995864830017,11.166673046875L5.999958648300171,11.166673046875C5.118568648300171,11.166673046875,4.359138648300171,11.693273046875,4.020888648300171,12.449773046875C4.317408648300171,12.629873046875,4.663678648300171,12.829773046875,5.074538648300171,13.067073046875C5.817458648300171,13.495973046875,6.346748648300171,13.800973046875,6.790028648300171,14.006673046875C7.224628648300171,14.208373046875,7.5442486483001705,14.298573046875,7.859468648300171,14.314173046875C7.953068648300171,14.318873046875,8.04684864830017,14.318873046875,8.140458648300172,14.314173046875C8.455678648300172,14.298573046875,8.775298648300172,14.208373046875,9.209898648300172,14.006673046875C9.653178648300171,13.800973046875,10.182458648300171,13.495973046875,10.92538864830017,13.067073046875C11.336308648300172,12.829773046875,11.682608648300171,12.629773046875,11.979008648300171,12.449773046875Z" fill-rule="evenodd" fill="#4D4D4D" fill-opacity="1"/></g></g></g></svg>