<svg xmlns="http://www.w3.org/2000/svg" xmlns:xlink="http://www.w3.org/1999/xlink" fill="none" version="1.1" width="16" height="16" viewBox="0 0 16 16"><defs><clipPath id="master_svg0_273_5183"><rect x="0" y="0" width="16" height="16" rx="0"/></clipPath></defs><g clip-path="url(#master_svg0_273_5183)"><g><g><path d="M3.38121783203125,5.999998247070312C4.89693783203125,3.3746882470703126,5.65479783203125,2.0620322470703125,6.64422783203125,1.6215092470703125C7.50725783203125,1.2372677470703124,8.49278783203125,1.2372677470703124,9.35580783203125,1.6215092470703125C10.34523783203125,2.0620322470703125,11.10309783203125,3.3746882470703126,12.61877783203125,5.999998247070312C14.13457783203125,8.625308247070311,14.89237783203125,9.937958247070313,14.77917783203125,11.015088247070313C14.68047783203125,11.954628247070312,14.18767783203125,12.808128247070313,13.42337783203125,13.363428247070312C12.54717783203125,14.000028247070313,11.03146783203125,14.000028247070313,8.00001783203125,14.000028247070313C4.96857783203125,14.000028247070313,3.45284783203125,14.000028247070313,2.57662783203125,13.363428247070312C1.8123578320312501,12.808128247070313,1.31959183203125,11.954628247070312,1.22084453203125,11.015088247070313C1.10763283203125,9.937958247070313,1.86549383203125,8.625308247070311,3.38121783203125,5.999998247070312ZM7.99997783203125,4.166658247070313C8.27611783203125,4.166658247070313,8.499977832031249,4.390518247070313,8.499977832031249,4.666658247070313C8.499977832031249,4.666658247070313,8.499977832031249,8.666658247070313,8.499977832031249,8.666658247070313C8.499977832031249,8.942808247070312,8.27611783203125,9.166658247070313,7.99997783203125,9.166658247070313C7.72383783203125,9.166658247070313,7.49997783203125,8.942808247070312,7.49997783203125,8.666658247070313C7.49997783203125,8.666658247070313,7.49997783203125,4.666658247070313,7.49997783203125,4.666658247070313C7.49997783203125,4.390518247070313,7.72383783203125,4.166658247070313,7.99997783203125,4.166658247070313ZM7.99997783203125,11.333328247070312C8.36816783203125,11.333328247070312,8.66664783203125,11.034848247070313,8.66664783203125,10.666658247070313C8.66664783203125,10.298468247070312,8.36816783203125,9.999998247070312,7.99997783203125,9.999998247070312C7.63178783203125,9.999998247070312,7.33331783203125,10.298468247070312,7.33331783203125,10.666658247070313C7.33331783203125,11.034848247070313,7.63178783203125,11.333328247070312,7.99997783203125,11.333328247070312Z" fill-rule="evenodd" fill="#FBAC25" fill-opacity="1"/></g></g></g></svg>